<svg xmlns="http://www.w3.org/2000/svg" fill="none" viewBox="0 0 20 20" height="20" width="20">
<path stroke-linejoin="round" stroke-linecap="round" stroke-width="1.67" stroke="#2824B6" d="M7.64743 10L9.21581 11.5684L12.3526 8.43162M6.73364 4.27309C7.29632 4.22818 7.8305 4.00692 8.26013 3.64079C9.26271 2.7864 10.7373 2.7864 11.7399 3.64079C12.1695 4.00692 12.7037 4.22818 13.2664 4.27309C14.5794 4.37787 15.6221 5.42056 15.7269 6.73364C15.7718 7.29632 15.9931 7.8305 16.3592 8.26013C17.2136 9.26271 17.2136 10.7373 16.3592 11.7399C15.9931 12.1695 15.7718 12.7037 15.7269 13.2664C15.6221 14.5794 14.5794 15.6221 13.2664 15.7269C12.7037 15.7718 12.1695 15.9931 11.7399 16.3592C10.7373 17.2136 9.26271 17.2136 8.26013 16.3592C7.8305 15.9931 7.29632 15.7718 6.73364 15.7269C5.42056 15.6221 4.37787 14.5794 4.27309 13.2664C4.22818 12.7037 4.00692 12.1695 3.64079 11.7399C2.7864 10.7373 2.7864 9.26271 3.64079 8.26013C4.00692 7.8305 4.22818 7.29632 4.27309 6.73364C4.37787 5.42056 5.42056 4.37787 6.73364 4.27309Z"></path>
</svg>
