<svg xmlns="http://www.w3.org/2000/svg" fill="none" viewBox="0 0 20 20" height="20" width="20">
<path fill-opacity="0.15" fill="#2824B6" d="M13.0221 6.36362C13.0221 7.97027 11.7196 9.27271 10.113 9.27271C8.50631 9.27271 7.20387 7.97027 7.20387 6.36362C7.20387 4.75697 8.50631 3.45453 10.113 3.45453C11.7196 3.45453 13.0221 4.75697 13.0221 6.36362Z" clip-rule="evenodd" fill-rule="evenodd"></path>
<path fill-opacity="0.15" fill="#2824B6" d="M5.0192 16.5454C4.61754 16.5454 4.31953 16.2116 4.51732 15.862C4.63911 15.6468 4.80843 15.4162 5.0192 15.1824C5.0453 15.1535 5.07203 15.1245 5.09939 15.0955L5.10369 15.0909C6.1169 14.0182 7.98102 12.9091 10.113 12.9091C12.2449 12.9091 14.109 14.0182 15.1222 15.0909L15.1265 15.0955C15.1539 15.1245 15.1806 15.1535 15.2067 15.1824C15.4175 15.4162 15.5868 15.6468 15.7086 15.862C15.9064 16.2116 15.6084 16.5454 15.2067 16.5454H5.0192Z" clip-rule="evenodd" fill-rule="evenodd"></path>
<path fill="#2824B6" d="M10.113 10.7273C12.5229 10.7273 14.4766 8.77361 14.4766 6.36364C14.4766 3.95367 12.5229 2 10.113 2C7.70301 2 5.74934 3.95367 5.74934 6.36364C5.74934 8.77361 7.70301 10.7273 10.113 10.7273ZM13.0221 6.36364C13.0221 7.97028 11.7196 9.27273 10.113 9.27273C8.50633 9.27273 7.20389 7.97028 7.20389 6.36364C7.20389 4.75699 8.50633 3.45455 10.113 3.45455C11.7196 3.45455 13.0221 4.75699 13.0221 6.36364Z" clip-rule="evenodd" fill-rule="evenodd"></path>
<path fill="#2824B6" d="M10.113 11.4545C8.47108 11.4545 6.99108 11.985 5.83326 12.6761C4.6983 13.3534 3.75421 14.257 3.25139 15.1457C2.85777 15.8414 2.94072 16.6497 3.40006 17.2339C3.8117 17.7574 4.43369 18 5.01922 18H15.2067C15.7923 18 16.4143 17.7574 16.8259 17.2339C17.2852 16.6497 17.3682 15.8414 16.9746 15.1457C16.4717 14.257 15.5277 13.3534 14.3927 12.6761C13.2349 11.985 11.7549 11.4545 10.113 11.4545ZM5.01922 16.5455C4.61756 16.5455 4.31955 16.2116 4.51734 15.862C4.63913 15.6468 4.80845 15.4163 5.01922 15.1825C5.04532 15.1535 5.07205 15.1245 5.09941 15.0955L5.10371 15.0909C6.11692 14.0182 7.98104 12.9091 10.113 12.9091C12.2449 12.9091 14.109 14.0182 15.1222 15.0909L15.1266 15.0955C15.1539 15.1245 15.1806 15.1535 15.2067 15.1825C15.4175 15.4163 15.5868 15.6468 15.7086 15.862C15.9064 16.2116 15.6084 16.5455 15.2067 16.5455H5.01922Z" clip-rule="evenodd" fill-rule="evenodd"></path>
</svg>
