<svg xmlns="http://www.w3.org/2000/svg" fill="none" viewBox="0 0 20 20" height="20" width="20">
<g clip-path="url(#clip0_1600_2550)">
<path fill-opacity="0.15" fill="#2824B6" d="M15.9521 14.053C15.8801 13.7841 15.9268 13.4989 16.06 13.2544C17.5073 10.5973 17.1068 7.20105 14.8587 4.95287C12.1233 2.21747 7.68829 2.21747 4.95289 4.95287C2.21748 7.68828 2.21748 12.1232 4.95289 14.8587C7.04765 16.9534 10.1391 17.444 12.7007 16.3305C12.9253 16.2328 13.1758 16.2044 13.4124 16.2678L15.1149 16.724C15.8585 16.9232 16.5389 16.2428 16.3396 15.4992L15.9521 14.053Z" clip-rule="evenodd" fill-rule="evenodd"></path>
<path fill="#2824B6" d="M16.3396 15.4992L15.6152 15.6933L16.3396 15.4992ZM12.7007 16.3305L12.4017 15.6426L12.7007 16.3305ZM16.06 13.2544L15.4014 12.8957L16.06 13.2544ZM15.9521 14.053L16.6766 13.8589L15.9521 14.053ZM14.3283 5.4832C16.335 7.48988 16.6939 10.5226 15.4014 12.8957L16.7186 13.6132C18.3206 10.672 17.8787 6.91223 15.389 4.42254L14.3283 5.4832ZM5.48322 5.4832C7.92573 3.04069 11.8858 3.04069 14.3283 5.4832L15.389 4.42254C12.3607 1.39424 7.45086 1.39424 4.42256 4.42254L5.48322 5.4832ZM5.48322 14.3283C3.04071 11.8858 3.04071 7.92571 5.48322 5.4832L4.42256 4.42254C1.39426 7.45084 1.39426 12.3607 4.42256 15.389L5.48322 14.3283ZM12.4017 15.6426C10.1131 16.6375 7.35285 16.1979 5.48322 14.3283L4.42256 15.389C6.74245 17.7089 10.1651 18.2505 12.9997 17.0183L12.4017 15.6426ZM15.309 15.9995L13.6065 15.5433L13.2183 16.9922L14.9208 17.4484L15.309 15.9995ZM15.2277 14.2471L15.6152 15.6933L17.0641 15.3051L16.6766 13.8589L15.2277 14.2471ZM14.9208 17.4484C16.222 17.7971 17.4127 16.6064 17.0641 15.3051L15.6152 15.6933C15.665 15.8792 15.4949 16.0493 15.309 15.9995L14.9208 17.4484ZM12.9997 17.0183C13.0891 16.9794 13.1656 16.9781 13.2183 16.9922L13.6065 15.5433C13.186 15.4307 12.7615 15.4862 12.4017 15.6426L12.9997 17.0183ZM15.4014 12.8957C15.1884 13.2866 15.0995 13.7688 15.2277 14.2471L16.6766 13.8589C16.6606 13.7994 16.6652 13.7113 16.7186 13.6132L15.4014 12.8957Z"></path>
<path fill="#2824B6" d="M15.1204 16.5865L15.3146 15.862L15.1204 16.5865ZM16.3452 15.3617L15.6207 15.5558L16.3452 15.3617ZM12.705 16.1926L13.004 16.8805L12.705 16.1926ZM13.4167 16.13L13.6108 15.4055L13.4167 16.13ZM16.0652 13.1158L15.4066 12.757L16.0652 13.1158ZM15.9574 13.9143L16.6818 13.7202L15.9574 13.9143ZM14.3332 5.34168C16.3407 7.34912 16.6997 10.383 15.4066 12.757L16.7239 13.4745C18.3264 10.5324 17.8844 6.77148 15.3939 4.28102L14.3332 5.34168ZM5.48485 5.34168C7.92827 2.89826 11.8898 2.89826 14.3332 5.34168L15.3939 4.28102C12.3647 1.25181 7.45339 1.25181 4.42419 4.28102L5.48485 5.34168ZM5.48485 14.1901C3.04144 11.7466 3.04144 7.78509 5.48485 5.34168L4.42419 4.28102C1.39499 7.31022 1.39499 12.2215 4.42419 15.2507L5.48485 14.1901ZM12.406 15.5048C10.1165 16.5001 7.3552 16.0604 5.48485 14.1901L4.42419 15.2507C6.74481 17.5713 10.1686 18.1131 13.004 16.8805L12.406 15.5048ZM15.3146 15.862L13.6108 15.4055L13.2226 16.8544L14.9263 17.3109L15.3146 15.862ZM15.2329 14.1085L15.6207 15.5558L17.0696 15.1676L16.6818 13.7202L15.2329 14.1085ZM14.9263 17.3109C16.2276 17.6596 17.4183 16.4689 17.0696 15.1676L15.6207 15.5558C15.6705 15.7417 15.5004 15.9118 15.3146 15.862L14.9263 17.3109ZM13.004 16.8805C13.0934 16.8416 13.1699 16.8403 13.2226 16.8544L13.6108 15.4055C13.1903 15.2928 12.7658 15.3484 12.406 15.5048L13.004 16.8805ZM15.4066 12.757C15.1937 13.1479 15.1048 13.6302 15.2329 14.1085L16.6818 13.7202C16.6658 13.6607 16.6704 13.5726 16.7239 13.4745L15.4066 12.757Z"></path>
</g>
<defs>
<clipPath id="clip0_1600_2550">
<rect fill="white" height="20" width="20"></rect>
</clipPath>
</defs>
</svg>
