<svg xmlns="http://www.w3.org/2000/svg" fill="none" viewBox="0 0 20 20" height="20" width="20">
<path fill="#2824B6" d="M8.63073 16.9484L8.15617 15.8969C7.98709 15.5216 7.70153 15.2088 7.34058 15.0036C6.97942 14.7983 6.56162 14.7109 6.14697 14.7538L4.98584 14.8756C4.27979 14.9487 3.59617 14.6056 3.24099 14C2.88568 13.3944 2.926 12.6393 3.34384 12.0738L4.03131 11.1431C4.27648 10.8109 4.40851 10.4107 4.40843 10C4.40851 9.58927 4.27648 9.18908 4.03131 8.85689L3.34384 7.92622C2.926 7.36067 2.88568 6.60563 3.24099 6C3.59583 5.39401 4.2797 5.05085 4.98584 5.12444L6.15058 5.24622C6.56523 5.28913 6.98303 5.2017 7.34419 4.99644C7.70379 4.7906 7.98803 4.47789 8.15617 4.10311L8.63073 3.05156C8.91894 2.41205 9.56253 2 10.2727 2C10.9829 2 11.6265 2.41205 11.9147 3.05156L12.3929 4.10311C12.561 4.47789 12.8453 4.7906 13.2049 4.99644C13.566 5.2017 13.9838 5.28913 14.3985 5.24622L15.5596 5.12444C16.2658 5.05085 16.9496 5.39401 17.3045 6C17.6598 6.60563 17.6195 7.36067 17.2016 7.92622L16.5141 8.85689C16.269 9.18908 16.1369 9.58927 16.137 10C16.1349 10.4119 16.2657 10.8137 16.5105 11.1476L17.198 12.0782C17.6158 12.6438 17.6562 13.3988 17.3009 14.0044C16.946 14.6104 16.2621 14.9536 15.556 14.88L14.3949 14.7582C13.9802 14.7153 13.5624 14.8027 13.2013 15.008C12.8424 15.2127 12.5582 15.5238 12.3893 15.8969L11.9147 16.9484C11.6265 17.588 10.9829 18 10.2727 18C9.56253 18 8.91894 17.588 8.63073 16.9484ZM10.2727 12.1818C11.4777 12.1818 12.4545 11.205 12.4545 10C12.4545 8.79501 11.4777 7.81818 10.2727 7.81818C9.06774 7.81818 8.09091 8.79501 8.09091 10C8.09091 11.205 9.06774 12.1818 10.2727 12.1818Z" clip-rule="evenodd" fill-rule="evenodd" opacity="0.15"></path>
<path stroke-width="1.5" stroke="#2824B6" d="M8.15617 15.8969L8.63073 16.9484C8.91894 17.588 9.56253 18 10.2727 18V18C10.9829 18 11.6265 17.588 11.9147 16.9484L12.3893 15.8969C12.5582 15.5238 12.8424 15.2127 13.2013 15.008V15.008C13.5624 14.8027 13.9802 14.7153 14.3949 14.7582L15.556 14.88C16.2621 14.9536 16.946 14.6104 17.3009 14.0044V14.0044C17.6562 13.3988 17.6158 12.6438 17.198 12.0782L16.5105 11.1476C16.2657 10.8137 16.1349 10.4119 16.137 10V10C16.1369 9.58927 16.269 9.18908 16.5141 8.85689L17.2016 7.92622C17.6195 7.36067 17.6598 6.60563 17.3045 6V6C16.9496 5.39401 16.2658 5.05085 15.5596 5.12444L14.3985 5.24622C13.9838 5.28913 13.566 5.2017 13.2049 4.99644V4.99644C12.8453 4.7906 12.561 4.47789 12.3929 4.10311L11.9147 3.05156C11.6265 2.41205 10.9829 2 10.2727 2V2C9.56253 2 8.91894 2.41205 8.63073 3.05156L8.15617 4.10311C7.98803 4.47789 7.70379 4.7906 7.34419 4.99644V4.99644C6.98303 5.2017 6.56523 5.28913 6.15058 5.24622L4.98584 5.12444C4.2797 5.05085 3.59583 5.39401 3.24099 6V6C2.88568 6.60563 2.926 7.36067 3.34384 7.92622L4.03131 8.85689C4.27648 9.18908 4.40851 9.58927 4.40843 10V10C4.40851 10.4107 4.27648 10.8109 4.03131 11.1431L3.34384 12.0738C2.926 12.6393 2.88568 13.3944 3.24099 14V14C3.59617 14.6056 4.27979 14.9487 4.98584 14.8756L6.14697 14.7538C6.56162 14.7109 6.97942 14.7983 7.34058 15.0036V15.0036C7.70153 15.2088 7.98709 15.5216 8.15617 15.8969V15.8969Z" clip-rule="evenodd" fill-rule="evenodd"></path>
<circle stroke-linejoin="round" stroke-linecap="round" stroke-width="1.5" stroke="#2824B6" r="2.18182" cy="9.99999" cx="10.2728"></circle>
</svg>
