<svg xmlns="http://www.w3.org/2000/svg" fill="none" height="48" width="48">
  <g opacity=".8" style="mix-blend-mode:multiply">
    <path fill="url(#a)" d="M27.123 12.98c1.927-1.926 4.12-3.206 6.095-3.726 1.983-.522 3.697-.27 4.748.78 1.05 1.05 1.302 2.765.78 4.748-.52 1.976-1.8 4.168-3.727 6.095-1.927 1.927-4.118 3.207-6.095 3.727-1.983.522-3.697.27-4.747-.78-1.05-1.05-1.302-2.765-.78-4.748.52-1.976 1.8-4.168 3.726-6.095Z"></path>
    <path stroke-width=".5" stroke="#FEB58D" d="M27.123 12.98c1.927-1.926 4.12-3.206 6.095-3.726 1.983-.522 3.697-.27 4.748.78 1.05 1.05 1.302 2.765.78 4.748-.52 1.976-1.8 4.168-3.727 6.095-1.927 1.927-4.118 3.207-6.095 3.727-1.983.522-3.697.27-4.747-.78-1.05-1.05-1.302-2.765-.78-4.748.52-1.976 1.8-4.168 3.726-6.095Z"></path>
  </g>
  <g opacity=".8" style="mix-blend-mode:multiply">
    <path fill="url(#b)" d="M27.123 12.98c1.927-1.926 4.12-3.206 6.095-3.726 1.983-.522 3.697-.27 4.748.78 1.05 1.05 1.302 2.765.78 4.748-.52 1.976-1.8 4.168-3.727 6.095-1.927 1.927-4.118 3.207-6.095 3.727-1.983.522-3.697.27-4.747-.78-1.05-1.05-1.302-2.765-.78-4.748.52-1.976 1.8-4.168 3.726-6.095Z"></path>
    <path stroke-width=".5" stroke="#FEB58D" d="M27.123 12.98c1.927-1.926 4.12-3.206 6.095-3.726 1.983-.522 3.697-.27 4.748.78 1.05 1.05 1.302 2.765.78 4.748-.52 1.976-1.8 4.168-3.727 6.095-1.927 1.927-4.118 3.207-6.095 3.727-1.983.522-3.697.27-4.747-.78-1.05-1.05-1.302-2.765-.78-4.748.52-1.976 1.8-4.168 3.726-6.095Z"></path>
  </g>
  <g opacity=".8" style="mix-blend-mode:multiply">
    <path fill="url(#c)" d="M27.123 12.98c1.927-1.926 4.12-3.206 6.095-3.726 1.983-.522 3.697-.27 4.748.78 1.05 1.05 1.302 2.765.78 4.748-.52 1.976-1.8 4.168-3.727 6.095-1.927 1.927-4.118 3.207-6.095 3.727-1.983.522-3.697.27-4.747-.78-1.05-1.05-1.302-2.765-.78-4.748.52-1.976 1.8-4.168 3.726-6.095Z"></path>
    <path stroke-width=".5" stroke="#FEB58D" d="M27.123 12.98c1.927-1.926 4.12-3.206 6.095-3.726 1.983-.522 3.697-.27 4.748.78 1.05 1.05 1.302 2.765.78 4.748-.52 1.976-1.8 4.168-3.727 6.095-1.927 1.927-4.118 3.207-6.095 3.727-1.983.522-3.697.27-4.747-.78-1.05-1.05-1.302-2.765-.78-4.748.52-1.976 1.8-4.168 3.726-6.095Z"></path>
  </g>
  <ellipse opacity=".5" style="mix-blend-mode:overlay" fill="#FAEAA5" transform="rotate(-135 31.071 16.929)" ry="10" rx="5.833" cy="16.929" cx="31.071"></ellipse>
  <g opacity=".8" style="mix-blend-mode:multiply">
    <path fill="url(#d)" d="M29.584 14c0 2.725-.645 5.18-1.675 6.945-1.033 1.771-2.424 2.805-3.909 2.805-1.485 0-2.875-1.034-3.909-2.805-1.03-1.765-1.674-4.22-1.674-6.945 0-2.725.645-5.18 1.674-6.945 1.034-1.771 2.424-2.805 3.91-2.805 1.484 0 2.875 1.034 3.908 2.805 1.03 1.765 1.675 4.22 1.675 6.945Z"></path>
    <path stroke-width=".5" stroke="#B992FF" d="M29.584 14c0 2.725-.645 5.18-1.675 6.945-1.033 1.771-2.424 2.805-3.909 2.805-1.485 0-2.875-1.034-3.909-2.805-1.03-1.765-1.674-4.22-1.674-6.945 0-2.725.645-5.18 1.674-6.945 1.034-1.771 2.424-2.805 3.91-2.805 1.484 0 2.875 1.034 3.908 2.805 1.03 1.765 1.675 4.22 1.675 6.945Z"></path>
  </g>
  <g opacity=".8" style="mix-blend-mode:multiply">
    <path fill="url(#e)" d="M29.584 14c0 2.725-.645 5.18-1.675 6.945-1.033 1.771-2.424 2.805-3.909 2.805-1.485 0-2.875-1.034-3.909-2.805-1.03-1.765-1.674-4.22-1.674-6.945 0-2.725.645-5.18 1.674-6.945 1.034-1.771 2.424-2.805 3.91-2.805 1.484 0 2.875 1.034 3.908 2.805 1.03 1.765 1.675 4.22 1.675 6.945Z"></path>
    <path stroke-width=".5" stroke="#B992FF" d="M29.584 14c0 2.725-.645 5.18-1.675 6.945-1.033 1.771-2.424 2.805-3.909 2.805-1.485 0-2.875-1.034-3.909-2.805-1.03-1.765-1.674-4.22-1.674-6.945 0-2.725.645-5.18 1.674-6.945 1.034-1.771 2.424-2.805 3.91-2.805 1.484 0 2.875 1.034 3.908 2.805 1.03 1.765 1.675 4.22 1.675 6.945Z"></path>
  </g>
  <g opacity=".8" style="mix-blend-mode:multiply">
    <path fill="url(#f)" d="M29.584 14c0 2.725-.645 5.18-1.675 6.945-1.033 1.771-2.424 2.805-3.909 2.805-1.485 0-2.875-1.034-3.909-2.805-1.03-1.765-1.674-4.22-1.674-6.945 0-2.725.645-5.18 1.674-6.945 1.034-1.771 2.424-2.805 3.91-2.805 1.484 0 2.875 1.034 3.908 2.805 1.03 1.765 1.675 4.22 1.675 6.945Z"></path>
    <path stroke-width=".5" stroke="#B992FF" d="M29.584 14c0 2.725-.645 5.18-1.675 6.945-1.033 1.771-2.424 2.805-3.909 2.805-1.485 0-2.875-1.034-3.909-2.805-1.03-1.765-1.674-4.22-1.674-6.945 0-2.725.645-5.18 1.674-6.945 1.034-1.771 2.424-2.805 3.91-2.805 1.484 0 2.875 1.034 3.908 2.805 1.03 1.765 1.675 4.22 1.675 6.945Z"></path>
  </g>
  <ellipse opacity=".5" style="mix-blend-mode:overlay" fill="#F2F2F2" ry="10" rx="5.833" cy="14" cx="24"></ellipse>
  <g opacity=".8" style="mix-blend-mode:multiply">
    <path fill="url(#g)" d="M18.416 34c0-2.725.645-5.18 1.675-6.945 1.033-1.771 2.424-2.805 3.909-2.805 1.485 0 2.875 1.034 3.909 2.805 1.03 1.765 1.674 4.22 1.674 6.945 0 2.725-.645 5.18-1.674 6.945-1.034 1.771-2.424 2.805-3.91 2.805-1.484 0-2.875-1.034-3.908-2.805-1.03-1.765-1.675-4.22-1.675-6.945Z"></path>
    <path stroke-width=".5" stroke="#B992FF" d="M18.416 34c0-2.725.645-5.18 1.675-6.945 1.033-1.771 2.424-2.805 3.909-2.805 1.485 0 2.875 1.034 3.909 2.805 1.03 1.765 1.674 4.22 1.674 6.945 0 2.725-.645 5.18-1.674 6.945-1.034 1.771-2.424 2.805-3.91 2.805-1.484 0-2.875-1.034-3.908-2.805-1.03-1.765-1.675-4.22-1.675-6.945Z"></path>
  </g>
  <g opacity=".8" style="mix-blend-mode:multiply">
    <path fill="url(#h)" d="M18.416 34c0-2.725.645-5.18 1.675-6.945 1.033-1.771 2.424-2.805 3.909-2.805 1.485 0 2.875 1.034 3.909 2.805 1.03 1.765 1.674 4.22 1.674 6.945 0 2.725-.645 5.18-1.674 6.945-1.034 1.771-2.424 2.805-3.91 2.805-1.484 0-2.875-1.034-3.908-2.805-1.03-1.765-1.675-4.22-1.675-6.945Z"></path>
    <path stroke-width=".5" stroke="#B992FF" d="M18.416 34c0-2.725.645-5.18 1.675-6.945 1.033-1.771 2.424-2.805 3.909-2.805 1.485 0 2.875 1.034 3.909 2.805 1.03 1.765 1.674 4.22 1.674 6.945 0 2.725-.645 5.18-1.674 6.945-1.034 1.771-2.424 2.805-3.91 2.805-1.484 0-2.875-1.034-3.908-2.805-1.03-1.765-1.675-4.22-1.675-6.945Z"></path>
  </g>
  <g opacity=".8" style="mix-blend-mode:multiply">
    <path fill="url(#i)" d="M18.416 34c0-2.725.645-5.18 1.675-6.945 1.033-1.771 2.424-2.805 3.909-2.805 1.485 0 2.875 1.034 3.909 2.805 1.03 1.765 1.674 4.22 1.674 6.945 0 2.725-.645 5.18-1.674 6.945-1.034 1.771-2.424 2.805-3.91 2.805-1.484 0-2.875-1.034-3.908-2.805-1.03-1.765-1.675-4.22-1.675-6.945Z"></path>
    <path stroke-width=".5" stroke="#B992FF" d="M18.416 34c0-2.725.645-5.18 1.675-6.945 1.033-1.771 2.424-2.805 3.909-2.805 1.485 0 2.875 1.034 3.909 2.805 1.03 1.765 1.674 4.22 1.674 6.945 0 2.725-.645 5.18-1.674 6.945-1.034 1.771-2.424 2.805-3.91 2.805-1.484 0-2.875-1.034-3.908-2.805-1.03-1.765-1.675-4.22-1.675-6.945Z"></path>
  </g>
  <ellipse opacity=".5" style="mix-blend-mode:overlay" fill="#F2F2F2" transform="rotate(-180 24 34)" ry="10" rx="5.833" cy="34" cx="24"></ellipse>
  <g opacity=".8" style="mix-blend-mode:multiply">
    <path fill="url(#j)" d="M34 29.583c-2.725 0-5.18-.644-6.945-1.674-1.771-1.033-2.805-2.424-2.805-3.909 0-1.485 1.034-2.876 2.805-3.909 1.765-1.03 4.22-1.674 6.945-1.674 2.725 0 5.18.645 6.945 1.674 1.771 1.033 2.805 2.424 2.805 3.91 0 1.484-1.034 2.875-2.805 3.908-1.765 1.03-4.22 1.674-6.945 1.674Z"></path>
    <path stroke-width=".5" stroke="#B992FF" d="M34 29.583c-2.725 0-5.18-.644-6.945-1.674-1.771-1.033-2.805-2.424-2.805-3.909 0-1.485 1.034-2.876 2.805-3.909 1.765-1.03 4.22-1.674 6.945-1.674 2.725 0 5.18.645 6.945 1.674 1.771 1.033 2.805 2.424 2.805 3.91 0 1.484-1.034 2.875-2.805 3.908-1.765 1.03-4.22 1.674-6.945 1.674Z"></path>
  </g>
  <g opacity=".8" style="mix-blend-mode:multiply">
    <path fill="url(#k)" d="M34 29.583c-2.725 0-5.18-.644-6.945-1.674-1.771-1.033-2.805-2.424-2.805-3.909 0-1.485 1.034-2.876 2.805-3.909 1.765-1.03 4.22-1.674 6.945-1.674 2.725 0 5.18.645 6.945 1.674 1.771 1.033 2.805 2.424 2.805 3.91 0 1.484-1.034 2.875-2.805 3.908-1.765 1.03-4.22 1.674-6.945 1.674Z"></path>
    <path stroke-width=".5" stroke="#B992FF" d="M34 29.583c-2.725 0-5.18-.644-6.945-1.674-1.771-1.033-2.805-2.424-2.805-3.909 0-1.485 1.034-2.876 2.805-3.909 1.765-1.03 4.22-1.674 6.945-1.674 2.725 0 5.18.645 6.945 1.674 1.771 1.033 2.805 2.424 2.805 3.91 0 1.484-1.034 2.875-2.805 3.908-1.765 1.03-4.22 1.674-6.945 1.674Z"></path>
  </g>
  <g opacity=".8" style="mix-blend-mode:multiply">
    <path fill="url(#l)" d="M34 29.583c-2.725 0-5.18-.644-6.945-1.674-1.771-1.033-2.805-2.424-2.805-3.909 0-1.485 1.034-2.876 2.805-3.909 1.765-1.03 4.22-1.674 6.945-1.674 2.725 0 5.18.645 6.945 1.674 1.771 1.033 2.805 2.424 2.805 3.91 0 1.484-1.034 2.875-2.805 3.908-1.765 1.03-4.22 1.674-6.945 1.674Z"></path>
    <path stroke-width=".5" stroke="#B992FF" d="M34 29.583c-2.725 0-5.18-.644-6.945-1.674-1.771-1.033-2.805-2.424-2.805-3.909 0-1.485 1.034-2.876 2.805-3.909 1.765-1.03 4.22-1.674 6.945-1.674 2.725 0 5.18.645 6.945 1.674 1.771 1.033 2.805 2.424 2.805 3.91 0 1.484-1.034 2.875-2.805 3.908-1.765 1.03-4.22 1.674-6.945 1.674Z"></path>
  </g>
  <ellipse opacity=".5" style="mix-blend-mode:overlay" fill="#F2F2F2" transform="rotate(90 34 24)" ry="10" rx="5.833" cy="24" cx="34"></ellipse>
  <g opacity=".8" style="mix-blend-mode:multiply">
    <path fill="url(#m)" d="M14 18.417c2.725 0 5.18.644 6.945 1.674 1.771 1.033 2.805 2.424 2.805 3.909 0 1.485-1.034 2.876-2.805 3.909-1.765 1.03-4.22 1.674-6.945 1.674-2.725 0-5.18-.645-6.945-1.674-1.771-1.033-2.805-2.424-2.805-3.91 0-1.484 1.034-2.875 2.805-3.908 1.765-1.03 4.22-1.674 6.945-1.674Z"></path>
    <path stroke-width=".5" stroke="#B992FF" d="M14 18.417c2.725 0 5.18.644 6.945 1.674 1.771 1.033 2.805 2.424 2.805 3.909 0 1.485-1.034 2.876-2.805 3.909-1.765 1.03-4.22 1.674-6.945 1.674-2.725 0-5.18-.645-6.945-1.674-1.771-1.033-2.805-2.424-2.805-3.91 0-1.484 1.034-2.875 2.805-3.908 1.765-1.03 4.22-1.674 6.945-1.674Z"></path>
  </g>
  <g opacity=".8" style="mix-blend-mode:multiply">
    <path fill="url(#n)" d="M14 18.417c2.725 0 5.18.644 6.945 1.674 1.771 1.033 2.805 2.424 2.805 3.909 0 1.485-1.034 2.876-2.805 3.909-1.765 1.03-4.22 1.674-6.945 1.674-2.725 0-5.18-.645-6.945-1.674-1.771-1.033-2.805-2.424-2.805-3.91 0-1.484 1.034-2.875 2.805-3.908 1.765-1.03 4.22-1.674 6.945-1.674Z"></path>
    <path stroke-width=".5" stroke="#B992FF" d="M14 18.417c2.725 0 5.18.644 6.945 1.674 1.771 1.033 2.805 2.424 2.805 3.909 0 1.485-1.034 2.876-2.805 3.909-1.765 1.03-4.22 1.674-6.945 1.674-2.725 0-5.18-.645-6.945-1.674-1.771-1.033-2.805-2.424-2.805-3.91 0-1.484 1.034-2.875 2.805-3.908 1.765-1.03 4.22-1.674 6.945-1.674Z"></path>
  </g>
  <g opacity=".8" style="mix-blend-mode:multiply">
    <path fill="url(#o)" d="M14 18.417c2.725 0 5.18.644 6.945 1.674 1.771 1.033 2.805 2.424 2.805 3.909 0 1.485-1.034 2.876-2.805 3.909-1.765 1.03-4.22 1.674-6.945 1.674-2.725 0-5.18-.645-6.945-1.674-1.771-1.033-2.805-2.424-2.805-3.91 0-1.484 1.034-2.875 2.805-3.908 1.765-1.03 4.22-1.674 6.945-1.674Z"></path>
    <path stroke-width=".5" stroke="#B992FF" d="M14 18.417c2.725 0 5.18.644 6.945 1.674 1.771 1.033 2.805 2.424 2.805 3.909 0 1.485-1.034 2.876-2.805 3.909-1.765 1.03-4.22 1.674-6.945 1.674-2.725 0-5.18-.645-6.945-1.674-1.771-1.033-2.805-2.424-2.805-3.91 0-1.484 1.034-2.875 2.805-3.908 1.765-1.03 4.22-1.674 6.945-1.674Z"></path>
  </g>
  <ellipse opacity=".5" style="mix-blend-mode:overlay" fill="#F2F2F2" transform="rotate(-90 14 24)" ry="10" rx="5.833" cy="24" cx="14"></ellipse>
  <g opacity=".8" style="mix-blend-mode:multiply">
    <path fill="url(#p)" d="M27.124 35.02c-1.927-1.928-3.207-4.12-3.727-6.096-.522-1.983-.27-3.697.78-4.747 1.05-1.05 2.765-1.303 4.748-.78 1.976.52 4.168 1.8 6.095 3.726 1.927 1.927 3.207 4.119 3.727 6.095.522 1.983.27 3.697-.781 4.747-1.05 1.05-2.764 1.303-4.747.781-1.977-.52-4.168-1.8-6.095-3.727Z"></path>
    <path stroke-width=".5" stroke="#B992FF" d="M27.124 35.02c-1.927-1.928-3.207-4.12-3.727-6.096-.522-1.983-.27-3.697.78-4.747 1.05-1.05 2.765-1.303 4.748-.78 1.976.52 4.168 1.8 6.095 3.726 1.927 1.927 3.207 4.119 3.727 6.095.522 1.983.27 3.697-.781 4.747-1.05 1.05-2.764 1.303-4.747.781-1.977-.52-4.168-1.8-6.095-3.727Z"></path>
  </g>
  <g opacity=".8" style="mix-blend-mode:multiply">
    <path fill="url(#q)" d="M27.124 35.02c-1.927-1.928-3.207-4.12-3.727-6.096-.522-1.983-.27-3.697.78-4.747 1.05-1.05 2.765-1.303 4.748-.78 1.976.52 4.168 1.8 6.095 3.726 1.927 1.927 3.207 4.119 3.727 6.095.522 1.983.27 3.697-.781 4.747-1.05 1.05-2.764 1.303-4.747.781-1.977-.52-4.168-1.8-6.095-3.727Z"></path>
    <path stroke-width=".5" stroke="#B992FF" d="M27.124 35.02c-1.927-1.928-3.207-4.12-3.727-6.096-.522-1.983-.27-3.697.78-4.747 1.05-1.05 2.765-1.303 4.748-.78 1.976.52 4.168 1.8 6.095 3.726 1.927 1.927 3.207 4.119 3.727 6.095.522 1.983.27 3.697-.781 4.747-1.05 1.05-2.764 1.303-4.747.781-1.977-.52-4.168-1.8-6.095-3.727Z"></path>
  </g>
  <g opacity=".8" style="mix-blend-mode:multiply">
    <path fill="url(#r)" d="M27.124 35.02c-1.927-1.928-3.207-4.12-3.727-6.096-.522-1.983-.27-3.697.78-4.747 1.05-1.05 2.765-1.303 4.748-.78 1.976.52 4.168 1.8 6.095 3.726 1.927 1.927 3.207 4.119 3.727 6.095.522 1.983.27 3.697-.781 4.747-1.05 1.05-2.764 1.303-4.747.781-1.977-.52-4.168-1.8-6.095-3.727Z"></path>
    <path stroke-width=".5" stroke="#B992FF" d="M27.124 35.02c-1.927-1.928-3.207-4.12-3.727-6.096-.522-1.983-.27-3.697.78-4.747 1.05-1.05 2.765-1.303 4.748-.78 1.976.52 4.168 1.8 6.095 3.726 1.927 1.927 3.207 4.119 3.727 6.095.522 1.983.27 3.697-.781 4.747-1.05 1.05-2.764 1.303-4.747.781-1.977-.52-4.168-1.8-6.095-3.727Z"></path>
  </g>
  <ellipse opacity=".5" style="mix-blend-mode:overlay" fill="#F2F2F2" transform="rotate(135 31.072 31.071)" ry="10" rx="5.833" cy="31.071" cx="31.072"></ellipse>
  <g opacity=".8" style="mix-blend-mode:multiply">
    <path fill="url(#s)" d="M20.876 12.98c1.927 1.928 3.207 4.12 3.727 6.096.522 1.983.27 3.697-.78 4.747-1.05 1.05-2.765 1.303-4.748.78-1.976-.52-4.168-1.8-6.095-3.726-1.927-1.927-3.207-4.119-3.727-6.095-.521-1.983-.27-3.697.781-4.747 1.05-1.05 2.764-1.303 4.747-.781 1.976.52 4.168 1.8 6.095 3.727Z"></path>
    <path stroke-width=".5" stroke="#B992FF" d="M20.876 12.98c1.927 1.928 3.207 4.12 3.727 6.096.522 1.983.27 3.697-.78 4.747-1.05 1.05-2.765 1.303-4.748.78-1.976-.52-4.168-1.8-6.095-3.726-1.927-1.927-3.207-4.119-3.727-6.095-.521-1.983-.27-3.697.781-4.747 1.05-1.05 2.764-1.303 4.747-.781 1.976.52 4.168 1.8 6.095 3.727Z"></path>
  </g>
  <g opacity=".8" style="mix-blend-mode:multiply">
    <path fill="url(#t)" d="M20.876 12.98c1.927 1.928 3.207 4.12 3.727 6.096.522 1.983.27 3.697-.78 4.747-1.05 1.05-2.765 1.303-4.748.78-1.976-.52-4.168-1.8-6.095-3.726-1.927-1.927-3.207-4.119-3.727-6.095-.521-1.983-.27-3.697.781-4.747 1.05-1.05 2.764-1.303 4.747-.781 1.976.52 4.168 1.8 6.095 3.727Z"></path>
    <path stroke-width=".5" stroke="#B992FF" d="M20.876 12.98c1.927 1.928 3.207 4.12 3.727 6.096.522 1.983.27 3.697-.78 4.747-1.05 1.05-2.765 1.303-4.748.78-1.976-.52-4.168-1.8-6.095-3.726-1.927-1.927-3.207-4.119-3.727-6.095-.521-1.983-.27-3.697.781-4.747 1.05-1.05 2.764-1.303 4.747-.781 1.976.52 4.168 1.8 6.095 3.727Z"></path>
  </g>
  <g opacity=".8" style="mix-blend-mode:multiply">
    <path fill="url(#u)" d="M20.876 12.98c1.927 1.928 3.207 4.12 3.727 6.096.522 1.983.27 3.697-.78 4.747-1.05 1.05-2.765 1.303-4.748.78-1.976-.52-4.168-1.8-6.095-3.726-1.927-1.927-3.207-4.119-3.727-6.095-.521-1.983-.27-3.697.781-4.747 1.05-1.05 2.764-1.303 4.747-.781 1.976.52 4.168 1.8 6.095 3.727Z"></path>
    <path stroke-width=".5" stroke="#B992FF" d="M20.876 12.98c1.927 1.928 3.207 4.12 3.727 6.096.522 1.983.27 3.697-.78 4.747-1.05 1.05-2.765 1.303-4.748.78-1.976-.52-4.168-1.8-6.095-3.726-1.927-1.927-3.207-4.119-3.727-6.095-.521-1.983-.27-3.697.781-4.747 1.05-1.05 2.764-1.303 4.747-.781 1.976.52 4.168 1.8 6.095 3.727Z"></path>
  </g>
  <ellipse opacity=".5" style="mix-blend-mode:overlay" fill="#F2F2F2" transform="rotate(-45 16.928 16.929)" ry="10" rx="5.833" cy="16.929" cx="16.928"></ellipse>
  <g opacity=".8" style="mix-blend-mode:multiply">
    <path fill="url(#v)" d="M12.98 27.123c1.928-1.927 4.12-3.207 6.096-3.727 1.983-.522 3.697-.27 4.747.78 1.05 1.05 1.302 2.765.78 4.748-.52 1.976-1.8 4.168-3.726 6.095-1.927 1.927-4.12 3.207-6.095 3.727-1.983.522-3.697.27-4.748-.78-1.05-1.05-1.302-2.765-.78-4.748.52-1.976 1.8-4.168 3.727-6.095Z"></path>
    <path stroke-width=".5" stroke="#B992FF" d="M12.98 27.123c1.928-1.927 4.12-3.207 6.096-3.727 1.983-.522 3.697-.27 4.747.78 1.05 1.05 1.302 2.765.78 4.748-.52 1.976-1.8 4.168-3.726 6.095-1.927 1.927-4.12 3.207-6.095 3.727-1.983.522-3.697.27-4.748-.78-1.05-1.05-1.302-2.765-.78-4.748.52-1.976 1.8-4.168 3.727-6.095Z"></path>
  </g>
  <g opacity=".8" style="mix-blend-mode:multiply">
    <path fill="url(#w)" d="M12.98 27.123c1.928-1.927 4.12-3.207 6.096-3.727 1.983-.522 3.697-.27 4.747.78 1.05 1.05 1.302 2.765.78 4.748-.52 1.976-1.8 4.168-3.726 6.095-1.927 1.927-4.12 3.207-6.095 3.727-1.983.522-3.697.27-4.748-.78-1.05-1.05-1.302-2.765-.78-4.748.52-1.976 1.8-4.168 3.727-6.095Z"></path>
    <path stroke-width=".5" stroke="#B992FF" d="M12.98 27.123c1.928-1.927 4.12-3.207 6.096-3.727 1.983-.522 3.697-.27 4.747.78 1.05 1.05 1.302 2.765.78 4.748-.52 1.976-1.8 4.168-3.726 6.095-1.927 1.927-4.12 3.207-6.095 3.727-1.983.522-3.697.27-4.748-.78-1.05-1.05-1.302-2.765-.78-4.748.52-1.976 1.8-4.168 3.727-6.095Z"></path>
  </g>
  <g opacity=".8" style="mix-blend-mode:multiply">
    <path fill="url(#x)" d="M12.98 27.123c1.928-1.927 4.12-3.207 6.096-3.727 1.983-.522 3.697-.27 4.747.78 1.05 1.05 1.302 2.765.78 4.748-.52 1.976-1.8 4.168-3.726 6.095-1.927 1.927-4.12 3.207-6.095 3.727-1.983.522-3.697.27-4.748-.78-1.05-1.05-1.302-2.765-.78-4.748.52-1.976 1.8-4.168 3.727-6.095Z"></path>
    <path stroke-width=".5" stroke="#B992FF" d="M12.98 27.123c1.928-1.927 4.12-3.207 6.096-3.727 1.983-.522 3.697-.27 4.747.78 1.05 1.05 1.302 2.765.78 4.748-.52 1.976-1.8 4.168-3.726 6.095-1.927 1.927-4.12 3.207-6.095 3.727-1.983.522-3.697.27-4.748-.78-1.05-1.05-1.302-2.765-.78-4.748.52-1.976 1.8-4.168 3.727-6.095Z"></path>
  </g>
  <ellipse opacity=".5" style="mix-blend-mode:overlay" fill="#F2F2F2" transform="rotate(-135 16.929 31.071)" ry="10" rx="5.833" cy="31.071" cx="16.929"></ellipse>
  <defs>
    <linearGradient gradientUnits="userSpaceOnUse" y2="24" x2="24" y1="9.858" x1="38.142" id="a">
      <stop stop-color="#FEB58D"></stop>
      <stop stop-color="#FFE782" offset="1"></stop>
    </linearGradient>
    <linearGradient gradientUnits="userSpaceOnUse" y2="24" x2="24" y1="9.858" x1="38.142" id="b">
      <stop stop-color="#FEB58D"></stop>
      <stop stop-color="#FFE782" offset="1"></stop>
    </linearGradient>
    <linearGradient gradientUnits="userSpaceOnUse" y2="24" x2="24" y1="9.858" x1="38.142" id="c">
      <stop stop-color="#FEB58D"></stop>
      <stop stop-color="#FFE782" offset="1"></stop>
    </linearGradient>
    <linearGradient gradientUnits="userSpaceOnUse" y2="4" x2="24.019" y1="27.876" x1="24.021" id="d">
      <stop stop-color="#8968FF"></stop>
      <stop stop-color="#E8BBFF" offset=".816"></stop>
    </linearGradient>
    <linearGradient gradientUnits="userSpaceOnUse" y2="4" x2="24.019" y1="27.876" x1="24.021" id="e">
      <stop stop-color="#8968FF"></stop>
      <stop stop-color="#E8BBFF" offset=".816"></stop>
    </linearGradient>
    <linearGradient gradientUnits="userSpaceOnUse" y2="4" x2="24.019" y1="27.876" x1="24.021" id="f">
      <stop stop-color="#8968FF"></stop>
      <stop stop-color="#E8BBFF" offset=".816"></stop>
    </linearGradient>
    <linearGradient gradientUnits="userSpaceOnUse" y2="44" x2="23.981" y1="20.124" x1="23.979" id="g">
      <stop stop-color="#8968FF"></stop>
      <stop stop-color="#E8BBFF" offset=".816"></stop>
    </linearGradient>
    <linearGradient gradientUnits="userSpaceOnUse" y2="44" x2="23.981" y1="20.124" x1="23.979" id="h">
      <stop stop-color="#8968FF"></stop>
      <stop stop-color="#E8BBFF" offset=".816"></stop>
    </linearGradient>
    <linearGradient gradientUnits="userSpaceOnUse" y2="44" x2="23.981" y1="20.124" x1="23.979" id="i">
      <stop stop-color="#8968FF"></stop>
      <stop stop-color="#E8BBFF" offset=".816"></stop>
    </linearGradient>
    <linearGradient gradientUnits="userSpaceOnUse" y2="24.019" x2="44" y1="24.021" x1="20.124" id="j">
      <stop stop-color="#8968FF"></stop>
      <stop stop-color="#E8BBFF" offset=".816"></stop>
    </linearGradient>
    <linearGradient gradientUnits="userSpaceOnUse" y2="24.019" x2="44" y1="24.021" x1="20.124" id="k">
      <stop stop-color="#8968FF"></stop>
      <stop stop-color="#E8BBFF" offset=".816"></stop>
    </linearGradient>
    <linearGradient gradientUnits="userSpaceOnUse" y2="24.019" x2="44" y1="24.021" x1="20.124" id="l">
      <stop stop-color="#8968FF"></stop>
      <stop stop-color="#E8BBFF" offset=".816"></stop>
    </linearGradient>
    <linearGradient gradientUnits="userSpaceOnUse" y2="23.981" x2="4" y1="23.979" x1="27.876" id="m">
      <stop stop-color="#8968FF"></stop>
      <stop stop-color="#E8BBFF" offset=".816"></stop>
    </linearGradient>
    <linearGradient gradientUnits="userSpaceOnUse" y2="23.981" x2="4" y1="23.979" x1="27.876" id="n">
      <stop stop-color="#8968FF"></stop>
      <stop stop-color="#E8BBFF" offset=".816"></stop>
    </linearGradient>
    <linearGradient gradientUnits="userSpaceOnUse" y2="23.981" x2="4" y1="23.979" x1="27.876" id="o">
      <stop stop-color="#8968FF"></stop>
      <stop stop-color="#E8BBFF" offset=".816"></stop>
    </linearGradient>
    <linearGradient gradientUnits="userSpaceOnUse" y2="38.156" x2="38.129" y1="21.274" x1="21.245" id="p">
      <stop stop-color="#8968FF"></stop>
      <stop stop-color="#E8BBFF" offset=".816"></stop>
    </linearGradient>
    <linearGradient gradientUnits="userSpaceOnUse" y2="38.156" x2="38.129" y1="21.274" x1="21.245" id="q">
      <stop stop-color="#8968FF"></stop>
      <stop stop-color="#E8BBFF" offset=".816"></stop>
    </linearGradient>
    <linearGradient gradientUnits="userSpaceOnUse" y2="38.156" x2="38.129" y1="21.274" x1="21.245" id="r">
      <stop stop-color="#8968FF"></stop>
      <stop stop-color="#E8BBFF" offset=".816"></stop>
    </linearGradient>
    <linearGradient gradientUnits="userSpaceOnUse" y2="9.844" x2="9.871" y1="26.726" x1="26.755" id="s">
      <stop stop-color="#8968FF"></stop>
      <stop stop-color="#E8BBFF" offset=".816"></stop>
    </linearGradient>
    <linearGradient gradientUnits="userSpaceOnUse" y2="9.844" x2="9.871" y1="26.726" x1="26.755" id="t">
      <stop stop-color="#8968FF"></stop>
      <stop stop-color="#E8BBFF" offset=".816"></stop>
    </linearGradient>
    <linearGradient gradientUnits="userSpaceOnUse" y2="9.844" x2="9.871" y1="26.726" x1="26.755" id="u">
      <stop stop-color="#8968FF"></stop>
      <stop stop-color="#E8BBFF" offset=".816"></stop>
    </linearGradient>
    <linearGradient gradientUnits="userSpaceOnUse" y2="38.129" x2="9.844" y1="21.245" x1="26.726" id="v">
      <stop stop-color="#8968FF"></stop>
      <stop stop-color="#E8BBFF" offset=".816"></stop>
    </linearGradient>
    <linearGradient gradientUnits="userSpaceOnUse" y2="38.129" x2="9.844" y1="21.245" x1="26.726" id="w">
      <stop stop-color="#8968FF"></stop>
      <stop stop-color="#E8BBFF" offset=".816"></stop>
    </linearGradient>
    <linearGradient gradientUnits="userSpaceOnUse" y2="38.129" x2="9.844" y1="21.245" x1="26.726" id="x">
      <stop stop-color="#8968FF"></stop>
      <stop stop-color="#E8BBFF" offset=".816"></stop>
    </linearGradient>
  </defs>
</svg>
