<svg xmlns="http://www.w3.org/2000/svg" fill="none" viewBox="0 0 48 48" height="48" width="48">
<g opacity="0.8" style="mix-blend-mode:multiply">
<circle fill="url(#paint0_linear_1447_3745)" transform="rotate(90 24 16.5)" r="12.25" cy="16.5" cx="24"></circle>
<circle stroke-width="0.5" stroke="#FEB58D" transform="rotate(90 24 16.5)" r="12.25" cy="16.5" cx="24"></circle>
</g>
<g opacity="0.8" style="mix-blend-mode:multiply">
<circle fill="url(#paint1_linear_1447_3745)" transform="rotate(90 24 16.5)" r="12.25" cy="16.5" cx="24"></circle>
<circle stroke-width="0.5" stroke="#FEB58D" transform="rotate(90 24 16.5)" r="12.25" cy="16.5" cx="24"></circle>
</g>
<g opacity="0.8" style="mix-blend-mode:multiply">
<circle fill="url(#paint2_linear_1447_3745)" transform="rotate(90 24 16.5)" r="12.25" cy="16.5" cx="24"></circle>
<circle stroke-width="0.5" stroke="#FEB58D" transform="rotate(90 24 16.5)" r="12.25" cy="16.5" cx="24"></circle>
</g>
<g opacity="0.5" style="mix-blend-mode:overlay">
<circle fill="#FAEAA5" transform="rotate(90 24 16.5)" r="12.25" cy="16.5" cx="24"></circle>
<circle stroke-width="0.5" stroke="#FEB58D" transform="rotate(90 24 16.5)" r="12.25" cy="16.5" cx="24"></circle>
</g>
<g opacity="0.8" style="mix-blend-mode:multiply">
<mask fill="white" id="path-5-inside-1_1447_3745">
<path d="M4 24C4 35.0457 12.9543 44 24 44C35.0457 44 44 35.0457 44 24L4 24Z" clip-rule="evenodd" fill-rule="evenodd"></path>
</mask>
<path fill="url(#paint3_linear_1447_3745)" d="M4 24C4 35.0457 12.9543 44 24 44C35.0457 44 44 35.0457 44 24L4 24Z" clip-rule="evenodd" fill-rule="evenodd"></path>
<path mask="url(#path-5-inside-1_1447_3745)" fill="#B992FF" d="M4 24L4 23.5L3.5 23.5L3.5 24L4 24ZM44 24L44.5 24L44.5 23.5L44 23.5L44 24ZM24 43.5C13.2304 43.5 4.5 34.7696 4.5 24L3.5 24C3.5 35.3218 12.6782 44.5 24 44.5L24 43.5ZM43.5 24C43.5 34.7696 34.7696 43.5 24 43.5L24 44.5C35.3218 44.5 44.5 35.3218 44.5 24L43.5 24ZM44 23.5L4 23.5L4 24.5L44 24.5L44 23.5Z"></path>
</g>
<g opacity="0.8" style="mix-blend-mode:multiply">
<mask fill="white" id="path-7-inside-2_1447_3745">
<path d="M4 24C4 35.0457 12.9543 44 24 44C35.0457 44 44 35.0457 44 24L4 24Z" clip-rule="evenodd" fill-rule="evenodd"></path>
</mask>
<path fill="url(#paint4_linear_1447_3745)" d="M4 24C4 35.0457 12.9543 44 24 44C35.0457 44 44 35.0457 44 24L4 24Z" clip-rule="evenodd" fill-rule="evenodd"></path>
<path mask="url(#path-7-inside-2_1447_3745)" fill="#B992FF" d="M4 24L4 23.5L3.5 23.5L3.5 24L4 24ZM44 24L44.5 24L44.5 23.5L44 23.5L44 24ZM24 43.5C13.2304 43.5 4.5 34.7696 4.5 24L3.5 24C3.5 35.3218 12.6782 44.5 24 44.5L24 43.5ZM43.5 24C43.5 34.7696 34.7696 43.5 24 43.5L24 44.5C35.3218 44.5 44.5 35.3218 44.5 24L43.5 24ZM44 23.5L4 23.5L4 24.5L44 24.5L44 23.5Z"></path>
</g>
<g opacity="0.8" style="mix-blend-mode:multiply">
<mask fill="white" id="path-9-inside-3_1447_3745">
<path d="M4 24C4 35.0457 12.9543 44 24 44C35.0457 44 44 35.0457 44 24L4 24Z" clip-rule="evenodd" fill-rule="evenodd"></path>
</mask>
<path fill="url(#paint5_linear_1447_3745)" d="M4 24C4 35.0457 12.9543 44 24 44C35.0457 44 44 35.0457 44 24L4 24Z" clip-rule="evenodd" fill-rule="evenodd"></path>
<path mask="url(#path-9-inside-3_1447_3745)" fill="#B992FF" d="M4 24L4 23.5L3.5 23.5L3.5 24L4 24ZM44 24L44.5 24L44.5 23.5L44 23.5L44 24ZM24 43.5C13.2304 43.5 4.5 34.7696 4.5 24L3.5 24C3.5 35.3218 12.6782 44.5 24 44.5L24 43.5ZM43.5 24C43.5 34.7696 34.7696 43.5 24 43.5L24 44.5C35.3218 44.5 44.5 35.3218 44.5 24L43.5 24ZM44 23.5L4 23.5L4 24.5L44 24.5L44 23.5Z"></path>
</g>
<g opacity="0.5" style="mix-blend-mode:overlay">
<mask fill="white" id="path-11-inside-4_1447_3745">
<path d="M4 24C4 35.0457 12.9543 44 24 44C35.0457 44 44 35.0457 44 24L4 24Z" clip-rule="evenodd" fill-rule="evenodd"></path>
</mask>
<path fill="#F2F2F2" d="M4 24C4 35.0457 12.9543 44 24 44C35.0457 44 44 35.0457 44 24L4 24Z" clip-rule="evenodd" fill-rule="evenodd"></path>
<path mask="url(#path-11-inside-4_1447_3745)" fill="#B992FF" d="M4 24L4 23.5L3.5 23.5L3.5 24L4 24ZM44 24L44.5 24L44.5 23.5L44 23.5L44 24ZM24 43.5C13.2304 43.5 4.5 34.7696 4.5 24L3.5 24C3.5 35.3218 12.6782 44.5 24 44.5L24 43.5ZM43.5 24C43.5 34.7696 34.7696 43.5 24 43.5L24 44.5C35.3218 44.5 44.5 35.3218 44.5 24L43.5 24ZM44 23.5L4 23.5L4 24.5L44 24.5L44 23.5Z"></path>
</g>
<g opacity="0.8" style="mix-blend-mode:multiply">
<mask fill="white" id="path-13-inside-5_1447_3745">
<path d="M6.5 17.75C6.5 27.415 14.335 35.25 24 35.25C33.665 35.25 41.5 27.415 41.5 17.75L6.5 17.75Z" clip-rule="evenodd" fill-rule="evenodd"></path>
</mask>
<path fill="url(#paint6_linear_1447_3745)" d="M6.5 17.75C6.5 27.415 14.335 35.25 24 35.25C33.665 35.25 41.5 27.415 41.5 17.75L6.5 17.75Z" clip-rule="evenodd" fill-rule="evenodd"></path>
<path mask="url(#path-13-inside-5_1447_3745)" fill="#B992FF" d="M6.5 17.75L6.5 17.25L6 17.25L6 17.75L6.5 17.75ZM41.5 17.75L42 17.75L42 17.25L41.5 17.25L41.5 17.75ZM24 34.75C14.6112 34.75 7 27.1388 7 17.75L6 17.75C6 27.6911 14.0589 35.75 24 35.75L24 34.75ZM41 17.75C41 27.1388 33.3888 34.75 24 34.75L24 35.75C33.9411 35.75 42 27.6911 42 17.75L41 17.75ZM41.5 17.25L6.5 17.25L6.5 18.25L41.5 18.25L41.5 17.25Z"></path>
</g>
<g opacity="0.8" style="mix-blend-mode:multiply">
<mask fill="white" id="path-15-inside-6_1447_3745">
<path d="M6.5 17.75C6.5 27.415 14.335 35.25 24 35.25C33.665 35.25 41.5 27.415 41.5 17.75L6.5 17.75Z" clip-rule="evenodd" fill-rule="evenodd"></path>
</mask>
<path fill="url(#paint7_linear_1447_3745)" d="M6.5 17.75C6.5 27.415 14.335 35.25 24 35.25C33.665 35.25 41.5 27.415 41.5 17.75L6.5 17.75Z" clip-rule="evenodd" fill-rule="evenodd"></path>
<path mask="url(#path-15-inside-6_1447_3745)" fill="#B992FF" d="M6.5 17.75L6.5 17.25L6 17.25L6 17.75L6.5 17.75ZM41.5 17.75L42 17.75L42 17.25L41.5 17.25L41.5 17.75ZM24 34.75C14.6112 34.75 7 27.1388 7 17.75L6 17.75C6 27.6911 14.0589 35.75 24 35.75L24 34.75ZM41 17.75C41 27.1388 33.3888 34.75 24 34.75L24 35.75C33.9411 35.75 42 27.6911 42 17.75L41 17.75ZM41.5 17.25L6.5 17.25L6.5 18.25L41.5 18.25L41.5 17.25Z"></path>
</g>
<g opacity="0.8" style="mix-blend-mode:multiply">
<mask fill="white" id="path-17-inside-7_1447_3745">
<path d="M6.5 17.75C6.5 27.415 14.335 35.25 24 35.25C33.665 35.25 41.5 27.415 41.5 17.75L6.5 17.75Z" clip-rule="evenodd" fill-rule="evenodd"></path>
</mask>
<path fill="url(#paint8_linear_1447_3745)" d="M6.5 17.75C6.5 27.415 14.335 35.25 24 35.25C33.665 35.25 41.5 27.415 41.5 17.75L6.5 17.75Z" clip-rule="evenodd" fill-rule="evenodd"></path>
<path mask="url(#path-17-inside-7_1447_3745)" fill="#B992FF" d="M6.5 17.75L6.5 17.25L6 17.25L6 17.75L6.5 17.75ZM41.5 17.75L42 17.75L42 17.25L41.5 17.25L41.5 17.75ZM24 34.75C14.6112 34.75 7 27.1388 7 17.75L6 17.75C6 27.6911 14.0589 35.75 24 35.75L24 34.75ZM41 17.75C41 27.1388 33.3888 34.75 24 34.75L24 35.75C33.9411 35.75 42 27.6911 42 17.75L41 17.75ZM41.5 17.25L6.5 17.25L6.5 18.25L41.5 18.25L41.5 17.25Z"></path>
</g>
<g opacity="0.5" style="mix-blend-mode:overlay">
<mask fill="white" id="path-19-inside-8_1447_3745">
<path d="M6.5 17.75C6.5 27.415 14.335 35.25 24 35.25C33.665 35.25 41.5 27.415 41.5 17.75L6.5 17.75Z" clip-rule="evenodd" fill-rule="evenodd"></path>
</mask>
<path fill="#F2F2F2" d="M6.5 17.75C6.5 27.415 14.335 35.25 24 35.25C33.665 35.25 41.5 27.415 41.5 17.75L6.5 17.75Z" clip-rule="evenodd" fill-rule="evenodd"></path>
<path mask="url(#path-19-inside-8_1447_3745)" fill="#B992FF" d="M6.5 17.75L6.5 17.25L6 17.25L6 17.75L6.5 17.75ZM41.5 17.75L42 17.75L42 17.25L41.5 17.25L41.5 17.75ZM24 34.75C14.6112 34.75 7 27.1388 7 17.75L6 17.75C6 27.6911 14.0589 35.75 24 35.75L24 34.75ZM41 17.75C41 27.1388 33.3888 34.75 24 34.75L24 35.75C33.9411 35.75 42 27.6911 42 17.75L41 17.75ZM41.5 17.25L6.5 17.25L6.5 18.25L41.5 18.25L41.5 17.25Z"></path>
</g>
<defs>
<linearGradient gradientUnits="userSpaceOnUse" y2="4" x2="24" y1="29" x1="24" id="paint0_linear_1447_3745">
<stop stop-color="#FEB58D"></stop>
<stop stop-color="#FFE782" offset="1"></stop>
</linearGradient>
<linearGradient gradientUnits="userSpaceOnUse" y2="4" x2="24" y1="29" x1="24" id="paint1_linear_1447_3745">
<stop stop-color="#FEB58D"></stop>
<stop stop-color="#FFE782" offset="1"></stop>
</linearGradient>
<linearGradient gradientUnits="userSpaceOnUse" y2="4" x2="24" y1="29" x1="24" id="paint2_linear_1447_3745">
<stop stop-color="#FEB58D"></stop>
<stop stop-color="#FFE782" offset="1"></stop>
</linearGradient>
<linearGradient gradientUnits="userSpaceOnUse" y2="24" x2="24.0704" y1="47.8757" x1="24.0709" id="paint3_linear_1447_3745">
<stop stop-color="#8968FF"></stop>
<stop stop-color="#E8BBFF" offset="0.815666"></stop>
</linearGradient>
<linearGradient gradientUnits="userSpaceOnUse" y2="24" x2="24.0704" y1="47.8757" x1="24.0709" id="paint4_linear_1447_3745">
<stop stop-color="#8968FF"></stop>
<stop stop-color="#E8BBFF" offset="0.815666"></stop>
</linearGradient>
<linearGradient gradientUnits="userSpaceOnUse" y2="24" x2="24.0704" y1="47.8757" x1="24.0709" id="paint5_linear_1447_3745">
<stop stop-color="#8968FF"></stop>
<stop stop-color="#E8BBFF" offset="0.815666"></stop>
</linearGradient>
<linearGradient gradientUnits="userSpaceOnUse" y2="17.75" x2="24.0616" y1="38.6412" x1="24.062" id="paint6_linear_1447_3745">
<stop stop-color="#8968FF"></stop>
<stop stop-color="#E8BBFF" offset="0.815666"></stop>
</linearGradient>
<linearGradient gradientUnits="userSpaceOnUse" y2="17.75" x2="24.0616" y1="38.6412" x1="24.062" id="paint7_linear_1447_3745">
<stop stop-color="#8968FF"></stop>
<stop stop-color="#E8BBFF" offset="0.815666"></stop>
</linearGradient>
<linearGradient gradientUnits="userSpaceOnUse" y2="17.75" x2="24.0616" y1="38.6412" x1="24.062" id="paint8_linear_1447_3745">
<stop stop-color="#8968FF"></stop>
<stop stop-color="#E8BBFF" offset="0.815666"></stop>
</linearGradient>
</defs>
</svg>
