<svg xmlns="http://www.w3.org/2000/svg" fill="none" viewBox="0 0 48 48" height="48" width="48">
<g opacity="0.8" style="mix-blend-mode:multiply">
<rect fill="url(#paint0_linear_1447_3558)" rx="2.025" height="13.05" width="14.9258" y="28.725" x="6.225"></rect>
<rect stroke-width="0.45" stroke="#FEB58D" rx="2.025" height="13.05" width="14.9258" y="28.725" x="6.225"></rect>
</g>
<g opacity="0.8" style="mix-blend-mode:multiply">
<rect fill="url(#paint1_linear_1447_3558)" rx="2.025" height="13.05" width="14.9258" y="28.725" x="6.225"></rect>
<rect stroke-width="0.45" stroke="#FEB58D" rx="2.025" height="13.05" width="14.9258" y="28.725" x="6.225"></rect>
</g>
<g opacity="0.8" style="mix-blend-mode:multiply">
<rect fill="url(#paint2_linear_1447_3558)" rx="2.025" height="13.05" width="14.9258" y="28.725" x="6.225"></rect>
<rect stroke-width="0.45" stroke="#FEB58D" rx="2.025" height="13.05" width="14.9258" y="28.725" x="6.225"></rect>
</g>
<g opacity="0.5" style="mix-blend-mode:overlay">
<rect fill="#FAEAA5" rx="2.25" height="13.5" width="15.3758" y="28.5" x="6"></rect>
</g>
<g opacity="0.8" style="mix-blend-mode:multiply">
<rect fill="url(#paint3_linear_1447_3558)" rx="2.025" height="22.05" width="14.9258" y="19.725" x="16.8695"></rect>
<rect stroke-width="0.45" stroke="#B992FF" rx="2.025" height="22.05" width="14.9258" y="19.725" x="16.8695"></rect>
</g>
<g opacity="0.8" style="mix-blend-mode:multiply">
<rect fill="url(#paint4_linear_1447_3558)" rx="2.025" height="22.05" width="14.9258" y="19.725" x="16.8695"></rect>
<rect stroke-width="0.45" stroke="#B992FF" rx="2.025" height="22.05" width="14.9258" y="19.725" x="16.8695"></rect>
</g>
<g opacity="0.8" style="mix-blend-mode:multiply">
<rect fill="url(#paint5_linear_1447_3558)" rx="2.025" height="22.05" width="14.9258" y="19.725" x="16.8695"></rect>
<rect stroke-width="0.45" stroke="#B992FF" rx="2.025" height="22.05" width="14.9258" y="19.725" x="16.8695"></rect>
</g>
<g opacity="0.5" style="mix-blend-mode:overlay">
<rect fill="#F2F2F2" rx="2.025" height="22.05" width="14.9258" y="19.725" x="16.8695"></rect>
<rect stroke-width="0.45" stroke="#B992FF" rx="2.025" height="22.05" width="14.9258" y="19.725" x="16.8695"></rect>
</g>
<g opacity="0.8" style="mix-blend-mode:multiply">
<rect fill="url(#paint6_linear_1447_3558)" rx="2.025" height="35.55" width="14.9258" y="6.225" x="26.849"></rect>
<rect stroke-width="0.45" stroke="#B992FF" rx="2.025" height="35.55" width="14.9258" y="6.225" x="26.849"></rect>
</g>
<g opacity="0.8" style="mix-blend-mode:multiply">
<rect fill="url(#paint7_linear_1447_3558)" rx="2.025" height="35.55" width="14.9258" y="6.225" x="26.849"></rect>
<rect stroke-width="0.45" stroke="#B992FF" rx="2.025" height="35.55" width="14.9258" y="6.225" x="26.849"></rect>
</g>
<g opacity="0.8" style="mix-blend-mode:multiply">
<rect fill="url(#paint8_linear_1447_3558)" rx="2.025" height="35.55" width="14.9258" y="6.225" x="26.849"></rect>
<rect stroke-width="0.45" stroke="#B992FF" rx="2.025" height="35.55" width="14.9258" y="6.225" x="26.849"></rect>
</g>
<g opacity="0.5" style="mix-blend-mode:overlay">
<rect fill="#F2F2F2" rx="2.025" height="35.55" width="14.9258" y="6.225" x="26.849"></rect>
<rect stroke-width="0.45" stroke="#B992FF" rx="2.025" height="35.55" width="14.9258" y="6.225" x="26.849"></rect>
</g>
<defs>
<linearGradient gradientUnits="userSpaceOnUse" y2="28.5" x2="13.6879" y1="42" x1="13.6879" id="paint0_linear_1447_3558">
<stop stop-color="#FEB58D"></stop>
<stop stop-color="#FFE782" offset="1"></stop>
</linearGradient>
<linearGradient gradientUnits="userSpaceOnUse" y2="28.5" x2="13.6879" y1="42" x1="13.6879" id="paint1_linear_1447_3558">
<stop stop-color="#FEB58D"></stop>
<stop stop-color="#FFE782" offset="1"></stop>
</linearGradient>
<linearGradient gradientUnits="userSpaceOnUse" y2="28.5" x2="13.6879" y1="42" x1="13.6879" id="paint2_linear_1447_3558">
<stop stop-color="#FEB58D"></stop>
<stop stop-color="#FFE782" offset="1"></stop>
</linearGradient>
<linearGradient gradientUnits="userSpaceOnUse" y2="19.5" x2="24.3582" y1="46.3601" x1="24.3597" id="paint3_linear_1447_3558">
<stop stop-color="#8968FF"></stop>
<stop stop-color="#E8BBFF" offset="0.815666"></stop>
</linearGradient>
<linearGradient gradientUnits="userSpaceOnUse" y2="19.5" x2="24.3582" y1="46.3601" x1="24.3597" id="paint4_linear_1447_3558">
<stop stop-color="#8968FF"></stop>
<stop stop-color="#E8BBFF" offset="0.815666"></stop>
</linearGradient>
<linearGradient gradientUnits="userSpaceOnUse" y2="19.5" x2="24.3582" y1="46.3601" x1="24.3597" id="paint5_linear_1447_3558">
<stop stop-color="#8968FF"></stop>
<stop stop-color="#E8BBFF" offset="0.815666"></stop>
</linearGradient>
<linearGradient gradientUnits="userSpaceOnUse" y2="6" x2="34.3353" y1="48.9762" x1="34.3392" id="paint6_linear_1447_3558">
<stop stop-color="#8968FF"></stop>
<stop stop-color="#E8BBFF" offset="0.815666"></stop>
</linearGradient>
<linearGradient gradientUnits="userSpaceOnUse" y2="6" x2="34.3353" y1="48.9762" x1="34.3392" id="paint7_linear_1447_3558">
<stop stop-color="#8968FF"></stop>
<stop stop-color="#E8BBFF" offset="0.815666"></stop>
</linearGradient>
<linearGradient gradientUnits="userSpaceOnUse" y2="6" x2="34.3353" y1="48.9762" x1="34.3392" id="paint8_linear_1447_3558">
<stop stop-color="#8968FF"></stop>
<stop stop-color="#E8BBFF" offset="0.815666"></stop>
</linearGradient>
</defs>
</svg>
