<svg xmlns="http://www.w3.org/2000/svg" fill="none" viewBox="0 0 20 20" height="20" width="20">
<path fill="#C9C8DE" d="M5 16V9H15.5V16H5Z"></path>
<path fill="#2824B6" d="M9.44444 10.7778H11V13.8889H9.44444V10.7778Z"></path>
<path fill="#2824B6" d="M5.55555 7.66666H7.11111C7.11111 5.94844 8.504 4.55555 10.2222 4.55555C11.9404 4.55555 13.3333 5.94844 13.3333 7.66666H5.55555C4.7 7.66666 4 8.36668 4 9.22223V15.4444C4 16.3 4.7 17 5.55555 17H14.8889C15.7444 17 16.4444 16.3 16.4444 15.4444V9.22223C16.4444 8.36668 15.7444 7.66668 14.8889 7.66668C14.8889 5.08935 12.7995 3 10.2222 3C7.64489 3 5.55555 5.08934 5.55555 7.66666ZM14.8889 15.4444H5.55555V9.22223H14.8889V15.4444Z"></path>
</svg>
