<svg xmlns="http://www.w3.org/2000/svg" fill="none" viewBox="0 0 20 20" height="20" width="20">
<path fill-opacity="0.15" fill="#2824B6" d="M9.71469 2.87799C9.8045 2.60161 10.1955 2.60161 10.2853 2.87799L11.7289 7.32037C11.7691 7.44397 11.8843 7.52765 12.0142 7.52765L16.6853 7.52783C16.9759 7.52784 17.0967 7.8997 16.8616 8.07053L13.0827 10.8162C12.9776 10.8926 12.9336 11.028 12.9738 11.1516L14.417 15.5941C14.5068 15.8705 14.1905 16.1003 13.9554 15.9295L10.1763 13.1841C10.0712 13.1077 9.92882 13.1077 9.82367 13.1841L6.04461 15.9295C5.8095 16.1003 5.49317 15.8705 5.58297 15.5941L7.02623 11.1516C7.06639 11.028 7.02239 10.8926 6.91725 10.8162L3.1384 8.07053C2.9033 7.8997 3.02413 7.52784 3.31473 7.52783L7.98578 7.52765C8.11574 7.52765 8.23092 7.44397 8.27108 7.32037L9.71469 2.87799Z"></path>
<path stroke-width="1.5" stroke="#2824B6" d="M9.71469 2.87799C9.8045 2.60161 10.1955 2.60161 10.2853 2.87799L11.7289 7.32037C11.7691 7.44397 11.8843 7.52765 12.0142 7.52765L16.6853 7.52783C16.9759 7.52784 17.0967 7.89971 16.8616 8.07053L13.0827 10.8162C12.9776 10.8926 12.9336 11.028 12.9738 11.1516L14.417 15.5941C14.5068 15.8705 14.1905 16.1003 13.9554 15.9295L10.1763 13.1841C10.0712 13.1077 9.92882 13.1077 9.82367 13.1841L6.04461 15.9295C5.8095 16.1003 5.49317 15.8705 5.58297 15.5941L7.02623 11.1516C7.06639 11.028 7.02239 10.8926 6.91725 10.8162L3.1384 8.07053C2.9033 7.89971 3.02413 7.52784 3.31473 7.52783L7.98578 7.52765C8.11574 7.52765 8.23092 7.44397 8.27108 7.32037L9.71469 2.87799Z"></path>
</svg>
