<svg xmlns="http://www.w3.org/2000/svg" viewBox="0 0 1000 1000" fill="#19D05F"><path d="M749.728 72.253C824.2 116.462 883.54 175.803 927.75 250.276c44.803 77.143 67.253 160.418 67.253 249.726 0 89.308-22.45 172.583-67.253 249.726C883.541 824.2 824.2 883.54 749.728 927.75c-77.143 44.803-160.418 67.253-249.726 67.253-89.308 0-172.583-22.45-249.726-67.253-74.473-44.209-133.814-103.55-178.023-178.022C27.451 672.585 5 589.31 5 500.002c0-89.308 22.45-172.583 67.253-249.726 44.209-74.473 103.55-133.814 178.023-178.023C327.419 27.45 410.793 5 500.496 5c89.011 0 172.089 22.45 249.232 67.253zM300.715 509.397l201.76 111.759 195.824-109.78-195.825-87.034zm6.923-43.516 193.847-82.089 187.913 84.067-187.913-295.716zm.99 90L503.462 827.86 698.3 555.88 501.485 667.64z"></path></svg>