<svg xmlns="http://www.w3.org/2000/svg" viewBox="0 0 1000 1000" fill="#FF0055"><path d="M5 500.002v.395-.395c.099-89.506 22.55-172.682 67.253-249.726 44.209-74.473 103.55-133.814 178.023-178.023C327.419 27.45 410.694 5 500.002 5c89.308 0 172.583 22.45 249.726 67.253C824.2 116.462 883.54 175.803 927.75 250.276c44.803 77.143 67.253 160.418 67.253 249.726 0 89.308-22.45 172.583-67.253 249.726C883.541 824.2 824.2 883.54 749.728 927.75c-77.143 44.803-160.418 67.253-249.726 67.253-89.308 0-172.583-22.45-249.726-67.253-74.473-44.209-133.814-103.55-178.023-178.022C27.55 672.684 5.099 589.508 5 500.002zm92.967 7.417c2.967 224.506 180 403.518 406.485 403.518 233.408 0 404.507-190.88 404.507-403.518-1.978-219.56-179.012-402.529-405.496-402.529-223.517 0-405.496 180.001-405.496 402.53zm30.66-15.824c0 10.88 1.978 15.824 15.824 10.88.989 0 5.934-4.946 8.901-7.913 18.791-29.67 35.605-58.352 52.418-89.011 2.967-7.912 10.88-9.89 16.813-9.89h60.33c8.901 0 13.846 1.978 16.813 10.879 7.912 30.66 18.792 58.352 27.693 88.022 4.945 13.846 4.945 13.846 18.79 10.88 5.935 0 13.847-2.968 19.781-4.946 22.748-7.912 43.517-8.901 63.297 6.923 5.934 3.956 10.88.99 13.846-1.978l32.638-41.538c2.967-7.912 8.9-7.912 14.835-2.967 15.824 5.934 32.638 13.846 49.45 19.78 4.946 2.967 7.913 2.967 12.858 0 5.934-1.978 8.901-5.934 13.846-7.912-4.945-2.967-7.912-5.934-13.846-7.912-49.45-22.748-80.11-61.32-82.088-115.715-7.912-91.978 71.209-161.21 163.187-144.396 68.242 10.879 117.693 80.11 109.78 149.341-2.966 13.846-7.911 27.692-11.867 41.539-1.979 4.945-1.979 9.89 3.956 9.89 7.912 0 10.879.989 15.824 8.9 8.9 13.847 21.758 24.726 27.692 38.572 10.88 16.814 21.759 24.726 39.56 16.814 7.913-2.967 13.847 0 18.792 7.912 8.901 10.879 21.758 22.747 30.66 33.626 1.978 1.978 6.923 1.978 7.912 4.945 0-2.967 2.967-7.912 2.967-8.9v-14.836C870.388 292.804 705.222 135.55 495.55 135.55c-44.506 0-93.956 5.934-143.407 28.681-135.495 65.275-212.638 173.078-223.517 327.364zm1.978 52.418c3.956 18.791 5.934 38.571 11.868 58.352 0 4.945 2.967 5.934 7.912 5.934 8.901 1.978 11.868 0 16.813-8.901 10.88-35.605 22.748-69.231 35.605-104.836 0-1.978.989-5.934 2.967-13.846 2.967 7.912 5.934 10.879 5.934 13.846 7.912 27.692 18.791 55.385 26.703 86.044 2.967 1.978 5.934 4.945 7.912 9.89 0-1.978 3.957-7.912 3.957-9.89 4.945-13.846 9.89-30.66 15.824-44.505 2.967-5.934 2.967-10.88 7.912-19.78.989 4.944.989 5.933 3.956 10.879 9.89 25.714 18.791 50.44 24.725 80.11 4.945 8.9 10.88 10.879 18.792 10.879 33.626 3.956 66.264 8.901 96.923 16.813 16.813 2.967 30.66 10.88 44.506 19.78 18.79 10.88 21.758 32.638 7.912 51.43-7.912 8.9-19.78 17.801-27.693 27.692-11.868 5.934-21.758 13.846-30.66 22.747-4.944 2.967-8.9 8.901-13.845 13.846 5.934 2.967 10.879 7.912 18.791 7.912 39.56 8.901 78.132 14.835 116.704 24.726 46.483 8.9 93.956 16.813 137.473 32.637 3.956.989 11.868 0 13.846-1.978 30.66-16.813 58.352-35.605 83.077-60.33 52.418-55.385 88.022-121.649 104.836-196.814 1.978-9.89 0-13.846-7.913-21.758-8.9-10.88-19.78-19.78-27.692-32.638-10.88-16.813-24.725-24.725-46.484-14.835-5.934 0-11.868-1.978-14.835-6.923-12.857-16.813-24.725-33.626-35.604-49.45-13.847-17.803-13.847-19.78-35.605-3.957 0 2.967 0 2.967-.989 2.967-4.945 2.967-6.923 2.967-12.857-2.967-5.934-9.89-13.846-15.824-19.78-26.703-1.978-5.934-7.912-5.934-10.88-.989-12.857 16.813-26.703 30.66-40.55 44.506 0 0 0 .989-2.966 2.967 16.813-1.978 26.703-7.912 35.604-16.814 2.967-2.967 4.945-10.879 8.902-2.967 9.89 11.869 21.758 16.814 35.604 22.748 26.703 8.9 48.462 27.692 52.418 57.363 1.978 5.934 4.945 11.868 9.89 13.846 5.934 5.934 13.846 7.912 17.802 8.9 23.737 10.88 41.539 26.704 49.45 49.452 5.935 21.758 1.979 36.593-19.78 46.483-7.912 3.956-19.78 5.934-29.67 8.901-17.802 4.945-25.714 13.847-25.714 32.638v32.637c-1.978 11.868-5.934 17.803-15.824 17.803-8.902 0-16.814-5.935-16.814-17.803v-35.604c0-10.88-2.967-19.78-13.846-24.726-5.934-4.945-13.846-4.945-19.78-7.912-10.88-1.978-10.88-1.978-10.88 10.88 0 15.824-2.966 30.659 0 44.505 0 16.813-7.911 29.67-21.758 32.638-5.934 5.934-13.846 7.912-19.78 10.879-29.67 5.934-57.363 2.967-85.055.989-10.88 0-21.758-3.956-33.627-5.934-24.725-8.901-35.604-27.693-23.736-53.407 9.89-20.77 26.703-37.583 49.45-43.517 6.924-4.945 15.825-7.912 21.76-10.879 7.911-2.967 12.856-15.824 18.79-15.824 5.934 0 11.869 12.857 19.78 15.824 10.88 5.934 21.759 10.88 33.627 13.846 7.912 5.934 9.89 5.934 9.89-5.934V608.3c0-19.78-9.89-30.66-29.67-36.594-10.88-2.967-21.758-4.945-30.66-8.901-16.813-9.89-21.758-21.758-16.813-40.55v-10.879h-4.945c-5.934 1.978-13.846 7.912-16.813 4.945-16.813-4.945-30.66-8.9-44.506-15.824-9.89-5.934-10.879-2.967-18.791 1.978-22.747 30.66-46.484 60.33-69.231 90.99-13.846 16.813-8.901 16.813-29.67.988-5.935-3.956-5.935-5.934 0-13.846 7.912-11.868 20.769-25.714 29.67-36.593 2.967-2.967 5.934-7.912 0-8.901-7.912-7.912-13.846-12.858-24.725-7.912-21.759 5.934-41.54 8.9-66.264 16.813-10.88 2.967-10.88 2.967-15.825-8.901-5.934-27.693-13.846-54.396-22.747-82.089-10.88-33.626-2.967-27.692-38.572-27.692-10.879-1.978-16.813 2.967-21.758 10.88-16.813 28.68-32.637 56.373-47.473 86.043-4.945 7.913-10.879 12.858-18.79 12.858-7.913-1.978-11.869 0-19.781 0-4.945 0-5.934.989-5.934 8.9zm27.692 107.802c16.813 38.572 33.627 72.198 61.32 99.89 109.78 117.693 239.34 156.265 394.616 112.748 5.934 0 13.846-2.967 19.78-5.934v-2.967c-3.956-1.978-8.901-1.978-11.868-4.945-60.33-10.879-118.682-24.725-179.012-35.604-19.78-5.934-38.571-8.901-55.384-16.814-21.759-5.934-27.693-27.692-13.847-47.472 2.967-2.967 5.934-7.912 10.88-10.88 10.879-10.879 24.725-19.78 36.593-32.637 9.89-2.967 15.824-10.879 23.736-16.813 3.956-5.934 3.956-10.88-1.978-13.846-7.912-2.967-13.846-10.88-21.758-10.88-32.637-5.934-61.319-10.879-93.956-16.813-7.912 0-7.912.99-11.869 5.934-7.912 18.792-23.736 21.759-40.55 21.759-14.834 1.978-30.659-2.967-43.516-16.814 0-4.945 0-7.912-.989-10.879-2.967-2.967-5.934-4.945-7.912-4.945-18.791-2.967-36.593-2.967-55.385-2.967-13.846 0-13.846 0-8.9 10.88zm41.539-52.417c-4.945 8.9 0 10.879 5.934 10.879 10.88 0 11.868-1.978 7.912-10.88 0-4.945-4.945-10.879-7.912-16.813-1.978 5.934-2.967 11.869-5.934 16.814zm60.33-303.628c0-46.483 36.593-90.99 91.978-90.99 60.33 1.979 93.956 47.474 92.967 93.957 0 50.44-41.538 92.968-92.967 92.968-52.418-1.978-91.978-42.528-91.978-95.935zm5.934 340.221c-1.978 7.912 0 9.89 7.912 9.89 8.901 0 11.868-1.978 8.901-10.879-2.967-4.945-4.945-12.857-7.912-18.791-2.967 5.934-5.934 13.846-8.901 19.78zm22.747-337.254c0 32.638 29.67 60.33 63.297 60.33 35.605 0 63.297-27.692 63.297-63.297 0-32.637-27.692-60.33-63.297-60.33-33.626 0-63.297 27.693-63.297 63.297zM520.277 698.3c-5.935 8.901-2.968 16.813 7.912 19.78 16.813 1.978 32.637 2.967 47.472 5.934 18.792-2.967 35.605-2.967 52.418-5.934 15.824-2.967 18.791-10.879 7.912-24.725-1.978-.99-2.967-2.967-5.934-5.934-23.736-21.758-65.275-22.747-92.967-4.945-4.945 4.945-10.88 9.89-16.814 15.824zm2.967-427.254c-47.473 63.297-16.814 154.286 60.33 171.1 8.9 2.966 13.846 0 19.78-5.935 18.79-21.758 40.55-43.516 58.352-63.297 7.912-7.912 12.857-7.912 15.824 0 2.967 5.934 7.912 10.88 11.868 18.792 4.945 3.956 7.912.989 9.89-1.978 2.967-2.968 2.967-5.935 4.945-7.913 28.682-72.198-20.77-147.363-103.846-147.363-27.693 0-55.385 11.868-77.143 36.594zm77.143 250.22c-7.912 8.902-5.934 14.836 5.934 17.803 15.824 1.978 35.604 4.945 51.428 7.912 11.869-2.967 19.78-2.967 30.66-2.967 2.967 0 8.901-2.967 15.824-2.967 17.802-4.945 19.78-10.88 6.923-27.693 0-1.978-2.967-1.978-2.967-4.945-19.78-15.824-41.538-19.78-66.264-15.824-16.813 1.978-33.626 12.857-41.538 28.681zm77.143 81.1c-5.934 7.912-2.967 15.824 7.912 18.79 18.791.99 33.626 2.968 52.418 5.935 8.9 0 19.78-2.967 27.692-2.967 5.934 0 10.88-1.978 13.846-1.978 21.759-3.956 24.726-11.868 10.88-27.692-2.968-3.957-4.946-5.935-10.88-8.902-19.78-16.813-61.319-18.79-85.055 0-5.934 4.945-10.88 8.901-16.813 16.814z"></path></svg>