<svg xmlns="http://www.w3.org/2000/svg" viewBox="0 0 1000 1000" fill="#C2A633"><path d="M566.625 335.658c29.611 9.87 54.287 26.65 72.054 49.352 24.676 30.598 36.52 71.067 36.52 121.406 0 70.08-23.689 118.444-70.08 146.081-25.662 12.832-54.286 19.741-88.833 19.741h-76.002V530.105h113.51v-60.21h-113.51v-143.12h72.054c17.767 0 35.533 2.96 54.287 8.883zM5 500c0-89.82 22.406-173.225 67.119-250.214 44.12-74.324 103.343-133.547 177.667-177.667C326.775 27.406 409.982 5 499.506 5c90.117 0 173.72 22.406 250.708 67.119 74.324 44.12 133.25 103.343 176.68 177.667C972.298 326.775 995 410.179 995 500c0 89.82-22.702 173.225-68.106 250.214-43.43 74.324-102.356 133.25-176.68 176.68C673.225 972.298 589.821 995 500 995c-89.82 0-173.225-22.702-250.214-68.106-74.324-43.43-133.547-102.356-177.667-176.68C27.406 673.225 5 589.82 5 500zm267.488 30.105h64.157v243.798h183.59c18.753 1.974 41.455 0 66.13-4.935 51.327-10.857 92.783-32.572 124.368-65.145 45.404-46.39 68.105-112.522 68.105-199.381 0-83.899-21.714-150.03-64.157-197.408-30.598-34.546-72.054-58.235-125.354-71.067-27.637-6.91-58.235-9.87-92.782-9.87h-159.9v243.798h-64.157z"></path></svg>