<svg xmlns="http://www.w3.org/2000/svg" viewBox="0 0 1000 1000" fill="#008AFB"><path d="M500.496 5C223.572 5 5 229.506 5 500.002c0 276.43 224.506 495.001 495.002 495.001 276.43 0 495.001-224.506 495.001-495.001C995.003 226.539 773.464 5 500.496 5zM233.462 420.386c0-124.616 99.89-223.517 223.518-223.517 124.615 0 224.506 100.88 223.517 225.495 0 122.638-100.88 222.528-223.517 221.54-122.638.988-224.507-99.891-223.518-223.518zm74.176 0c-.989 81.1 66.264 148.352 147.364 148.352 82.088.99 150.33-66.264 150.33-148.352.989-82.088-67.253-149.341-148.352-149.341-83.078 0-150.33 68.242-149.342 149.341zm149.342 410.44c0-9.89 2.967-19.78 10.879-26.702 49.45-49.451 98.901-99.89 148.352-149.342 14.835-14.835 38.571-14.835 53.407 0 15.824 14.836 15.824 38.572 0 54.396-31.649 31.649-64.286 63.297-95.935 95.935-17.802 16.813-34.615 34.615-52.418 51.428-12.857 12.857-30.659 15.825-45.494 7.912-11.868-7.912-18.791-18.79-18.791-33.626zm223.517-597.364c0-20.769 16.813-37.582 37.582-36.593 20.77 0 37.583 15.824 37.583 36.593 0 20.77-16.813 38.572-37.583 37.583-20.769 0-37.582-16.813-37.582-37.583z"></path></svg>