<svg xmlns="http://www.w3.org/2000/svg" viewBox="0 0 1000 1000" fill="#1AAB9B"><path d="M499.507 995.003h.99c89.01 0 172.088-22.45 249.23-67.253 74.474-44.209 133.814-103.55 178.023-178.022 44.803-77.143 67.253-160.418 67.253-249.726 0-89.308-22.45-172.583-67.253-249.726-44.209-74.473-103.55-133.814-178.022-178.023C672.585 27.45 589.31 5 500.002 5c-89.308 0-172.583 22.45-249.726 67.253-74.473 44.209-133.814 103.55-178.023 178.023C27.451 327.419 5 410.694 5 500.002c0 89.308 22.45 172.583 67.253 249.726C116.462 824.2 175.803 883.54 250.276 927.75c77.143 44.803 160.22 67.253 249.231 67.253zm-311.54-323.407V321.485c0-12.858 6.924-27.693 16.814-33.627 10.879-6.923 24.725-7.912 40.55 4.945 35.604 28.682 71.209 55.385 107.802 83.077 38.572 28.682 76.154 57.363 113.737 87.034 14.835 12.857 19.78 17.802 19.78 32.637v179.012c0 11.868 0 37.582-20.77 37.582h-11.868c-27.692 0-22.747-26.703-22.747-40.55V518.299c0-7.912-1.978-15.824-6.923-20.769-45.495-34.615-80.11-60.33-106.813-80.11-42.528-31.649-63.297-47.473-74.177-56.374V667.64c0 12.857 4.946 44.505-23.736 44.505h-11.868c-19.78 0-19.78-25.714-19.78-40.55zm336.266-3.956V504.452c0-20.77 8.9-35.604 27.692-49.45 40.55-29.67 82.088-63.297 123.627-93.957l91.978-68.242c15.824-11.868 28.681-15.824 40.55-5.934 15.824 10.88 15.824 22.747 15.824 34.616v358.023c.989 19.78-1.978 29.67-15.824 32.637H788.3c-14.836-1.978-16.814-18.791-16.814-44.505-2.967-98.902-2.967-200.77-2.967-305.606-6.923 3.956-12.857 8.901-17.802 12.857-14.835 11.869-29.67 22.748-44.506 33.627-35.604 27.692-72.198 57.363-111.758 82.088-10.88 6.923-12.858 15.824-12.858 32.637v151.32c0 25.714-2.967 37.582-18.79 37.582H545.99c-25.715 0-21.758-31.648-21.758-44.505z"></path></svg>