<svg xmlns="http://www.w3.org/2000/svg" viewBox="0 0 1000 1000" fill="#2C7DF7"><path d="M5 500.496C5 225.55 226.54 5 500.496 5c272.968 0 494.507 222.528 494.507 494.507 0 274.946-222.528 495.496-494.507 495.496C225.55 995.003 5 772.475 5 500.496zm232.418-212.638c3.956 16.813 3.956 26.703 3.956 43.517h107.803v208.682c0 50.44 19.78 83.077 59.34 92.967 48.463 12.857 98.902 18.791 133.518-22.747 10.879-6.923 17.802-16.814 19.78-29.67 0-5.935-1.978-15.825-5.934-32.638-21.758 18.791-35.605 35.604-52.418 45.494-36.593 22.748-72.198 5.935-75.165-36.593-3.956-76.154 0-150.33 0-225.495h213.627c-56.374 71.209-107.802 140.44-161.21 206.704l9.891 9.89c12.857-7.912 22.747-9.89 35.605-15.824 62.307-26.704 121.648-3.956 135.495 61.318 9.89 35.605 9.89 74.177 1.978 108.792-15.825 88.022-90.99 117.693-167.144 69.231 2.967-7.912 10.88-13.846 12.857-19.78 13.847-20.77 13.847-40.55 0-59.341-15.824-19.78-38.571-19.78-59.34-10.88-21.759 10.88-25.715 29.671-25.715 49.451 6.923 32.638 23.736 59.341 50.44 79.122 78.132 55.384 221.539 12.857 258.133-75.165 42.527-101.869-2.968-213.628-95.935-247.254-18.791-6.923-38.571-6.923-58.352-7.912 52.418-56.374 104.836-109.78 158.243-165.166-9.89-19.78-26.704-26.703-53.407-26.703H424.342v-56.374c0-77.143-1.978-81.099-81.1-77.143-6.922 0-14.834 0-26.702 2.967 38.571 39.56 36.593 85.055 30.659 130.55z"></path></svg>