<svg xmlns="http://www.w3.org/2000/svg" viewBox="0 0 1000 1000" fill="#0E9CBC"><path d="M5 500.002v.395-.395c.099-89.506 22.55-172.682 67.253-249.726 44.209-74.473 103.55-133.814 178.023-178.023C327.419 27.45 410.694 5 500.002 5c89.308 0 172.583 22.45 249.726 67.253C824.2 116.462 883.54 175.803 927.75 250.276c44.803 77.143 67.253 160.418 67.253 249.726 0 89.308-22.45 172.583-67.253 249.726C883.541 824.2 824.2 883.54 749.728 927.75c-77.143 44.803-160.418 67.253-249.726 67.253-89.308 0-172.583-22.45-249.726-67.253-74.473-44.209-133.814-103.55-178.023-178.022C27.55 672.684 5.099 589.508 5 500.002zm206.704 239.836c0 32.637 30.66 62.308 61.319 62.308 28.681 0 60.33-29.67 60.33-60.33 0-29.67-27.693-61.32-58.352-61.32-32.638 0-60.33 29.671-63.297 59.342zm93.956-120.66c11.869 17.802 16.814 17.802 29.67 5.934 37.583-34.616 53.408-40.55 40.55-62.308-21.758-58.352-17.802-114.726 20.77-162.198 39.56-49.451 95.934-67.253 150.33-49.451 48.462 18.791 68.242-1.978 96.923-30.66 11.868-13.846 11.868-21.758 0-30.659-41.538-21.758-76.154-30.66-125.605-30.66-82.088 0-148.352 30.66-200.77 91.979-55.384 79.121-60.33 193.847-11.868 268.023zm70.22 73.187c32.638 36.593 128.572 59.34 201.76 41.539 94.945-23.737 151.318-91.979 177.033-180.99 16.813-69.231 0-134.506-47.473-201.759-18.791 18.791-34.615 36.594-43.516 49.45-12.858 11.869-12.858 23.737-7.913 40.55 20.77 45.495 16.814 92.968-9.89 135.495-64.286 111.759-194.836 50.44-214.616 60.33-22.747 12.857-40.55 35.605-55.385 55.385zM699.288 255.22c0 34.615 29.67 60.33 59.34 60.33 36.594 0 61.32-25.715 61.32-60.33 0-35.605-29.67-62.308-61.32-62.308-29.67 0-59.34 29.67-59.34 62.308z"></path></svg>