<svg xmlns="http://www.w3.org/2000/svg" viewBox="0 0 1000 1000" fill="#2775CA"><path d="M500.496 5c272.968 0 494.507 221.54 494.507 495.002 0 270.495-218.572 495.001-495.001 495.001C229.506 995.003 5 776.431 5 500.002 5 229.506 223.572 5 500.496 5zM107.857 497.53c5.935 150.33 83.078 293.736 262.09 365.934 17.802 5.934 32.637 9.89 32.637-4.945 0-13.846-.99-21.758-.99-44.505 0-11.868-14.834-14.836-28.68-19.78-122.638-54.396-216.595-190.88-192.858-342.2 17.802-118.681 89.01-200.77 197.802-250.22 18.792-8.901 27.693-7.912 27.693-32.638 0-42.527.989-51.428-35.605-40.55-156.264 54.397-257.143 204.727-262.089 368.903zm247.254 100.879c16.813 55.384 62.308 90 114.726 90v46.484c0 12.857 2.967 22.747 18.791 22.747h20.77c18.79 0 23.736-4.945 23.736-22.747v-46.484c24.725 0 70.22-21.758 90.989-48.462 47.473-63.297 17.802-142.418-48.462-164.176-125.605-32.638-138.462-33.627-142.418-50.44-5.934-46.484 13.846-69.23 68.242-69.23 26.704 0 54.396 9.89 64.286 41.538 3.956 8.9 9.89 13.846 16.813 13.846h32.638c13.846 0 18.791-8.901 13.846-23.736-4.945-25.715-21.758-48.462-50.44-68.242-24.725-15.825-45.494-9.89-45.494-26.704v-37.582c0-11.869-4.945-15.825-17.803-15.825h-18.79c-23.737 0-26.704 3.956-26.704 20.77v42.527c-24.726 0-58.352 19.78-77.143 36.594-42.528 39.56-38.572 142.418 36.593 168.132 119.67 29.67 134.506 21.759 146.374 58.352 2.967 28.682-9.89 55.385-37.582 64.286-49.451 16.813-113.737-1.978-113.737-48.462 0-13.846-9.89-15.824-18.791-15.824h-32.638c-15.824 0-22.747 12.857-17.802 32.638zM597.42 840.717c0 26.703 9.89 30.66 36.593 22.747C789.288 808.08 893.135 661.705 893.135 497.53c0-172.088-111.759-316.484-273.957-373.847-11.868-6.923-21.758 2.967-21.758 18.791v26.703c0 19.78 17.802 22.748 36.593 32.638 113.737 49.45 205.715 173.077 190.88 328.353-15.824 136.484-82.088 204.726-209.671 269.011-18.791 6.924-17.802 19.78-17.802 41.54z"></path></svg>