<svg xmlns="http://www.w3.org/2000/svg" viewBox="0 0 1000 1000" fill="#345C9D"><path d="M749.728 72.253c75.165 44.209 134.506 103.55 178.022 178.023 44.803 77.143 67.253 160.517 67.253 250.22 0 89.704-22.45 172.78-67.253 249.232-43.516 75.165-102.857 134.506-178.022 178.022-76.451 44.803-159.528 67.253-249.232 67.253-89.703 0-173.077-22.45-250.22-67.253-74.473-43.516-133.814-102.857-178.023-178.022C27.451 673.277 5 590.2 5 500.496c0-89.703 22.45-173.077 67.253-250.22 44.209-74.473 103.55-133.814 178.023-178.023C327.419 27.45 410.793 5 500.496 5 590.2 5 673.277 27.45 749.728 72.253zm-461.87 559.782 61.319-42.528-31.648 150.33h372.858l21.758-100.879H455.002l29.67-142.418 151.32-103.846 18.79-85.056-152.308 104.836 43.517-205.715H429.287L365.99 505.44l-63.297 44.506z"></path></svg>