<svg xmlns="http://www.w3.org/2000/svg" viewBox="0 0 1000 1000" fill="#00D395"><path d="M500.496 5C223.572 5 5 229.506 5 500.002c0 276.43 224.506 495.001 495.002 495.001 276.43 0 495.001-224.506 495.001-495.001C995.003 226.539 773.464 5 500.496 5zM181.045 639.947v-88.022c5.934-40.55 24.725-52.418 59.34-35.605 88.023 52.418 175.056 105.825 263.078 159.232 23.737 10.879 35.605 28.681 35.605 52.417v116.704c0 35.605-23.737 46.484-58.352 29.67-34.616-17.802-71.21-40.549-105.825-64.285-46.483-29.67-99.89-59.341-146.374-88.023-28.681-17.802-47.472-46.483-47.472-82.088zM315.55 475.771V340.276c0-27.693 18.792-40.55 47.473-22.748 93.957 52.418 187.913 105.825 275.935 158.243 22.748 11.868 28.682 28.681 28.682 52.418v246.264c0 16.813-5.934 29.67-17.803 35.605-16.813 10.879-34.615 17.802-46.483 23.736h-10.88v-89.011c0-58.352-11.868-93.957-65.274-122.638-64.286-28.682-128.572-70.22-187.913-110.77-16.813-6.923-23.737-17.802-23.737-35.604zm123.627-216.594V147.418c0-34.615 17.803-46.484 53.407-28.681 88.022 52.417 181.979 104.835 269.012 157.253 23.736 12.857 28.681 29.67 28.681 53.407V697.31c0 30.66-16.813 47.473-63.297 59.34V516.32c0-34.615-11.868-58.351-46.483-82.088-72.198-40.55-141.43-81.099-211.65-121.649-22.747-12.857-29.67-29.67-29.67-53.406z"></path></svg>