<svg xmlns="http://www.w3.org/2000/svg" viewBox="0 0 1000 1000" fill="#FE007A"><path d="M500.496 5C223.572 5 5 229.506 5 500.002c0 276.43 224.506 495.001 495.002 495.001 276.43 0 495.001-224.506 495.001-495.001C995.003 226.539 773.464 5 500.496 5zM196.87 147.418c10.879 11.868 21.758 20.77 30.66 28.681 45.494 50.44 90 98.902 131.538 149.342 19.78 14.835 31.649 32.637 49.45 49.45 9.891 13.847 9.891 28.682 0 41.539-9.89 12.857-26.703 17.802-42.527 20.77-16.813 2.966-22.747 6.922-25.714 24.725-.99 22.747-3.956 42.527-17.802 63.296-7.913 11.869-12.858 28.682-4.945 42.528 4.945 10.88 15.824 20.77 21.758 26.703 5.934 6.924 13.846 10.88 19.78 15.825 13.846 13.846 15.824 35.604 1.978 51.428-19.78 22.748-45.495 30.66-75.165 35.605-1.978 0-7.912-1.978-7.912-1.978-9.89-17.802-20.77-35.605-29.67-56.374-11.869-27.692-4.946-55.385 14.835-79.121 6.923-9.89 11.868-15.824 17.802-25.714 14.835-24.726 28.681-46.484 31.648-76.154 2.967-13.847 8.902-23.737 14.836-35.605 4.945-9.89 7.912-15.824 0-26.703-19.78-37.583-59.341-106.814-59.341-113.737 1.978 1.978 4.945 6.923 6.923 8.901 21.758 34.616 44.506 69.231 65.275 101.869 12.857 15.824 23.736 19.78 38.571 13.846 13.847-2.967 16.814-10.88 6.924-20.77-21.759-21.758-34.616-45.494-52.418-69.23-40.55-54.396-90.99-100.88-127.583-155.276-3.956-5.934-7.912-8.9-8.901-13.846zm76.154 453.958c0 3.956 0 8.9 1.978 11.868 0 2.967 1.978 5.934 2.967 7.912 2.967-1.978 7.912-4.945 9.89-6.923 1.978-8.901-3.956-12.857-14.835-12.857zm86.044 88.022c1.978-5.934 4.945-7.912 6.923-9.89 31.649-25.715 64.286-43.517 104.836-40.55 42.527 2.967 71.209 25.715 79.12 67.253 1.979 9.89 1.979 21.758 3.957 34.616 8.901 23.736 19.78 30.66 45.495 26.703 5.934 0 11.868-1.978 18.79-1.978-15.823 19.78-48.46 23.736-66.263 5.934-8.901-8.901-14.835-23.736-22.747-33.626-9.89-15.825-15.825-31.649-26.704-42.528-11.868-11.868-23.736-15.824-38.571-11.868-12.858 1.978-22.748 15.824-19.78 26.703 1.977 14.835 15.824 21.758 29.67 21.758 7.912-1.978 15.824-6.923 15.824-17.802 0-8.9-4.945-14.835-15.824-16.813-6.923-.989-11.868 1.978-16.813 12.857-2.968-8.9 0-17.802 11.868-19.78 7.912-.99 22.747 1.978 25.714 10.88 7.912 8.9 7.912 25.713-1.978 33.626-10.88 12.857-30.66 14.835-48.462 5.934-6.923-5.934-15.824-12.858-22.747-18.792-12.857-15.824-30.66-26.703-51.429-29.67-3.956 0-8.9-1.978-10.879-2.967zm28.682-386.705c-1.978-20.769 2.967-22.747 17.802-15.824 30.66 7.912 22.747 15.824 54.396 101.869-5.935 1.978-8.902 3.956-13.847 1.978-17.802-3.957-29.67-16.814-37.582-30.66-12.857-17.802-20.77-37.582-20.77-57.363zm10.879-33.626c16.813-6.923 37.582 0 55.384 10.879 14.836 10.88 27.693 22.747 38.572 34.615 6.923 5.935 12.857 7.913 21.758 7.913 45.495-9.89 85.056 0 121.65 21.758 7.911 2.967 9.89 11.868 9.89 17.802 0 11.868-.99 24.725-.99 35.605 0 5.934.99 8.9.99 13.846 13.845 0 25.714-20.77 25.714-34.616 17.802 9.89 39.56 51.43 34.615 67.253-.989 0-.989-1.978-2.967-1.978-13.846-18.791-33.626-20.769-54.396-23.736-25.714-3.956-53.406-6.923-80.11-11.868-23.736-3.956-39.56-23.737-55.385-42.528-13.846-16.813-26.703-33.626-39.56-49.45-18.791-22.748-40.55-37.583-70.22-45.495zm6.923 199.78c-1.978-12.857 7.912-28.68 21.758-30.659h13.846c12.858 1.978 21.759 10.88 20.77 23.737 0 22.747-17.803 22.747-33.627 22.747-14.835 0-22.747-3.956-22.747-15.824zm17.802-16.813c3.956.99 6.923 5.935 11.868 9.89l10.88-9.89c-4.946-1.978-8.902-7.912-10.88-7.912-4.945 0-6.923 5.934-11.868 7.912zM446.1 619.178c4.945-4.945 7.912-5.934 10.88-8.901 19.78-4.945 40.55-8.901 60.33-15.825 9.89-1.978 15.824-1.978 25.714-4.945 32.637-10.879 47.472-36.593 38.571-71.209v-13.846c23.737 24.726 20.77 63.297-.989 85.055-13.846 11.869-29.67 18.792-45.494 20.77-29.67 3.956-58.352 5.934-84.067 10.879-1.978 0-1.978-1.978-4.945-1.978zm93.957-200.77c0-5.934 4.945-9.89 9.89-5.934 26.703 20.77 59.34 19.78 90.99 25.714 28.68 4.945 57.362 13.846 80.11 38.572 30.659 28.681 35.604 68.242 8.9 112.747-7.912-35.604-35.604-49.45-65.274-61.318-24.726-9.89-49.451-23.737-74.177-34.616-16.813-8.901-36.593-21.758-43.516-41.539-3.956-9.89-3.956-23.736-6.923-33.626zm68.242 115.715c.989-15.825 2.967-15.825 17.802-8.901 17.802 11.868 36.594 22.747 58.352 34.615 66.264 43.517 48.462 135.495-5.934 167.143-2.967.99-6.923 2.967-12.857 4.945 0-41.538 20.769-24.725-.99-72.198-13.846-24.725-28.68-46.483-44.505-70.22-8.901-16.813-14.835-35.604-11.868-55.384zm4.945-219.562v-1.978c6.923 1.978 14.835 3.956 22.747 7.913 16.813 3.956 14.835-9.89 18.791-36.594 3.956 18.791 3.956 32.637 9.89 46.484 5.935 13.846 20.77 22.747 29.671 36.593v1.88c-.89-1.089-24.725-15.726-24.725-15.726-4.945 7.912-13.847 42.528-12.858 35.605v-21.759c0-20.77-12.857-37.582-43.516-52.418z"></path></svg>