<svg xmlns="http://www.w3.org/2000/svg" viewBox="0 0 1000 1000" fill="#D83AEB"><path d="M500.496 5C223.572 5 5 229.506 5 500.002c0 276.43 224.506 495.001 495.002 495.001 276.43 0 495.001-224.506 495.001-495.001C995.003 226.539 773.464 5 500.496 5zm-310.55 459.892c-8.901-8.901-1.978-24.726 9.89-28.682 5.934-1.978 10.879-.989 15.824-.989h481.65c9.89 0 18.791 2.967 26.703 9.89L797.2 517.31c3.957 3.956 5.935 5.934 6.924 10.88 2.967 14.835 0 26.703-13.847 27.692H294.781c-9.89 0-16.813-.99-25.714-9.89l-71.21-70.22c-3.955-3.956-4.944-7.912-7.911-10.88zm0-107.803c-2.967-10.88 0-17.802 6.923-24.725l77.143-81.1c1.978-1.977 4.945-2.967 8.901-6.923h511.32c17.803 12.858 17.803 22.748 2.967 38.572l-75.165 78.132c-6.923 6.923-12.857 8.901-21.758 8.901H210.715c-8.901 0-17.802-1.978-20.77-12.857zm2.967 358.023c29.67-26.703 54.395-56.374 83.077-85.055 2.967-2.967 11.868-4.945 18.791-4.945H788.3c8.901 1.978 14.836 4.945 17.803 13.846 1.978 6.923 2.967 13.846-4.945 21.758l-29.67 29.67c-15.825 15.825-31.65 29.671-47.474 45.496-8.9 8.9-16.813 12.857-26.703 12.857l-481.65-1.978c-2.967 0-6.923 1.978-9.89 0-14.835-9.89-24.725-20.77-12.857-31.649z"></path></svg>