<svg xmlns="http://www.w3.org/2000/svg" viewBox="0 0 1000 1000" fill="#8248E5"><path d="M852.183,685.378c0,2.953-.984,6.891-.984,9.845a48.383,48.383,0,0,1-20.675,25.6c-28.551,16.737-57.1,33.474-86.637,50.21-19.691,11.815-41.35,24.613-63.009,35.443-3.938,2.954-8.861,5.907-15.753,5.907a37.214,37.214,0,0,0-14.767,0,24.187,24.187,0,0,1-14.768-4.922c-26.582-14.768-53.164-29.536-78.761-45.288-23.629-12.8-47.257-27.567-70.885-40.365C472.16,711.96,463.3,699.161,463.3,682.424V622.369c0-.985,0-1.969,1.969-2.954,21.659-12.8,44.3-25.6,65.962-38.4.985,0,.985,0,1.969-.985v2.954c0,17.721.985,35.443,0,54.148a46.883,46.883,0,0,0,13.784,33.474c2.953,3.938,8.86,6.891,12.8,9.845,24.613,13.783,49.226,28.551,74.823,42.334,5.907,4.923,13.784,5.907,20.675,6.892,10.83.984,19.691-.985,27.567-6.892,24.613-14.768,50.21-29.535,74.823-44.3,12.8-7.876,20.675-19.69,21.659-33.474a19.207,19.207,0,0,0,.985-6.891v-91.56c0-16.737-7.876-30.52-22.644-39.381-26.582-15.752-52.179-30.52-78.761-45.287-14.768-8.861-30.52-8.861-44.3-.985-16.736,9.845-32.489,18.706-47.256,27.567-34.458,19.69-68.916,40.365-104.359,60.055-31.5,18.706-63.993,38.4-96.483,56.117-8.86,4.923-16.736,10.83-25.6,14.768-15.752,8.861-31.5,9.845-48.241,0q-64.978-38.4-132.91-76.792c-5.907-3.938-12.8-7.876-19.69-11.814-11.814-8.861-17.721-21.66-17.721-36.427V320.122c0-16.736,7.876-28.551,22.644-37.411,15.752-8.861,31.5-18.706,49.225-28.551,33.474-19.69,67.932-39.381,101.405-59.071,2.954-2.954,6.892-2.954,9.846-4.923h27.566c2.954,1.969,6.892,2.954,9.845,4.923,40.365,23.628,81.715,48.241,123.065,71.87,8.86,4.922,17.721,9.845,25.6,15.752,12.8,8.86,20.675,21.659,20.675,37.411v61.04c0,1.969,0,2.954-1.969,2.954-22.644,12.8-44.3,25.6-66.947,39.381a3.049,3.049,0,0,0-1.969.984V384.116c0-8.861,0-16.737-.985-24.613,0-10.83-3.938-18.706-10.83-27.566-3.938-4.923-9.845-7.877-15.752-10.83-19.69-12.8-40.365-24.613-60.055-36.427-5.907-3.938-10.83-7.876-16.737-9.845-14.768-6.892-29.535-6.892-44.3,1.969-24.613,14.767-50.21,29.535-75.808,44.3-15.752,9.845-23.628,22.644-23.628,41.35v95.5c1.969,15.752,9.845,27.566,21.659,34.458,23.628,13.783,46.272,27.566,68.916,42.334,5.907,2.953,11.814,7.876,19.691,8.86,11.814,3.938,24.612,3.938,36.427-2.953,20.674-11.814,40.365-24.613,61.04-36.427,18.7-11.814,39.38-23.629,58.086-34.458,17.721-9.845,36.427-19.691,53.164-29.536,32.489-18.706,64.978-38.4,97.467-57.1,5.907-3.938,11.814-6.891,18.706-7.876a41.44,41.44,0,0,1,32.489,4.923c18.7,10.829,37.411,20.675,55.132,31.5,31.5,18.706,62.025,35.443,93.529,54.149,11.815,7.876,19.691,17.721,21.66,31.5a8.881,8.881,0,0,1,.984,4.923ZM5.5,503.242C5.5,773.984,225.047,995.5,498.742,995.5,769.484,995.5,991,775.953,991,502.258,991,231.516,770.469,10,498.742,10,226.031,10,5.5,229.547,5.5,503.242Z"></path></svg>