<svg xmlns="http://www.w3.org/2000/svg" viewBox="0 0 1000 1000" fill="#F09242"><path d="M500.496 5C223.572 5 5 229.506 5 500.002c0 276.43 224.506 495.001 495.002 495.001 276.43 0 495.001-224.506 495.001-495.001C995.003 226.539 773.464 5 500.496 5zM97.967 494.562C97.967 275.001 280.935 92.033 501.485 95c219.561 0 398.573 176.045 398.573 399.562 0 223.517-179.012 399.562-403.518 403.518-219.561 0-398.573-183.957-398.573-403.518zm36.594 0c0 201.759 161.21 361.98 361.98 366.924 202.747 0 366.923-161.209 366.923-366.924 0-201.759-161.209-362.968-361.979-362.968-205.715 0-366.924 158.242-366.924 362.968zm21.758-10.88c0-69.23 25.715-143.406 77.143-208.681 6.923-3.956 10.88-14.835 21.759-3.956 10.879 7.912 14.835 14.835 3.956 29.67-48.462 58.352-70.22 127.583-70.22 201.76 4.945 69.23 26.703 131.538 70.22 185.934 6.923 7.912 10.879 14.835 0 25.714-10.88 10.88-14.836 10.88-25.715 0-51.428-66.264-77.143-135.495-77.143-230.44zm117.693 252.2c6.923-5.935 13.846-13.847 29.67-2.967 35.605 32.637 83.078 54.395 134.506 66.263 95.935 17.803 179.012-3.956 253.188-63.296 13.846-10.88 29.67-5.935 36.593 7.912 0 2.967-3.956 10.879-6.923 13.846-66.264 52.418-139.45 82.088-224.506 82.088-80.11 0-153.297-26.703-215.605-82.088-6.923-2.967-17.802-10.88-6.923-21.758zm2.967-478.683c-10.88-7.912-10.88-15.825 0-26.704 66.264-50.44 139.451-80.11 219.561-80.11 85.055 0 158.242 29.67 219.561 80.11 7.912 7.912 18.792 10.88 7.912 21.759-7.912 7.912-13.846 18.79-29.67 4.945-39.56-33.627-83.077-55.385-134.506-63.297-95.934-21.759-180 0-256.155 63.297-7.912 2.967-15.824 10.879-26.703 0zm77.143 116.703c0-14.835 7.912-17.802 18.791-17.802h43.517c10.88 0 18.791-4.945 18.791-18.791V315.55c-3.956-18.79 2.967-25.714 17.802-25.714 18.792 0 21.759 6.923 21.759 21.758v28.682c3.956 4.945 7.912 10.879 15.824 10.879 5.934 4.945 13.846-2.967 13.846-10.88v-28.68c-2.967-18.792 7.912-18.792 21.759-18.792 10.879-2.967 18.79 3.956 18.79 18.791 0 10.88-3.955 28.682 2.968 36.594 7.912 10.88 22.747 10.88 36.593 13.846 59.341 18.791 70.22 71.21 29.67 125.605 21.76 6.923 40.55 21.758 44.506 47.473 10.88 47.472-11.868 90.989-55.384 106.813-13.847 2.967-25.715 5.934-40.55 5.934-14.835 0-17.802 7.912-17.802 22.748v17.802c0 22.747-3.956 25.714-26.704 25.714-10.879 0-13.846-6.923-13.846-17.802v-32.638c-2.967-4.945-10.879-10.879-13.846-10.879-7.912-4.945-15.824 2.967-15.824 13.847v29.67c0 14.835-6.923 17.802-21.759 17.802-14.835 0-21.758-6.923-17.802-21.758v-17.802c0-26.704 0-26.704-26.703-26.704H375.88c-13.846 0-17.802-2.967-17.802-21.758 3.956-17.802 6.923-28.681 28.682-28.681 10.879 3.956 18.79-3.957 18.79-14.836V421.375c0-17.802-10.878-21.758-29.67-21.758-21.758 0-21.758-3.956-21.758-25.715zm120.66 212.638c0 2.967 7.912 10.88 10.879 10.88 26.703 0 51.429-3.957 74.176-10.88 10.88 0 17.802-18.79 17.802-29.67 0-7.912-6.923-21.758-17.802-29.67-11.868-2.968-29.67-6.924-44.506-6.924-47.472-3.956-40.55-3.956-40.55 39.561zm0-150.33c0 40.55 0 40.55 37.582 40.55 32.638-3.956 50.44-15.824 50.44-37.583 0-21.758-17.802-35.604-50.44-35.604-37.582-3.956-37.582-3.956-37.582 32.637zm260.11 256.155c33.627-39.56 55.385-88.022 66.265-138.462 18.79-92.967-2.968-176.045-62.308-253.188-6.923-7.912-14.836-14.835-3.956-25.714 10.879-11.868 18.79-11.868 25.714 0 54.396 65.275 81.1 139.45 81.1 219.561 0 84.066-29.671 158.242-81.1 219.561-2.967 7.912-10.88 15.824-17.802 7.912-10.88-7.912-18.792-14.835-7.912-29.67z"></path></svg>