<svg xmlns="http://www.w3.org/2000/svg" viewBox="0 0 1000 1000" fill="#7866D5"><path d="M5 500.496C5 225.55 226.54 5 500.496 5c272.968 0 494.507 222.528 494.507 494.507 0 274.946-222.528 495.496-494.507 495.496C225.55 995.003 5 772.475 5 500.496zm186.924 119.67c9.89 82.09 47.472 123.628 128.572 128.573 140.44 6.923 281.869 6.923 425.276 6.923 30.66 0 69.23-6.923 65.275-50.44-5.934-42.528-43.517-33.626-69.231-33.626-121.65-.99-240.33 0-361.98-6.923-64.286-4.946-87.033-42.528-74.176-111.76h445.057c29.67 0 62.308 2.968 62.308-41.538-1.978-44.505-34.616-39.56-64.286-39.56H303.682c-7.912-90.99 35.605-110.77 142.418-110.77h307.584c24.725 0 51.429 0 57.363-34.615 1.978-34.616-20.77-44.506-49.451-46.484-57.363-2.967-115.715-5.934-174.067-5.934-86.044 0-173.077 0-260.11 8.901-84.067 8.901-125.605 50.44-135.495 132.528-6.923 69.23-4.945 136.484 0 204.726z"></path></svg>