<svg xmlns="http://www.w3.org/2000/svg" viewBox="0 0 1000 1000" fill="#FF6601"><path d="M30.714 655.771C13.604 605.628 5 553.903 5 500.496c0-89.703 22.747-173.077 68.242-250.22 43.517-74.473 102.56-133.517 177.034-177.034C327.419 27.747 410.793 5 500.496 5 590.2 5 673.277 27.747 749.728 73.242 824.2 116.759 883.54 175.802 927.75 250.276c44.803 77.143 67.253 160.517 67.253 250.22 0 52.715-8.208 104.539-24.725 155.275H821.926V240.385l-321.43 321.43-322.418-321.43v415.386zm45.495 100.88h207.693v-261.1l214.616 214.616 215.605-216.594v263.078h209.671c-44.209 72.495-103.154 130.253-177.033 173.077-75.858 43.517-157.946 65.275-246.265 65.275-88.319 0-170.803-21.758-247.253-65.275-73.88-42.824-132.825-100.582-177.034-173.077z"></path></svg>