<svg xmlns="http://www.w3.org/2000/svg" viewBox="0 0 1000 1000" fill="#00C3B4"><path d="M500.496 5C223.572 5 5 229.506 5 500.002c0 276.43 224.506 495.001 495.002 495.001 276.43 0 495.001-224.506 495.001-495.001C995.003 226.539 773.464 5 500.496 5zM210.715 768.519c1.978-5.934 1.978-9.89 4.945-11.868 102.858-180 205.715-359.012 310.55-539.013 6.924-9.89 10.88-13.846 21.759-13.846 23.736 2.967 45.495 2.967 70.22 2.967 3.956 8.901 6.923 15.824 7.912 23.736 9.89 35.605 18.791 71.21 29.67 105.825 0 6.923 3.956 8.9 10.88 8.9h79.12c-1.977 3.957-3.955 6.924-6.922 10.88-14.836 28.681-32.638 56.374-48.462 86.044-3.956 5.934-3.956 10.88-1.978 16.814 26.703 96.923 50.44 196.813 77.143 293.737 2.967 3.956 2.967 7.912 3.956 12.857-3.956 2.967-7.912 2.967-10.88 2.967h-65.274c-8.901 0-13.846-2.967-15.824-11.868-14.835-61.319-32.638-125.605-48.462-187.913-2.967-3.956-2.967-7.912-3.956-12.857-13.846 20.77-22.747 37.582-33.627 58.352-27.692 48.461-54.395 93.956-84.066 142.418-3.956 8.901-7.912 11.868-16.813 11.868h-86.044c1.978-5.934 4.945-9.89 4.945-11.868 59.34-103.847 118.682-204.726 178.022-308.573 3.956-5.934 3.956-12.857 2.967-21.758-9.89-32.637-18.79-66.264-26.703-100.88-2.967 3.957-5.934 8.902-7.912 10.88-78.132 140.44-159.231 279.89-241.32 420.33-4.945 8.902-8.9 11.869-19.78 11.869h-72.198z"></path></svg>