<svg xmlns="http://www.w3.org/2000/svg" viewBox="0 0 1000 1000" fill="#01EF83"><path d="M500.496 5c272.968 0 494.507 221.54 494.507 495.002 0 270.495-218.572 495.001-495.001 495.001C229.506 995.003 5 776.431 5 500.002 5 229.506 223.572 5 500.496 5zM204.781 624.123c4.945 36.593 18.791 69.23 41.538 99.89 36.594 42.528 87.034 69.231 149.342 69.231 72.198 0 140.44-51.428 167.143-116.703 14.835-32.638 14.835-65.275 14.835-98.902 0-16.813 0-16.813-18.791-16.813h-93.956c-15.825 0-18.792 0-18.792 16.813 0 15.824 0 29.67-3.956 44.506-6.923 31.648-54.395 50.44-79.12 31.648-17.803-13.846-29.671-38.571-23.737-60.33 5.934-18.79 23.736-40.55 48.462-40.55h33.626c13.846 0 16.813-4.944 16.813-17.801V436.21c0-14.835-2.967-16.813-16.813-16.813-22.747 0-44.506 1.978-69.231 6.923-51.429 9.89-88.022 39.56-115.715 78.132-24.725 36.594-33.626 76.154-31.648 119.67zM446.1 399.617c0 14.835 2.966 14.835 18.79 14.835h97.913c14.835 0 14.835 0 14.835-14.835 2.967-35.605 19.78-54.396 58.352-54.396h126.594c18.791 0 21.758-3.956 21.758-21.758v-90.99c0-18.791-2.967-18.791-21.758-21.758-42.528 0-86.044 0-126.594 2.967-24.725 0-48.462 4.945-65.275 12.857-32.637 14.835-62.308 31.649-85.055 59.341-26.703 32.638-39.56 69.231-39.56 113.737zm138.461 138.462c0 14.835 2.967 14.835 12.858 14.835h95.934c16.813 0 21.758-4.945 21.758-21.758v-91.979c0-17.802-4.945-19.78-21.758-19.78H607.31c-5.934 0-12.857 0-19.78 1.978-2.968 4.945-2.968 6.923-2.968 6.923z"></path></svg>