<svg xmlns="http://www.w3.org/2000/svg" fill="none" viewBox="0 0 48 48" height="48" width="48">
<g clip-path="url(#clip0_1447_3630)">
<g opacity="0.8" style="mix-blend-mode:multiply">
<path fill="url(#paint0_linear_1447_3630)" d="M31.6189 41.9169C30.8085 43.3206 28.7824 43.3206 27.972 41.9169L16.2586 21.6285C15.4481 20.2248 16.4612 18.4702 18.082 18.4702L41.5089 18.4702C43.1298 18.4702 44.1428 20.2249 43.3324 21.6285L31.6189 41.9169Z"></path>
<path stroke-width="0.4679" stroke="#FEB58D" d="M31.6189 41.9169C30.8085 43.3206 28.7824 43.3206 27.972 41.9169L16.2586 21.6285C15.4481 20.2248 16.4612 18.4702 18.082 18.4702L41.5089 18.4702C43.1298 18.4702 44.1428 20.2249 43.3324 21.6285L31.6189 41.9169Z"></path>
</g>
<g opacity="0.8" style="mix-blend-mode:multiply">
<path fill="url(#paint1_linear_1447_3630)" d="M31.6189 41.9169C30.8085 43.3206 28.7824 43.3206 27.972 41.9169L16.2586 21.6285C15.4481 20.2248 16.4612 18.4702 18.082 18.4702L41.5089 18.4702C43.1298 18.4702 44.1428 20.2249 43.3324 21.6285L31.6189 41.9169Z"></path>
<path stroke-width="0.4679" stroke="#FEB58D" d="M31.6189 41.9169C30.8085 43.3206 28.7824 43.3206 27.972 41.9169L16.2586 21.6285C15.4481 20.2248 16.4612 18.4702 18.082 18.4702L41.5089 18.4702C43.1298 18.4702 44.1428 20.2249 43.3324 21.6285L31.6189 41.9169Z"></path>
</g>
<g opacity="0.8" style="mix-blend-mode:multiply">
<path fill="url(#paint2_linear_1447_3630)" d="M31.6189 41.9169C30.8085 43.3206 28.7824 43.3206 27.972 41.9169L16.2586 21.6285C15.4481 20.2248 16.4612 18.4702 18.082 18.4702L41.5089 18.4702C43.1298 18.4702 44.1428 20.2249 43.3324 21.6285L31.6189 41.9169Z"></path>
<path stroke-width="0.4679" stroke="#FEB58D" d="M31.6189 41.9169C30.8085 43.3206 28.7824 43.3206 27.972 41.9169L16.2586 21.6285C15.4481 20.2248 16.4612 18.4702 18.082 18.4702L41.5089 18.4702C43.1298 18.4702 44.1428 20.2249 43.3324 21.6285L31.6189 41.9169Z"></path>
</g>
<g opacity="0.5" style="mix-blend-mode:overlay">
<path fill="#FAEAA5" d="M31.6189 41.9169C30.8085 43.3206 28.7824 43.3206 27.972 41.9169L16.2586 21.6285C15.4481 20.2248 16.4612 18.4702 18.082 18.4702L41.5089 18.4702C43.1298 18.4702 44.1428 20.2249 43.3324 21.6285L31.6189 41.9169Z"></path>
<path stroke-width="0.4679" stroke="#FEB58D" d="M31.6189 41.9169C30.8085 43.3206 28.7824 43.3206 27.972 41.9169L16.2586 21.6285C15.4481 20.2248 16.4612 18.4702 18.082 18.4702L41.5089 18.4702C43.1298 18.4702 44.1428 20.2249 43.3324 21.6285L31.6189 41.9169Z"></path>
</g>
<g opacity="0.8" style="mix-blend-mode:multiply">
<path fill="url(#paint3_linear_1447_3630)" d="M16.3811 6.08314C17.1915 4.67945 19.2176 4.67945 20.028 6.08315L31.7415 26.3715C32.5519 27.7752 31.5388 29.5298 29.918 29.5298H6.49107C4.87022 29.5298 3.85719 27.7752 4.66762 26.3715L16.3811 6.08314Z"></path>
<path stroke-width="0.4679" stroke="#B992FF" d="M16.3811 6.08314C17.1915 4.67945 19.2176 4.67945 20.028 6.08315L31.7415 26.3715C32.5519 27.7752 31.5388 29.5298 29.918 29.5298H6.49107C4.87022 29.5298 3.85719 27.7752 4.66762 26.3715L16.3811 6.08314Z"></path>
</g>
<g opacity="0.8" style="mix-blend-mode:multiply">
<path fill="url(#paint4_linear_1447_3630)" d="M16.3811 6.08314C17.1915 4.67945 19.2176 4.67945 20.028 6.08315L31.7415 26.3715C32.5519 27.7752 31.5388 29.5298 29.918 29.5298H6.49107C4.87022 29.5298 3.85719 27.7752 4.66762 26.3715L16.3811 6.08314Z"></path>
<path stroke-width="0.4679" stroke="#B992FF" d="M16.3811 6.08314C17.1915 4.67945 19.2176 4.67945 20.028 6.08315L31.7415 26.3715C32.5519 27.7752 31.5388 29.5298 29.918 29.5298H6.49107C4.87022 29.5298 3.85719 27.7752 4.66762 26.3715L16.3811 6.08314Z"></path>
</g>
<g opacity="0.8" style="mix-blend-mode:multiply">
<path fill="url(#paint5_linear_1447_3630)" d="M16.3811 6.08314C17.1915 4.67945 19.2176 4.67945 20.028 6.08315L31.7415 26.3715C32.5519 27.7752 31.5388 29.5298 29.918 29.5298H6.49107C4.87022 29.5298 3.85719 27.7752 4.66762 26.3715L16.3811 6.08314Z"></path>
<path stroke-width="0.4679" stroke="#B992FF" d="M16.3811 6.08314C17.1915 4.67945 19.2176 4.67945 20.028 6.08315L31.7415 26.3715C32.5519 27.7752 31.5388 29.5298 29.918 29.5298H6.49107C4.87022 29.5298 3.85719 27.7752 4.66762 26.3715L16.3811 6.08314Z"></path>
</g>
<g opacity="0.5" style="mix-blend-mode:overlay">
<path fill="#F2F2F2" d="M16.382 6.08367C17.192 4.68067 19.2171 4.68067 20.0271 6.08367L31.7405 26.372C32.5506 27.775 31.538 29.5287 29.918 29.5287H6.49107C4.87103 29.5287 3.8585 27.775 4.66853 26.372L16.382 6.08367Z"></path>
<path stroke-width="0.47" stroke="#B992FF" d="M16.382 6.08367C17.192 4.68067 19.2171 4.68067 20.0271 6.08367L31.7405 26.372C32.5506 27.775 31.538 29.5287 29.918 29.5287H6.49107C4.87103 29.5287 3.8585 27.775 4.66853 26.372L16.382 6.08367Z"></path>
</g>
</g>
<defs>
<linearGradient gradientUnits="userSpaceOnUse" y2="45.5431" x2="29.7955" y1="9.13401" x1="29.7955" id="paint0_linear_1447_3630">
<stop stop-color="#FEB58D"></stop>
<stop stop-color="#FFE782" offset="1"></stop>
</linearGradient>
<linearGradient gradientUnits="userSpaceOnUse" y2="45.5431" x2="29.7955" y1="9.13401" x1="29.7955" id="paint1_linear_1447_3630">
<stop stop-color="#FEB58D"></stop>
<stop stop-color="#FFE782" offset="1"></stop>
</linearGradient>
<linearGradient gradientUnits="userSpaceOnUse" y2="45.5431" x2="29.7955" y1="9.13401" x1="29.7955" id="paint2_linear_1447_3630">
<stop stop-color="#FEB58D"></stop>
<stop stop-color="#FFE782" offset="1"></stop>
</linearGradient>
<linearGradient gradientUnits="userSpaceOnUse" y2="2.45692" x2="18.2674" y1="45.9215" x1="18.2691" id="paint3_linear_1447_3630">
<stop stop-color="#8968FF"></stop>
<stop stop-color="#E8BBFF" offset="0.815666"></stop>
</linearGradient>
<linearGradient gradientUnits="userSpaceOnUse" y2="2.45692" x2="18.2674" y1="45.9215" x1="18.2691" id="paint4_linear_1447_3630">
<stop stop-color="#8968FF"></stop>
<stop stop-color="#E8BBFF" offset="0.815666"></stop>
</linearGradient>
<linearGradient gradientUnits="userSpaceOnUse" y2="2.45692" x2="18.2674" y1="45.9215" x1="18.2691" id="paint5_linear_1447_3630">
<stop stop-color="#8968FF"></stop>
<stop stop-color="#E8BBFF" offset="0.815666"></stop>
</linearGradient>
<clipPath id="clip0_1447_3630">
<rect fill="white" height="48" width="48"></rect>
</clipPath>
</defs>
</svg>
