<svg version="1.1" id="Layer_1" xmlns="http://www.w3.org/2000/svg" xmlns:xlink="http://www.w3.org/1999/xlink" x="0px" y="0px"
	 viewBox="0 0 4457.3 2727.8" style="enable-background:new 0 0 4457.3 2727.8;" xml:space="preserve">
<style type="text/css">
	.st0{clip-path:url(#SVGID_2_);}
	.st1{fill:url(#SVGID_3_);}
	.st2{fill:#E9F8FF;stroke:#2B94F3;stroke-width:2;stroke-linecap:round;stroke-miterlimit:10;}
	.st3{stroke:#0F5488;stroke-width:2;stroke-linecap:round;stroke-miterlimit:10;}
	.st4{fill:#1970B2;stroke:#0F5488;stroke-width:2;stroke-linecap:round;stroke-miterlimit:10;}
	.st5{fill:#2B94F3;}
	.st6{fill:#0F5488;}
	.st7{fill:#0F5488;stroke:#0F5488;stroke-width:2;stroke-linecap:round;stroke-miterlimit:10;}
	.st8{display:none;fill:#1970B2;stroke:#0F5488;stroke-width:2;stroke-linecap:round;stroke-miterlimit:10;}
	.st9{display:none;fill:#0F5488;stroke:#0F5488;stroke-width:2;stroke-linecap:round;stroke-miterlimit:10;}
	.st10{display:none;fill:#2B94F3;stroke:#0F5488;stroke-width:2;stroke-linecap:round;stroke-miterlimit:10;}
	.st11{fill:#2B94F3;stroke:#0F5488;stroke-width:2;stroke-linecap:round;stroke-miterlimit:10;}
	.st12{fill:#B6E5FF;stroke:#2B94F3;stroke-width:2;stroke-linecap:round;stroke-miterlimit:10;}
	.st13{fill:#1970B2;stroke:#0F5488;stroke-width:2;stroke-miterlimit:10;}
	.st14{fill:#2B94F3;stroke:#0F5488;stroke-width:2;stroke-miterlimit:10;}
	.st15{fill:#0F5488;stroke:#0F5488;stroke-width:2;stroke-miterlimit:10;}
	.st16{fill:#2B94F3;stroke:#0F5488;stroke-width:2;stroke-linecap:round;stroke-linejoin:round;stroke-miterlimit:10;}
	.st17{fill:#1970B2;stroke:#0F5488;stroke-width:2;stroke-linecap:round;stroke-linejoin:round;stroke-miterlimit:10;}
	.st18{opacity:0.27;}
	.st19{display:none;opacity:0.5;}
	.st20{display:none;}
	.st21{opacity:0.7;}
	.st22{fill:#2B94F3;stroke:#3D9DF4;stroke-width:2;stroke-linecap:round;stroke-linejoin:round;stroke-miterlimit:10;}
	.st23{fill:#1970B2;stroke:#3D9DF4;stroke-width:2;stroke-linecap:round;stroke-linejoin:round;stroke-miterlimit:10;}
	.st24{fill:#0F5488;stroke:#3D9DF4;stroke-width:2;stroke-linecap:round;stroke-linejoin:round;stroke-miterlimit:10;}

		.st25{opacity:0.51;fill:#0F5488;stroke:#3D9DF4;stroke-width:2;stroke-linecap:round;stroke-linejoin:round;stroke-miterlimit:10;enable-background:new    ;}
	.st26{opacity:0.43;}

		.st27{display:inline;fill:#E3DBEC;stroke:#8576A5;stroke-width:2;stroke-linecap:round;stroke-linejoin:round;stroke-miterlimit:10;}
	.st28{display:inline;fill:#B9A5C6;}

		.st29{display:inline;fill:#F4EEF9;stroke:#8576A5;stroke-width:2;stroke-linecap:round;stroke-linejoin:round;stroke-miterlimit:10;}
	.st30{display:inline;fill:#CDBED5;stroke:#B59FC4;stroke-width:2;stroke-linecap:round;stroke-miterlimit:10;}
	.st31{display:inline;fill:#F4EEF9;stroke:#876D9B;stroke-width:2;stroke-linecap:round;stroke-miterlimit:10;}
	.st32{display:inline;fill:#CDBED5;stroke:#876D9B;stroke-width:2;stroke-linecap:round;stroke-miterlimit:10;}
	.st33{display:inline;fill:#E3DBEC;stroke:#876D9B;stroke-width:2;stroke-linecap:round;stroke-miterlimit:10;}
	.st34{display:inline;}
	.st35{fill:#8576A5;}
	.st36{fill:#E3DBEC;}
	.st37{opacity:0.3;}
	.st38{opacity:0.17;}
	.st39{display:none;opacity:0.17;}
	.st40{display:none;fill:#B988CC;stroke:#AC71C2;stroke-width:2;stroke-miterlimit:10;}
	.st41{display:none;fill:#B179C5;stroke:#AC71C2;stroke-width:2;stroke-miterlimit:10;}
	.st42{display:none;fill:#9D58B7;stroke:#AC71C2;stroke-width:2;stroke-miterlimit:10;}
	.st43{display:none;fill:#D1B1DD;stroke:#BF92D0;stroke-width:2;stroke-miterlimit:10;}
	.st44{display:none;opacity:0.52;fill:#9D58B7;enable-background:new    ;}
	.st45{display:none;fill:#C49BD4;stroke:#AC71C2;stroke-width:2;stroke-miterlimit:10;}
	.st46{display:none;fill:#BF92D0;stroke:#AC71C2;stroke-width:2;stroke-miterlimit:10;}
	.st47{fill:#C49BD4;}
	.st48{fill:#B179C5;}
	.st49{fill:#D1B1DD;}
	.st50{display:none;fill:#C59CD5;stroke:#B683CA;stroke-width:2;stroke-miterlimit:10;}
	.st51{display:none;fill:#B988CC;stroke:#B179C5;stroke-width:2;stroke-miterlimit:10;}
	.st52{display:none;fill:#CAA5D8;stroke:#B785CA;stroke-width:2;stroke-miterlimit:10;}
	.st53{display:none;opacity:0.52;fill:#A362BB;enable-background:new    ;}
	.st54{display:none;fill:#D1B1DD;stroke:#B785CA;stroke-width:2;stroke-miterlimit:10;}
	.st55{fill:#BF92D0;}
	.st56{opacity:0.57;}
	.st57{display:none;opacity:0.57;}
</style>
<g>
	<defs>
		<rect id="SVGID_1_" width="4457.3" height="2729.6"/>
	</defs>
	<clipPath id="SVGID_2_">
		<use xlink:href="#SVGID_1_"  style="overflow:visible;"/>
	</clipPath>
	<g class="st0">

			<linearGradient id="SVGID_3_" gradientUnits="userSpaceOnUse" x1="3939.1543" y1="4285.8784" x2="972.3473" y2="1717.7722" gradientTransform="matrix(1 0 0 -1 0 4170.0586)">
			<stop  offset="0" style="stop-color:#000081"/>
			<stop  offset="1" style="stop-color:#B992FF"/>
		</linearGradient>
		<rect class="st1" width="4457.3" height="2729.6"/>
	</g>
</g>
<g id="sky">
	<path class="st2" d="M1258.6,2448.9c-26.8-64-32.6-138.5-6.4-202.7s87.1-115.5,156.2-121.1c20.7-1.7,42.2,0.5,61.5-7.1
		c21.6-8.5,36.8-27.7,54.1-43.2c66.2-59.3,176.1-61.8,245-5.6c24.5,20,43.8,46,68.7,65.6c24.9,19.6,59.1,32.3,88.3,20
		c14.6-6.2,26.2-17.8,39.4-26.6c30.7-20.3,71.7-24,105.6-9.6c35.9,15.2,70.1,49.9,107,37.4c49.8-16.9,43.2-99.4,89.7-124
		c31-16.4,71.2,1.2,103.2-13.2c18.5-8.4,30.9-26,46.6-38.9c42.1-34.6,120.9-24.8,155.8,17.1c268.1,322.5,169.6,108.6,224.4,218.8
		c51.5,103.7,200.3,253.2,163.3,363s-276.4,188.2-344.9,281.6c-87.5,119.2-196.8,236.2-341.4,267.3"/>
	<path class="st2" d="M3230.9,2571.2c-57-17.8-101.1-71.4-107.6-130.8s25.1-121.2,76.9-150.9c58.3-33.3,138.9-29.8,180.9-82.2
		c21.7-27,27.8-63.4,47.1-92.1c34.1-50.5,102.7-66.5,163.3-59.6c41.5,4.8,92.4,14.7,117.5-18.6c17.6-23.3,12.5-57.9,29-82.1
		c25.9-38.1,87.9-29.5,121-61.6c36.4-35.3,18.8-95,14.7-145.6c-10.1-125.5,90.6-243.6,212.5-275.3c121.9-31.7,273.6,11.3,370.9,91.1
		v880.7"/>
</g>
<g id="mountains">
	<path class="st3" d="M2655.2,2272.4c2.9,2.6,305.8,306.5,305.8,306.5l831.4-160.7l-81.1-130.5L3082,2176.1L2655.2,2272.4z"/>
	<polygon class="st4" points="3870.6,2070.7 3475.4,1975.5 3475.4,2030.8 3748.7,2177.5 	"/>
	<g>
		<polygon class="st5" points="3445.7,1958 3474.1,2030.4 3415.1,2065.7 3253.5,2075.5 		"/>
		<path class="st6" d="M3445.2,1959.5l27.7,70.5l-58,34.8l-157.4,9.5L3445.2,1959.5 M3446.2,1956.5l-196.6,120.2l165.9-10l59.9-35.9
			L3446.2,1956.5L3446.2,1956.5z"/>
	</g>
	<polygon class="st7" points="3310.5,2306.6 3748.7,2177.5 3475.4,2030.8 3415.4,2066.7 	"/>
	<polygon class="st4" points="3043.2,2256.8 3107.5,2181.4 2985.9,1993 2918.4,2208.3 	"/>
	<polygon class="st8" points="2853,2217.3 2911,2138 2751.4,2049.8 2724.4,2177.1 	"/>
	<polygon class="st9" points="2724.4,2177.1 2853,2217.3 2911,2138 	"/>
	<path class="st10" d="M2724.4,2177.1c1-2.1-193-53.2-193-53.2l220-74.1L2724.4,2177.1"/>
	<polygon class="st11" points="3107.5,2181.4 2960.7,2035.4 2954.6,2178.8 3043.2,2256.8 	"/>
	<polygon class="st12" points="2891.7,2236.7 3043.2,2256.8 2985.9,1993 2868.7,2218.7 	"/>
	<polygon class="st7" points="3107.5,2181.4 3415.4,2066.7 3310.5,2306.6 3043.2,2256.8 	"/>
	<polygon class="st7" points="3107.5,2181.4 3415.4,2066.7 3310.5,2306.6 	"/>
	<polygon class="st11" points="3107.5,2181.4 3415.4,2066.7 3249.5,2076.7 	"/>
	<path class="st4" d="M3045.2,2310"/>
	<path class="st7" d="M3851,2221"/>
	<path class="st7" d="M3851,2221"/>
	<polygon class="st7" points="3571,2201.5 3421.3,2115.2 3504.5,2251.4 	"/>
	<g>
		<polygon class="st13" points="4069,2152 3610.4,1965.8 3680,2085.7 		"/>
		<polygon class="st14" points="3680,2085.7 4048.3,2149.9 3675.4,2266.7 3412.5,2156 		"/>
		<polygon class="st15" points="3412.5,2156 3610.4,1965.8 3680,2085.7 		"/>
	</g>
	<polygon class="st11" points="3571,2201.5 3421.3,2115.2 3504.5,2251.4 	"/>
	<polygon class="st7" points="3504.5,2251.4 3421.3,2115.2 3310.5,2306.6 	"/>
	<polygon class="st7" points="3421.3,2115.2 3200.2,2238.1 3310.5,2306.6 	"/>
	<polygon class="st4" points="3791.9,2153.6 3585.8,2146.6 3876.8,2308 	"/>
	<polygon class="st16" points="3791.9,2153.6 3960.9,2085.9 3876.8,2308 	"/>
	<polygon class="st17" points="3856.4,2344.9 3960.9,2085.9 4342.7,2277 	"/>
	<polygon class="st11" points="3876.8,2308 3585.8,2146.6 3658.8,2400.6 	"/>
	<polygon class="st7" points="3658.8,2400.6 3585.8,2146.6 3310.5,2306.6 	"/>
	<path class="st7" d="M3620.6,2043.8"/>
	<path class="st7" d="M3620.6,2043.8"/>
	<g id="dither_x5F_circle.tif_26_" class="st18">
	</g>
	<g id="dither_x5F_circle.tif_27_" class="st19">
	</g>
	<g id="dither_x5F_circle.tif_28_" class="st20">
	</g>
	<g id="dither_x5F_circle.tif_1_" class="st21">
	</g>
	<g id="dither_x5F_circle.tif_2_" class="st21">
	</g>
	<polygon class="st7" points="2835.5,2035.4 2985.9,1993 2891.7,2236.7 2655.2,2272.4 	"/>
</g>
<g id="background_1_">
	<polygon class="st22" points="4047.8,2323.3 4437,2452.1 4336.8,3265.1 4096,2635.1 	"/>
	<g>
		<polygon class="st23" points="2882.3,2805.6 3882.2,2259.7 3864.8,2498.6 3406.3,2965.3 		"/>
		<polygon class="st24" points="4259.7,2949.8 4096,2628.8 3864.8,2498.6 3303.6,2732.7 		"/>
		<polygon class="st22" points="4047.8,2323.3 3882.2,2259.7 3864.8,2498.6 4096,2628.8 		"/>
		<polygon class="st25" points="4047.8,2323.3 4437,2481.5 4336.8,3135.9 4096,2628.8 		"/>
		<polygon class="st24" points="3966.7,2359.1 4457.3,2486.8 4457.3,2212 4380.9,2100.2 		"/>
	</g>
	<g id="dither_x5F_circle.tif_42_" class="st26">
	</g>
	<path class="st2" d="M2665.5,2654.8c4.3-20.2,27.8-30.2,48.7-32.1c20.9-2,43,0.6,61.9-8.4c30.1-14.3,43-53.5,74.6-63.9
		c27.8-9.1,58.6,8,87.2,1.5c27.8-6.4,45-32.8,65.7-52.1c50.5-47.3,129.1-54.9,196.6-37.9c39,9.8,76.9,27.5,104.3,56.5
		c23.8,25.2,39.5,58.6,69.2,76.9c44.5,27.6,104.2,12,153.3,30.4c47,17.6,76.8,63.3,95.3,109.2s29.6,95.1,55.8,137.3
		c22.2,35.8,54.8,65.7,70.4,104.7c26.5,66.2-3.8,143.9-55.2,193.9c-36.9,35.9-84.3,61.3-135,72.4c-67.9,14.8-138.8,4.1-206.3-12.3
		c-115.5-28-226.2-72.3-339.9-106.6c-44.3-13.4-89.5-25.3-135.8-26.6c-130.1-3.9-247.8,74.7-376.4,94.5"/>
	<path class="st2" d="M3771.7,2692.4c-12-23,8.7-50.5,31.9-62.2s50.7-16.3,69.5-34.2c16.5-15.7,23.5-39.1,39.3-55.4
		c48.5-49.9,143.6-6.1,197.4-50.3c33-27.1,36.4-75.9,58-112.6c18.2-30.8,48.8-52.3,80.3-69.2c51-27.4,112.4-45.6,166.3-24.7
		c48.4,18.7,80.8,65.3,99.7,113.5c35.1,89.5,32.4,193.2-7.4,280.8c-16.5,36.3-39.6,72.8-35.8,112.5c1.9,20.1,10.7,39,12.9,59
		c4.5,41.5-21.1,82.4-56.4,104.7s-78.6,28.6-120.4,27.5c-41.8-1.1-83-8.9-124.6-12.5c-102.1-8.9-208.7,6.9-304.4-29.4"/>
	<path class="st2" d="M3112.7,2695.4c-0.8-30.8,28.7-53.3,56.8-66.1c28.1-12.8,60.2-23.4,76-49.9c6.7-11.3,9.9-24.8,18.6-34.6
		c13-14.7,34.5-17.3,53.1-23.8c34.2-12,60.8-39.1,92.6-56.5c31.8-17.4,77-22.1,99.9,5.9c17.7,21.6,17.7,57.6,42.4,70.5
		c11.4,5.9,25,5,37.3,8.7c25.9,7.8,42.1,34.8,67.6,43.8c18.3,6.4,38.4,2.5,57.9,1.5c69.6-3.5,140.8,38,167.2,102.5
		s1.8,147.3-58.2,182.8c-18.3,10.8-38.8,17.2-59.5,22.2c-76.5,18.5-156,18.9-234.7,19.1"/>
	<g class="st20">
		<path class="st27" d="M2369.8,2904.9c41.6-7.1,70.1-52.4,80.1-90c10.1-37.8-0.6-78.6,13.9-115.6c7.1-18,19.6-32.7,29.8-48.9
			c8.6-13.6,11.5-25.9,15.5-41c8.2-31.2,37.7-46.1,53.7-71.9c10.4-16.8,14.9-48.7-14.3-45c-36.9,4.7-56,35.2-67.9,66.6
			c-5.2,13.6-11,26.9-18.8,39.3c-4,6.4-7.6,13.3-12.4,19.2c-5.5,6.7-12.3,11.6-17.1,18.9c-13.2,20.3-13.9,46.3-15,69.7
			c-1.6,35.9-7,69.9-20,103.8c-8.7,22.8-22.5,44.1-39.5,61.6c-8.7,9-17.1,18.3-28,24.8c-5.9,3.6-12.1,6.4-18.7,8.6
			c-19.5,6.5-33,13.4-50,25.8"/>
		<path class="st28" d="M2493.6,2650.4c-10.2,16.2-22.7,30.8-29.8,48.9c-5.7,14.4-7.5,29.4-8.2,44.6c-14.1,11-29.8,20.5-46.3,25.5
			c2.9-13,4.9-26.1,6.2-39.4c33.3-16.9,42.4-57.8,64.3-87.1c7.9-10.5,17.3-19.6,27.6-27.2
			C2504.1,2628.1,2500.9,2638.8,2493.6,2650.4z"/>
		<path class="st27" d="M2268.2,2896.8c30.9-15.9,61.7-38.3,77.4-70.4c14.6-30.1,17.9-66.3,36.2-94.1c18.5-28.3,50.9-44.1,71-71.6
			c14.5-19.9,16.3-44,25.5-66.6c10.7-26.3,43.5-41.1,51.2-68.3c9.2-32.8-40.3-13.7-52.3-5.2c-36.9,26-49.4,76.5-84.3,104.7
			c-15.5,12.6-34.3,21-48.5,35.3c-14.8,14.8-26.6,34.8-35,53.9c-15.4,35-28.9,71.7-52.2,102.4c-12.8,16.9-27.2,30.5-44.1,43.3
			c-12.7,9.6-26.1,17.9-40.7,24.4c-5.7,2.5-11.4,4.9-17.3,7c-17.1,6.1-29.6,14.6-43.6,26.3"/>
		<path class="st28" d="M2529.3,2525.9c-7.6,27.2-40.4,41.9-51.2,68.3c-5.3,12.9-8.1,26.4-12.3,39.3c-26.6,28.7-56.3,20.2-83.8,36.9
			c-13.3,7.9-20.9,22.4-30.8,35.8c-15.6,18.8-32.9,37.6-56.7,42.6c5-11.4,9.7-22.9,14.7-34.2c8.4-19,20.2-39.1,35-53.9
			c14.3-14.3,33-22.7,48.5-35.3c34.9-28.3,47.4-78.7,84.3-104.7C2489.1,2512.2,2538.6,2493.1,2529.3,2525.9z"/>
		<path class="st29" d="M2277,2892.9c23.4-2.5,45.2-8.7,66.6-18.8c23.9-11.3,36.4-29.3,49.3-51.3c9.1-15.6,18.8-31,32.3-43.3
			c11.4-10.4,24.8-13.6,38.7-18.8c23.1-8.6,41.9-32.6,50.4-55.3c4.3-11.6,7.7-21.5,14.1-32.1c8.9-14.7,19.5-22.6,32.4-33.4
			c9.6-8,37.7-36.3,26.3-50.5c-11.4-14.1-31.2,1.1-37.4,11.5c-6.1,10.2-13.5,20.1-22.3,28.3c-10.3,9.6-24,14.6-34.1,24.2
			c-19.3,18.2-20.3,47.1-39.6,65.7c-8,7.7-17.6,14.8-26.7,21.2c-8.2,5.8-17.5,8.2-26.1,13c-14.2,8.1-21.6,22.2-29.3,35.9
			c-10.2,18-27.1,34.4-43.3,47.1c-13,10.3-26.1,20.5-40.8,28.5c-42.9,23.3-92.4,19.4-139.9,19.5"/>
		<path class="st27" d="M2272.5,2522.2c21.3-7.4,28.1-36.2,29.7-55.4c0.9-10.9,4.6-20.2,10.7-29.2c5.3-7.8,12.9-14.1,16.8-22.8
			c6.3-13.7,8.5-35.7-10.9-38.8c-27.7-4.6-34.8,32.5-37.4,51.8c-2.3,17-8.8,38.7-18.7,53.1c-7.2,10.5-17.7,17.8-25.6,27.6
			c-12.3,15.5-17.4,39.2-20.6,58.2"/>
		<path class="st28" d="M2272.5,2522.2l-55.8,44.4c3.2-18.9,8.3-42.7,20.6-58.2c7.8-9.8,18.4-17.2,25.6-27.6c1.6-2.3,3-4.7,4.4-7.3
			c11.1,4.3,21.8,9.6,30.6,16.9C2293.6,2504.3,2285.9,2517.5,2272.5,2522.2z"/>
		<path class="st27" d="M2082.5,2671.9c-3.9-10.8,4.2-28.1,8.2-38c6.7-16.8,16.8-35,29.3-48.1c11.9-12.5,27.5-20.4,39.8-32.3
			c8.5-8.2,15.1-21.4,18.7-32.5c6.6-20.2,4.6-42.4,19.9-59.2c12.9-14.1,27-25,32-44.5c2.8-10.7,4.2-25.4,18.5-24.4
			c13,0.9,13.2,14.4,11.2,24.5c-3.4,17.4-13.5,32.9-26.3,44.9c-12.9,12.1-22.7,21.9-26,39.8c-3.9,21.4-7.6,38.9-22.2,56.2
			c-10.4,12.3-23.7,20.4-34.4,32.2c-15.8,17.4-29,44.3-34.4,66.4"/>
		<path class="st28" d="M2090.7,2633.8c6.7-16.8,16.8-35,29.3-48.1c12-12.5,27.5-20.4,39.8-32.3c8.5-8.2,15.1-21.4,18.7-32.5
			c4.4-13.3,5-27.6,9.3-40.6c11.1-3.7,23.2-5.8,34.9-7.2c-7.3,8.1-12.7,16.6-14.9,28.9c-3.9,21.4-7.6,38.9-22.2,56.2
			c-10.4,12.3-23.7,20.4-34.4,32.2c-15.8,17.4-29,44.3-34.4,66.4l-34.4,14.9C2078.7,2661.1,2086.8,2643.7,2090.7,2633.8z"/>
		<path class="st30" d="M1962,2691.6c-4.2-14.3-1.4-34.2,5.5-47.3c9.4-17.8,21.4-31,24.6-51.6c2.4-15.2,1.3-32.3,0.4-47.6
			c-0.9-16.4,2.6-33.5,10.7-48.1c5.7-10.3,16.3-21,29.2-15.9c7.5,3,10.3,10.6,9.4,18.1c-1.3,11.3-10.3,20.1-14.1,30.5
			c-5,13.6-3.7,24.8-2,38.8c2.4,19.8,1.4,38.6-8,56.6c-6.7,12.9-15,24.9-22.6,37.3c-13.1,21.3-18.4,40.7-15.6,66"/>
		<path class="st31" d="M2176.4,2910.3c44.1-11,80.8-46.2,99.4-87.8c12.2-27.2,17.3-59.9,33.3-85c17.3-27.2,42.7-41.2,67.1-60.3
			c10.8-8.5,21.9-17.1,30.9-27.6c8.8-10.2,14.2-22.8,20.3-34.6c11.6-22.7,33.4-35.6,53.9-49.6c43.1-29.3,96.3-76.9,102.2-131.9
			c1.3-12.5-1.3-28.4-16.2-30.7c-9.1-1.4-16.5,5-21.6,11.7c-7.9,10.4-13.1,23.5-18.9,35.2c-8.1,16.3-17.5,27.9-30.6,40.5
			c-26.1,25-63.6,36.1-85.4,65.3c-10,13.5-16.5,29-26.3,42.5c-10.1,14-22.3,26.7-36.5,36.5c-15.8,11-33.1,21.2-46.9,34.8
			c-17.9,17.7-28.6,45-38.6,67.8c-13.6,30.8-25.8,60.5-48.9,85.9c-16,17.6-37,31.6-56.7,44.9c-12.4,8.3-25.4,15.3-37.1,24.7
			c-17,13.7-26.6,29.4-36.5,48.7"/>
		<path class="st27" d="M1832.7,2805.2c-1.2-50,38.6-99.8,75.7-129.8c19.3-15.6,44.5-21.8,64-37.4c16.3-13.1,32.2-31.6,42.5-49.7
			c8.5-14.9,13.9-30.5,24.6-44.2c10.3-13.2,24.1-18.7,39.8-22.8c19.5-5.1,34.1-14.9,46.9-30.2c6.8-8.1,20.1-18.8,24.3-2.3
			c3.9,15.2-10.5,31.9-21.2,40c-11.4,8.7-23.2,16.6-36.2,22.7c-11.1,5.2-23.2,8.9-32.5,17.1c-8.3,7.3-15.3,17.4-20.3,27.2
			c-14,27.7-23.5,59.6-50.7,78.5c-11.6,8.1-26.3,14.2-39.1,20.3c-12.7,6.1-21,13.9-29.5,25.1c-14.3,18.9-22,40.1-30.5,62
			c-6.2,15.8-10.5,32.8-19.3,47.4c-15,24.9-42.9,33.7-60.6,55.4"/>
		<path class="st28" d="M2093.4,2551.4c-0.1,0.1-0.2,0.1-0.3,0.2c-6.6,3.1-13.6,5.7-20.2,9c-0.4-11.6-5-23.3-12.2-32.9
			c5.8-2.7,12-4.6,18.6-6.3c4.3-1.1,8.4-2.5,12.3-4.1C2091.6,2528.7,2092.3,2540.1,2093.4,2551.4z"/>
		<path class="st30" d="M2075.1,2632.3c4.6-8,14.8-13.2,20-21.6c6.9-11.2,9.9-26.5,10-39.6c0.2-22.8-7.8-41-0.4-63.8
			c5.7-17.7,18.3-30.9,26.3-47.3c4.9-10,12.8-29.7,1.4-38.9c-19-15.3-18.9,22.8-22.5,31.9c-9.7,24.2-28,42-30.5,69.1
			c-1.7,17.6,5.2,31.4,6.3,48.4c0.7,10.1-2.1,19.6-5.3,29.1c-6.9,20.8-25.5,27.1-42.4,39.7"/>
		<path class="st28" d="M1885.2,2852.6c0.3-5.2-2.5-10.3-2.5-16c-0.2-13.3,0.9-27.7,4.9-40.4c6.7-20.9,18.6-37.7,34-53.1
			c10.2-10.3,22.8-17.9,30.4-30.7c8.9-14.9,14.6-31.9,20.6-48.1c6.3-16.9,17.4-36.4,31.6-47.8c16.8-13.4,40.6-13.6,59-3.9
			c27.9,14.7,31.1,57.9,30.6,85.3c-0.5,27.2-7.5,52.2-22.3,75.2c-28.1,43.8-72.1,67-115.7,93.4"/>
		<path class="st27" d="M1852.3,2846.5c1.7-6.1-0.2-13,1.3-19.7c3.4-15.9,8.5-32.8,16.8-46.8c13.6-23.1,32.3-39.9,54.8-54.1
			c15-9.5,32-15.2,44.5-28.4c14.6-15.4,26-34.1,37.5-51.8c12-18.4,30.5-38.7,50.6-48.4c23.6-11.5,52-5.3,71.3,11.3
			c29.3,25.1,21.4,77.4,13.5,109.9c-7.9,32.3-23,60.2-46.9,83.6c-45.3,44.6-93.9,86.4-152.9,106.1"/>
		<path class="st32" d="M1965.9,2989.4c54.8-15.2,29.2-90.8,36-130.3c11.6-66.7,77.6-101.7,103.3-161.9c11.3-26.4,14.5-55.2,18-83.3
			c3.4-26.8,13.2-52.2,27.7-75.1c15.8-25,44-48.9,74.7-52c42.2-4.3,80.9,15.4,96.6,55.5c14.1,36,3.8,73.2-13.5,105.9
			c-21.6,40.6-58,69.7-77,112.4c-18.8,42.4-33.9,86-55.4,127.1c-11.9,22.7-26.2,44.6-43.7,63.4c-27.2,29.1-67,36.1-102.9,49.8"/>
		<path class="st28" d="M2174.3,2846.4c12.9-0.5,29-14.3,36.8-26.2c11.5-17.7,16.6-35.5,19.6-57.5c3.3-23.8,15.9-35.7,31.2-48.6
			c18.5-15.7,35-34.6,40.1-62.7c2.5-13.7,2.7-27.2,8.3-39.8c5.6-12.5,13.6-22.9,19-35.7c4.4-10.3,7.1-27.3,2.5-38.2
			c-5-11.9-16.2-16-26.4-14.7c-29.5,3.6-46.2,37.5-52.8,69.5c-3.1,15.2-5.1,31.8-11.8,45.3c-7.2,14.4-17.1,26.9-22.6,42.6
			c-5.9,17-5.5,34.4-9.7,51.7c-4.3,17.8-10,33.2-21,46.3c-11.4,13.6-18,28.5-25.9,45.1c-4.6,9.6-10.2,20.4-17.9,26.7
			c-12.2,9.9-26.1,51.9-39.3,59.2"/>
		<path class="st33" d="M2173,2907c23.3-0.8,75.5-58.6,89.7-76.4c21-26.3,16.3-64.6,21.9-97.5c6.1-35.5,29-53.2,56.7-72.5
			c33.6-23.4,63.6-51.5,72.9-93.5c4.5-20.4,4.9-40.5,15.1-59.3c10.1-18.6,24.8-34.2,34.6-53.2c7.9-15.4,13-40.7,4.7-56.8
			c-9.1-17.6-29.3-23.8-47.8-21.9c-53.4,5.5-83.8,55.9-95.9,103.6c-5.7,22.6-9.2,47.3-21.5,67.4c-13.1,21.5-31.1,40.1-41,63.5
			c-10.7,25.3-10,51.3-17.7,77c-7.9,26.5-18.2,49.4-38.1,68.9c-20.6,20.3-32.6,42.5-47.1,67.2c-8.4,14.4-18.5,30.4-32.5,39.8
			c-22.1,14.8-49.5,18.4-73.5,29.3"/>
		<g class="st34">
			<g>
				<path class="st35" d="M2111.4,2918.3c6.1-1.9,11.7-5.2,17-8.7c6.9-4.6,13.4-9.7,19.6-15.1c14.2-12.5,27.5-26.1,39.7-40.6
					c9.9-11.8,19.4-24.1,25.4-38.4c8.1-19.4,12.6-40.2,19.5-60c3.2-9.2,6.8-18.4,12-26.6c6.5-10.2,14.6-19.1,21.7-28.9
					c7.3-10.1,12.3-20.9,15.4-33c3.2-12.6,5-25.6,10.3-37.6c9.2-20.7,27.4-35.2,43.3-50.6c8.1-7.9,15.7-16.2,22.2-25.5
					c7.1-10.1,13-21,18.4-32.1c20-40.8,34.8-89.5,74.9-115.6c4.6-3,9.4-5.6,14.5-7.7c1.3-0.5,0.7-2.7-0.6-2.1
					c-43,17.9-63,63.5-80.9,103.3c-10.1,22.4-20.6,45.1-36.8,63.9c-14.4,16.8-32.8,29.9-46.5,47.5c-7.1,9.2-12.1,19.3-15.3,30.5
					c-3.5,12.3-5.2,25.1-9.8,37.1c-8.4,22-27.9,37.1-38.1,58.1c-9.1,18.8-13.7,39.5-20.1,59.3c-3,9.2-6.1,18.5-10.7,27
					c-3.3,6.1-7.3,11.9-11.5,17.4c-11.1,14.7-23.6,28.6-36.7,41.5c-11.9,11.7-24.7,23.8-39.3,32.2c-2.5,1.5-5.1,2.8-7.9,3.8
					C2110.8,2917.8,2111,2918.5,2111.4,2918.3L2111.4,2918.3z"/>
			</g>
		</g>
		<g class="st34">
			<g>
				<path class="st35" d="M2281.8,2842.4c13-5.9,24.8-14.9,33.5-26.3c8.8-11.7,15.1-25.2,18.7-39.4c2.2-8.8,3.6-17.9,6.6-26.5
					c2.6-7.6,6.3-14.8,10.9-21.3c4.7-6.7,10.4-12.7,16.7-17.9c6.6-5.5,13.8-10.2,20.9-15.1c6.6-4.6,13.2-9.3,19-14.9
					c5.5-5.2,10.7-11.4,13.8-18.4c0.8-1.7,1.4-3.5,1.9-5.3c0.3-1.2-1.3-1.5-1.8-0.5c-6.1,14.7-18.1,25.4-30.9,34.4
					c-13.6,9.6-28,18.3-38.6,31.5c-4.9,6.2-9.1,13-12.2,20.3c-3.4,7.9-5.4,16.2-7.2,24.7c-1.7,7.7-3.5,15.3-6.4,22.7
					c-2.7,6.7-6,13.2-10,19.3c-7.7,11.8-17.9,23-30.5,29.8c-1.6,0.9-3.2,1.7-4.9,2.4C2281,2842,2281.4,2842.6,2281.8,2842.4
					L2281.8,2842.4z"/>
			</g>
		</g>
		<g class="st34">
			<g>
				<path class="st36" d="M2037,2874.4c-0.3-30.4,21.7-55.9,43.3-74.6c11.8-10.2,24.4-19.6,36-30.1c11.4-10.2,21.5-21.7,29.5-34.8
					c8-13.1,13.8-27.5,17.3-42.4c3.9-16.7,5-33.9,8.1-50.8c2.8-15.5,7.7-30.5,15-44.5c6.9-13.2,15.8-25,26.1-35.8
					c9.4-9.8,19.6-18.9,28.9-28.7c8.8-9.3,17-19.5,21.9-31.5c1.2-3,2.1-6.2,2.8-9.4c0.2-0.9-1.1-1.2-1.3-0.4
					c-4.2,12.7-11.3,24-20.1,34.1c-8.9,10.2-19,19.3-28.7,28.8c-10.3,10.1-19.6,21-27.1,33.4c-7.9,13-13.8,27.2-17.5,42
					c-4.1,16.7-5.3,33.9-8.2,50.8c-2.7,15.8-7.4,31.1-14.8,45.3c-7.2,13.7-16.6,26-27.7,36.7c-11.4,11.1-24.1,20.6-36.2,30.8
					c-21.8,18.2-44,40.8-47.1,70.6C2036.8,2867.4,2036.7,2871,2037,2874.4C2036.7,2874.6,2037,2874.6,2037,2874.4L2037,2874.4z"/>
			</g>
		</g>
		<g class="st34">
			<g>
				<path class="st35" d="M2121.6,2606.4c-11.9,0.1-22.7,7.3-30.6,15.8c-7.6,8.3-12.9,18.3-17.2,28.6c-4.4,10.5-8,21.4-12.4,31.9
					c-4.4,10.7-9.8,20.8-17.2,29.7c-14.5,17.5-34.1,29.7-52.7,42.3c-9.5,6.4-18.8,13-27.5,20.5c-8.9,7.8-16.9,16.5-24.1,26
					c-7.1,9.4-13.3,19.5-18.4,30.2c-5.1,10.6-9.3,21.8-12,33.3c-0.6,2.8-1.1,5.6-1.5,8.4c-0.1,0.9,1.4,1.1,1.6,0.2
					c3-11.4,5.9-22.7,10.4-33.6c4.5-10.9,10.2-21.3,16.9-31c6.7-9.7,14.4-18.5,22.9-26.6c8.3-7.8,17.4-14.6,26.8-21.1
					c18.4-12.8,38-24.4,53.7-40.6c7.7-8,14.1-17.1,19-27c5-10.1,8.7-20.8,12.7-31.4c4-10.5,8.3-21,14.6-30.3
					c6.5-9.7,15.3-18.4,26.5-22.2c2.7-0.9,5.6-1.5,8.5-1.8C2122.4,2607.7,2122.5,2606.4,2121.6,2606.4L2121.6,2606.4z"/>
			</g>
		</g>
	</g>
	<g id="dither_x5F_circle.tif_44_" class="st37">
	</g>
	<g id="dither_x5F_circle.tif_45_" class="st38">
	</g>
	<g id="dither_x5F_circle.tif_46_" class="st39">
	</g>
	<path class="st40" d="M2325.9,3004c-2.6-15.4-1.2-31.6,6.2-45.5c5.2-9.8,10.2-18.7,11.9-29.9c1.4-9-0.3-18.3-0.1-27.5
		c0.4-20.6,4.9-37.7,16.3-54.8c4.9-7.4,9.2-14.8,11.2-23.5c1.4-6.2,1.6-12.9,4.1-18.9c3.4-8.2,12-14,18.8-5.5
		c6.9,8.7-0.4,23.9-4.1,32.7c-5.4,12.6-13.2,24.4-15.3,38c-1.8,12.1,0.6,24.7-2,36.5c-3.7,16.8-10.7,31-9.3,48.8
		c1.1,15.2,4.7,30,5.5,45.3"/>
	<path class="st41" d="M2318.5,2985c5.9-17.7,5.8-32.7,4.5-51c-1.1-15.1,1.1-31.5,10.8-43.8c5.1-6.5,14.5-10.2,22.1-5.6
		c9.1,5.5,6.7,15.7,3.2,23.8c-5.1,11.8-4.5,24.2-4.5,36.8c0,13.9-3.6,26.7-8.6,39.6"/>
	<path class="st40" d="M2365.9,2976.6c4.2-14,5.6-28.3,7.7-42.7c4.6-31.2,25.1-46.6,38.1-73.4c11.1-22.8,8.8-52.6,22.9-73.7
		c7.4-11,30-26,41.4-14.1c11.4,12-5.8,23-13.1,31.9c-13.2,16.2-9,35.2-14.9,53.7c-7.5,23.6-28.8,39.1-39.6,61
		c-18.7,38-5.7,80.3-14.6,120.2"/>
	<path class="st42" d="M2393.8,3039.5c7.8-34.9-1.2-71.7,8.9-105.7c-12.2,5-22.9,12.6-32.3,21.8c-1.1,7.1-2.5,14.1-4.6,21.1"/>
	<path class="st40" d="M2402.8,2933.8c1.5-4.9,3.3-9.7,5.6-14.5c10.8-21.9,32-37.4,39.6-61c5.9-18.5,1.8-37.5,14.9-53.7
		c7.2-8.9,24.5-19.9,13.1-31.9c-11.4-11.9-34,3.2-41.4,14.1c-14.1,21.1-11.8,50.9-22.9,73.7c-13.1,26.8-33.5,42.2-38.1,73.4
		c-1.1,7.2-2,14.4-3.1,21.6C2379.9,2946.4,2390.6,2938.8,2402.8,2933.8z"/>
	<path class="st41" d="M2360.3,3012.8c9-23.2,21.3-42.7,38.3-60.7c15.7-16.5,37-25.6,52.3-42.3c26.1-28.4,31.3-68.6,56.6-98.1
		c13.3-15.4,31.5-25,45-39.9c12.4-13.7,22.4-31.1,28.9-48.4c11.6-30.3,19.1-63,51.4-78.3c15.4-7.3,39.6-10.7,41.9,11.6
		c2.1,20.8-22,39.1-26.4,59.4c-5.1,23-6.4,48.9-17.8,69.9c-15.3,28.2-42.9,47.3-49.9,79.9c-6.1,28.6-4.3,57.8-9.3,86.5
		c-14.8,84.5-79.1,141-141.6,194.9"/>
	<path class="st43" d="M2383,2992.6c0-19.5,3.2-43.9,10.3-62.2c7.2-18.4,16.9-34,30.5-48.3c12.5-13.1,29.4-20.4,41.6-33.7
		c20.7-22.6,24.9-54.6,45-78.1c10.5-12.3,25.1-19.9,35.8-31.8c9.9-10.9,17.8-24.8,23-38.5c9.2-24.1,15.2-50.1,40.9-62.3
		c12.3-5.8,31.5-8.5,33.3,9.2c1.7,16.6-17.5,31.1-21,47.2c-4,18.3-5.1,38.9-14.2,55.6c-12.2,22.4-34.2,37.6-39.7,63.6
		c-4.9,22.7-3.4,46-7.4,68.9c-11.7,67.2-63,112.2-112.7,155.1"/>
	<path class="st44" d="M2487.4,3099.6c42.5-41.1,78.5-87.2,89-147.7c5-28.7,3.2-58,9.3-86.5c6.6-30.7,31.5-49.5,47.2-75.1
		c-46.2,17.3-84,50.6-99.8,104.9c-2.3,8.8-9.9,15.1-16,20.6c-31.3,29.5-75.3,53.3-73.6,100.9"/>
	<path class="st45" d="M2502.8,2983.2c44-25.7,62.6-68.5,88.5-110.6c30.7-49.8,79.2-97,130.7-124.6c28.4-15.2,80.4-29.5,103.7,1.3
		c20.1,26.7-20.5,54.7-36.3,72.1c-13.2,14.6-23,28.1-27.9,47.5c-4.2,16.8-9.3,32.6-19.8,46.7c-31.5,42.2-79.5,65.7-107.3,110.5"/>
	<path class="st46" d="M2643.3,3027c11.1-30.4,23.5-53.4,51-71.7c12.1-8.1,20.5-16.6,29.1-28.2c8.4-11.3,12.2-24.9,20.6-36.1
		c12.4-16.6,36.7-36.4,57.8-24.8c18.3,9.9,19.9,30.6,14.2,48.6c-9.6,30.4-32.7,50.8-55.9,71.3"/>
	<g class="st20">
		<g class="st34">
			<path class="st47" d="M2670.6,2649c-27.3,6.8-43.4,34.2-52.4,58.8c-10.7,29.4-15.7,61.9-37.3,86c-19.3,21.5-46.5,34.6-64.2,57.7
				c-9.8,12.8-15.2,28-21,42.8c-3,7.6-6.2,15.1-10.3,22.2c-3.7,6.4-8,12.3-12.8,18c-19,22.5-43.7,39.3-63.3,61.3
				c-2.4,2.7-4.8,5.6-7,8.5c-0.7,0.9,0.6,2.2,1.3,1.3c18.2-23.3,42.8-40.2,63.1-61.5c10.2-10.7,19-22.5,25.3-36
				c6.8-14.6,11.3-30.2,19.1-44.3c14.5-26.1,41.5-40.3,62.8-59.9c11.1-10.3,19.8-22.3,26.1-36.1c6.5-14.4,10.6-29.7,15.3-44.8
				c8.2-26.4,20.1-55,45.9-68.7c3.1-1.7,6.3-3,9.7-4.1C2671.4,2649.7,2671.2,2648.8,2670.6,2649L2670.6,2649z"/>
		</g>
	</g>
	<g class="st20">
		<g class="st34">
			<path class="st48" d="M2826.4,2756.4c-1.3-0.5-2.6-1.1-4-1.3c-1.7-0.2-3.3-0.3-5-0.2c-3.1,0.2-6.1,1-8.9,2.1
				c-6.1,2.4-11.5,6.4-16,11.1c-10.1,10.6-15,24.7-21.5,37.5c-3,5.9-6.5,11.6-10.8,16.8c-3.6,4.4-7.8,8.3-12.2,11.9
				c-9,7.3-19.2,13-29.6,18c-21.3,10.3-43.9,18.1-63.5,31.6c-10,6.9-18.7,15.3-26.2,24.8c-7.7,9.9-14,20.8-19.8,31.9
				c-11.7,22.6-21.2,46.4-35.6,67.5c-1.8,2.6-3.6,5.2-5.6,7.7c-0.6,0.7,0.5,1.8,1,1c15.7-19.9,25.9-43.3,37-65.9
				c11-22.2,23.5-44.4,43.1-60.2c18.3-14.8,40.8-23.1,62-32.8c20.6-9.4,41.4-20.5,54.8-39.5c8.4-12,12.9-26.1,20.5-38.6
				c6.7-11.2,17.3-21.3,30.7-23.1c1.6-0.2,3.2-0.3,4.8-0.2s3.1,0,4.7,0.2C2826.5,2756.8,2826.6,2756.5,2826.4,2756.4L2826.4,2756.4z
				"/>
		</g>
	</g>
	<g class="st20">
		<g class="st34">
			<path class="st49" d="M2802.3,2873c0.7,6.3,0,12.6-2.2,18.5c-2.3,6.1-5.9,11.8-10.1,16.8c-8.3,9.9-19,17.2-28.7,25.5
				c-4.7,4.1-9.3,8.5-13.1,13.4c-2.6,3.4-5,7-7.4,10.5c-5.9,8.2-11.9,16.4-17.7,24.7c-3.2,4.7-6.4,9.4-9.4,14.2
				c-2.4,3.8-4.7,7.7-6.5,11.8c-0.4,0.9,1,1.8,1.4,0.8c3.9-8.1,9.2-15.6,14.3-23c5.9-8.6,12.1-17,18.2-25.5c2.3-3.2,4.6-6.4,6.8-9.7
				c3.7-5.3,8.2-10,13-14.3c9.6-8.6,20.5-15.9,29.1-25.6c8.9-10.1,17-24.5,12.7-38.4C2802.6,2872.7,2802.2,2872.8,2802.3,2873
				L2802.3,2873z"/>
		</g>
	</g>
	<path class="st50" d="M2348,2527.3c4.2-18.5,19.6-39,35.3-49.3c21.4-14,42.9-21.3,59.3-42.2c12-15.4,21.4-35.2,29.9-52.8
		c9.1-18.9,23.6-35.7,41.6-46.9c12.8-7.9,31.2-13.3,42.3,0.3c6.5,8,4.9,18.1-0.7,25.9c-8.5,11.8-23.8,16-34.6,25.3
		c-14,12.1-19.4,25.3-26.2,42c-9.5,23.5-22.3,43.8-43.8,58c-15.5,10.2-32.1,18.5-48.2,27.6c-27.7,15.6-45.7,33.9-58.1,63.8"/>
	<path class="st50" d="M2567.1,2621.6c5.3-10.3,17.7-20.2,28.6-23.9c14.9-5,28.8-6,41.8-16c9.6-7.3,18.2-17.6,26-26.8
		c8.4-9.8,19.5-17.6,32-21.5c8.8-2.7,20.6-3.1,25.1,6.7c2.6,5.8,0.1,11.5-4.4,15.3c-6.9,5.7-16.7,5.8-24.5,9.7
		c-10.2,5-15.5,12-22.1,20.9c-9.3,12.5-20.1,22.6-35,27.7c-10.8,3.7-21.9,6.1-32.9,9c-18.9,5-32.4,13.1-44.4,29"/>
	<path class="st51" d="M2311.6,2817c-30-56.2-13.1-135.6,12-190.8c13.1-28.8,38.2-50.2,51.4-79c11-24.2,18.5-54.3,19.9-80.8
		c1.1-21.8-1.6-42.6,2.8-64.3c4.2-20.8,16.8-35.1,32.3-48.7c19.3-16.9,30.3-36.5,36.1-61.2c3.1-13.1,12.1-32.9,26.3-16.4
		c13,15,6.2,42.3-1.3,57.6c-8,16.4-16.9,32.1-28.2,46.5c-9.7,12.3-21.4,23.4-27.2,38.1c-5.2,13-7.5,28.5-7.6,42.5
		c-0.2,39.5,7.3,81.2-12.9,118.2c-8.6,15.8-21.9,31.2-32.9,45.5c-11,14.2-16,27.8-19.2,45.5c-5.5,29.6-2.1,58.2,0.7,88
		c2,21.5,6.7,43.3,5.1,64.9c-2.8,36.9-29.6,62.8-37.4,97.6"/>
	<path class="st40" d="M2322.5,2985.5c53.2-7.1,91.5-63.4,106-110.8c14.6-47.7,2.8-100,23-146.4c9.8-22.6,26.4-40.6,40.1-60.8
		c11.6-16.9,15.8-32.4,21.6-51.5c11.9-39.3,50-56.9,71.6-89c14-20.9,21.3-61.3-16.2-57.9c-47.1,4.3-72.9,42.2-89.5,81.5
		c-7.2,17.1-15.3,33.7-25.7,49.1c-5.4,8-10.3,16.6-16.7,23.9c-7.2,8.3-16.2,14.2-22.6,23.2c-17.8,25.3-19.9,58.2-22.3,88
		c-3.7,45.5-12.2,88.6-30.2,131.1c-12.1,28.6-30.7,55-53,76.6c-11.5,11.1-22.6,22.5-36.7,30.3"/>
	<path class="st44" d="M2491.7,2667.5c-13.8,20.2-30.3,38.2-40.1,60.8c-7.9,18.1-10.9,37.1-12.5,56.4
		c-18.5,13.3-38.9,24.6-60.1,30.3c4.2-16.4,7.4-33,9.7-49.8c43.2-20,56.6-71.6,85.8-107.8c10.6-12.9,22.9-24.1,36.4-33.4
		C2506.1,2639.6,2501.6,2653,2491.7,2667.5z"/>
	<path class="st40" d="M2193.7,2970.5c40-18.7,80.3-45.9,101.7-85.9c20-37.6,25.9-83.5,50.4-118c24.9-35.1,66.8-53.7,93.6-87.7
		c19.4-24.7,22.7-55.2,35.5-83.5c14.8-33,57.2-50.3,68.2-84.5c13.3-41.4-50.6-19.3-66.3-9.1c-48.2,31.4-66.3,95-112.1,129.3
		c-20.3,15.3-44.5,25.1-63.4,42.6c-19.5,18.2-35.5,43.1-47,66.9c-21.1,43.8-40,89.8-71.1,127.8c-17.1,20.9-36,37.5-58.2,53
		c-16.6,11.6-34.1,21.6-52.9,29.2c-7.3,3-14.8,5.7-22.3,8.1c-22,7-38.3,17.2-56.6,31.4"/>
	<path class="st44" d="M2542.9,2510.8c-11,34.2-53.4,51.5-68.2,84.5c-7.3,16.2-11.5,33.2-17.4,49.4c-35.2,35.3-72.5,23-108.2,43.1
		c-17.3,9.4-27.7,27.5-40.9,44.1c-20.7,23.2-43.6,46.3-74.1,51.6c6.8-14.3,13.5-28.7,20.3-42.8c11.5-23.8,27.5-48.7,47-66.9
		c18.8-17.6,43-27.4,63.4-42.6c45.7-34.3,63.9-97.9,112.1-129.3C2492.4,2491.5,2556.2,2469.5,2542.9,2510.8z"/>
	<path class="st41" d="M2308.6,2814.6c23.8-1.7,46.1-7.2,68-16.6c24.6-10.5,37.9-28.3,51.7-50.1c9.8-15.5,20.2-30.7,34.2-42.6
		c11.9-10.1,25.5-12.9,39.8-17.6c23.7-7.8,43.6-31.5,53.1-54.1c4.8-11.6,8.5-21.4,15.5-32c9.6-14.6,20.6-22.2,34-32.6
		c10-7.7,39.5-35.3,28.4-50.1c-11-14.7-31.6-0.1-38.3,10.2c-6.6,10.1-14.4,19.8-23.6,27.8c-10.8,9.4-24.8,13.9-35.4,23.2
		c-20.2,17.8-22.3,46.9-42.5,65.1c-8.4,7.5-18.4,14.3-27.8,20.5c-8.5,5.6-18,7.6-26.9,12.2c-14.7,7.6-22.7,21.7-31,35.3
		c-11,17.9-28.7,33.9-45.5,46.1c-13.6,9.9-27.2,19.8-42.3,27.3c-44.3,22-94.2,16.2-142.3,14.6"/>
	<path class="st52" d="M2274.2,2423.5c27.4-8.4,37.5-44.8,40.4-69.1c1.6-13.8,6.8-25.5,15-36.7c7.1-9.7,17-17.3,22.5-28.2
		c8.6-17.2,12.4-45-12-49.9c-35.1-7.1-45.8,39.7-50,64.2c-3.7,21.5-13,48.9-26.2,66.6c-9.6,13-23.4,21.8-33.8,34
		c-16.4,19.1-23.9,49.1-28.9,73"/>
	<path class="st44" d="M2274.2,2423.5l-73,53.9c5-23.9,12.5-53.9,28.9-73c10.4-12.2,24.2-21,33.8-34c2.1-2.8,4-5.9,5.9-9.1
		c13.9,6,27.2,13.2,38.1,23C2301.9,2401.8,2291.5,2418.2,2274.2,2423.5z"/>
	<path class="st52" d="M2025.7,2605.1c-4.4-13.9,6.7-35.6,12.2-48c9.3-21.1,23-43.7,39.6-59.8c15.8-15.3,36-24.7,52.2-39.2
		c11.2-10,20.2-26.5,25.3-40.4c9.4-25.3,7.8-53.7,28.1-74.4c17-17.4,35.4-30.6,42.7-55.1c4-13.5,6.5-32.1,24.7-30.2
		c16.6,1.7,16.1,19,13.1,31.7c-5.2,21.9-18.7,41.2-35.6,55.9c-17,14.7-29.9,26.8-34.9,49.5c-6,27.1-11.5,49.1-30.8,70.4
		c-13.7,15.1-31.1,24.8-45.2,39.3c-20.9,21.5-38.9,55-46.9,82.9"/>
	<path class="st53" d="M2037.9,2557.2c9.3-21.1,23-43.7,39.6-59.8c15.8-15.3,36-24.7,52.2-39.2c11.2-10,20.2-26.5,25.3-40.4
		c6.2-16.8,7.6-34.9,13.7-51.2c14.3-4.2,29.8-6.3,44.8-7.5c-9.7,9.9-16.9,20.5-20.3,36.1c-6,27.1-11.5,49.1-30.8,70.4
		c-13.7,15.1-31.1,24.8-45.2,39.3c-20.9,21.5-38.9,55-46.9,82.9l-44.4,17.4C2021.3,2591.2,2032.4,2569.6,2037.9,2557.2z"/>
	<path class="st50" d="M1871.5,2624.6c-4.6-18.3-0.2-43.6,9.1-59.9c12.7-22.2,28.6-38.4,33.7-64.5c3.8-19.2,3.1-41.1,2.7-60.6
		c-0.4-21,4.8-42.5,15.9-60.7c7.8-12.9,21.7-26,37.9-18.9c9.4,4.2,12.6,13.9,11.1,23.4c-2.2,14.3-14,25.1-19.4,38.2
		c-7,17.1-5.9,31.4-4.3,49.3c2.2,25.2,0,49.2-12.8,71.6c-9.2,16.1-20.2,31-30.5,46.5c-17.6,26.5-25.3,50.9-22.9,83.2"/>
	<path class="st52" d="M1999,3010.6c56.6-11.9,104.9-55.1,130.4-107.1c16.7-34,24.8-75.4,46.3-106.6c23.2-33.8,56.3-50.4,88.2-73.6
		c14.2-10.3,28.7-20.8,40.6-33.7c11.6-12.5,19.2-28.3,27.5-43.1c15.9-28.3,44.2-43.8,70.9-60.5c56.2-35.3,126-93.3,136.1-163
		c2.3-15.9-0.3-36.1-19.2-39.8c-11.5-2.2-21.2,5.6-28,13.9c-10.6,12.9-17.8,29.2-25.7,43.9c-11,20.4-23.6,34.7-40.8,50.1
		c-34.3,30.6-82.6,42.9-111.7,79.1c-13.4,16.7-22.3,36.1-35.4,52.8c-13.5,17.3-29.6,32.9-48.1,44.8c-20.6,13.2-43.1,25.4-61.2,42.1
		c-23.6,21.7-38.4,56-52.3,84.5c-18.7,38.6-35.6,75.8-66.2,107c-21.2,21.7-48.6,38.5-74.2,54.5c-16.1,10-33,18.3-48.3,29.8"/>
	<path class="st51" d="M1781.3,2663c0.7-63.7,53.7-125.2,102.3-161.6c25.3-18.9,57.7-25.6,83.1-44.6c21.3-15.9,42.4-38.7,56.3-61.2
		c11.5-18.5,19.1-38.1,33.4-55.1c13.7-16.3,31.6-22.7,51.7-27.2c25-5.6,44.1-17.4,61.1-36.3c9-10,26.4-23,31-1.7
		c4.2,19.5-14.9,40.1-28.8,49.9c-14.9,10.5-30.2,20-47.1,27.2c-14.4,6.1-30,10.2-42.2,20.3c-10.8,8.9-20.3,21.4-27.1,33.6
		c-19.1,34.6-32.7,74.7-68.2,97.5c-15.2,9.7-34.1,16.8-50.7,24.1c-16.5,7.2-27.4,16.7-38.7,30.6c-19,23.4-29.8,50-41.7,77.5
		c-8.6,19.8-14.9,41.2-26.7,59.4c-20.2,31-56.2,40.8-79.7,67.6"/>
	<path class="st44" d="M2045,2452.4c-0.1,0.1-0.3,0.1-0.4,0.2c-8.6,3.7-17.6,6.6-26.1,10.5c0-14.7-5.2-29.9-14-42.4
		c7.5-3.1,15.5-5.3,23.9-7.2c5.5-1.2,10.8-2.8,15.8-4.6C2043.9,2423.4,2044.2,2438,2045,2452.4z"/>
	<path class="st45" d="M2097.7,2454.3c6.2-10,19.5-16.1,26.4-26.6c9.2-13.9,13.8-33.3,14.5-49.9c1.4-29-8-52.5,2.4-81.2
		c8.1-22.3,24.8-38.5,35.6-58.9c6.7-12.5,17.7-37.2,3.6-49.4c-23.5-20.3-25.1,28.2-30.2,39.5c-13.5,30.4-37.5,52.2-42,86.5
		c-2.9,22.3,5.2,40.2,5.8,61.9c0.4,12.9-3.6,24.9-8,36.7c-9.7,26.1-33.7,33.3-55.7,48.5"/>
	<path class="st44" d="M1772,2754.4c9.4-26.2,25.4-47.1,45.7-66c13.5-12.6,29.8-21.7,40.1-37.6c12-18.5,20-40,28.4-60.2
		c8.8-21.2,23.8-45.5,42.5-59.3c22-16.3,52.2-15.4,75.2-2.2c34.8,20.1,36.8,75.1,34.9,109.9c-1.9,34.6-12,66-31.9,94.6
		c-37.8,54.4-94.8,81.9-151.5,113.4"/>
	<path class="st54" d="M1750.7,2732.9c18.3-28.7,43-49.3,72.2-66.3c19.5-11.4,41.4-17.9,57.9-34c19.2-18.9,34.6-42.2,50.1-64.1
		c16.2-22.8,40.6-47.8,66.6-59.3c30.6-13.5,66.4-4.3,90.2,17.6c36.1,33.3,23.7,99.4,12,140.4c-11.6,40.7-32.1,75.5-63.5,104.2
		c-59.7,54.6-123.4,105.6-199.4,127.9"/>
	<path class="st46" d="M1862.6,3003.7c70.4-16.8,41.3-114.1,51.9-164.1c17.8-84.3,103.4-125.7,138.9-201.2
		c15.5-33,21-69.6,26.8-105.1c5.5-34,19.2-65.8,38.7-94.2c21.3-31.1,58.3-60.2,97.4-62.7c53.8-3.5,102.3,23.3,120.4,75
		c16.2,46.4,1.5,93.3-22.1,134c-29.4,50.7-77.1,86-103.2,139.5c-25.9,53-47.1,107.8-76.4,159.1c-16.1,28.3-35.4,55.5-58.6,78.6
		c-36,35.7-86.9,42.8-133.2,58.6"/>
	<path class="st44" d="M2134.3,2831.4c16.4-0.1,37.5-16.8,48-31.7c15.5-22,22.7-44.4,27.6-72.3c5.3-30.2,21.9-44.7,42-60.4
		c24.3-19.1,46.2-42.4,54-77.9c3.8-17.3,4.6-34.5,12.4-50.3c7.6-15.6,18.4-28.5,25.9-44.5c6-12.9,10.3-34.4,5-48.4
		c-5.8-15.3-19.9-21.1-32.9-20c-37.7,3.3-60.5,45.5-70.4,86c-4.7,19.1-7.9,40.2-17.1,57c-9.8,18-23,33.4-30.7,53.2
		c-8.2,21.3-8.5,43.5-14.7,65.3c-6.4,22.4-14.3,41.7-28.8,57.9c-15.1,16.8-24.2,35.5-35.1,56.2c-6.4,12.1-13.9,25.5-24,33.1
		c-15.9,12-35.6,64.8-52.7,73.5"/>
	<path class="st45" d="M2039.9,3016.3c29.7,0,98.8-71,117.7-93.1c27.9-32.5,23.7-81.5,32.3-123c9.3-44.9,39.3-66.3,75.5-89.6
		c43.8-28.2,83.3-62.6,97.1-115.5c6.7-25.7,8.1-51.3,21.9-74.8c13.7-23.2,33.1-42.3,46.5-66.1c10.8-19.2,18.4-51.2,8.6-72.1
		c-10.7-22.9-36.2-31.6-59.7-30c-68.2,4.5-109.2,67.2-126.8,127.3c-8.3,28.4-13.9,59.8-30.4,84.7c-17.7,26.7-41.4,49.6-55.1,78.9
		c-14.7,31.7-15.1,64.8-26,97.2c-11.3,33.4-25.5,62-51.7,85.9c-27.2,24.8-43.5,52.6-63,83.3c-11.4,17.9-24.9,37.8-43.2,49.1
		c-28.8,17.8-63.9,21.1-94.9,33.9"/>
	<g class="st20">
		<g class="st34">
			<path class="st48" d="M1961.1,3027.7c7.8-2.2,15.1-6.2,21.9-10.5c9.1-5.7,17.8-12.1,26.1-18.9c18.6-15.2,36-32,52.1-49.9
				c13.1-14.6,25.7-29.9,33.9-47.8c11-24.1,17.7-50,27.2-74.7c4.5-11.6,9.6-23.3,16.7-33.6c8.8-12.7,19.7-23.8,29.2-36
				c9.4-12.2,16-25.3,20.4-40c4.7-15.7,7.6-32,14.6-46.9c12.4-26,36-43.8,57-62.5c10.9-9.8,21.2-20.1,30.1-31.8
				c9.4-12.3,17.4-25.7,24.7-39.3c27.5-51.2,48.5-112.7,100.9-144.5c6.1-3.7,12.6-6.9,19.3-9.4c1-0.4,0.6-2-0.5-1.7
				c-55.9,20.9-83.2,78.7-107.9,128.6c-13.8,28.1-28.5,56.3-50,79.4c-19.3,20.7-43.4,36.5-61.3,58.5c-9.2,11.3-15.7,23.8-20.1,37.6
				c-4.9,15.6-7.7,31.9-14.4,47c-11.9,27.1-36.8,45.1-50.6,71c-12.4,23.3-19.2,49.3-28.1,74c-4.3,11.9-8.8,23.8-15.2,34.8
				c-4.5,7.7-9.9,14.8-15.5,21.6c-14.8,18.2-31.3,35.2-48.7,51c-15.8,14.4-32.6,29-51.6,39c-3.4,1.8-6.9,3.3-10.5,4.5
				C1960.6,3027.2,1960.7,3027.8,1961.1,3027.7L1961.1,3027.7z"/>
		</g>
	</g>
	<g class="st20">
		<g class="st34">
			<path class="st47" d="M2271.1,2831.2c16.8-6.9,31.9-18,43.4-32.1c11.6-14.3,20.1-30.9,25.3-48.5c3.3-11.1,5.4-22.6,9.5-33.5
				c3.6-9.6,8.7-18.7,14.8-26.9c6.3-8.4,13.8-15.8,22.1-22.2c8.7-6.7,18.1-12.4,27.4-18.3c8.7-5.5,17.3-11.3,25.1-18.2
				c7.3-6.4,14.1-14,18.5-22.7c1-2.1,1.9-4.3,2.7-6.4c0.3-0.7-1-1.3-1.3-0.5c-8.1,18.6-24,31.7-40.6,42.6
				c-9.1,6-18.5,11.5-27.5,17.8c-8.6,6-16.5,12.8-23.3,20.7c-6.5,7.6-12.1,16.1-16.4,25.2c-4.8,10-7.6,20.6-10.3,31.4
				c-2.5,9.7-5.3,19.3-9.3,28.4c-3.7,8.4-8.3,16.4-13.6,23.8c-10.5,14.7-24.1,28-40.3,36.1c-2.1,1-4.2,2-6.4,2.9
				C2270.6,2830.8,2270.8,2831.3,2271.1,2831.2L2271.1,2831.2z"/>
		</g>
	</g>
	<g class="st20">
		<g class="st34">
			<path class="st49" d="M1958.3,2860.7c0.6-38.7,29.3-70.1,57.7-93c15.8-12.7,32.5-24.2,48-37.3c15-12.5,28.3-26.7,39-43.1
				c10.6-16.2,18.6-34,23.6-52.7c5.7-21,7.9-42.8,12.6-64c4.3-19.7,11.2-38.6,21.2-56.1c9.5-16.6,21.5-31.4,35.2-44.6
				c12.4-11.9,25.6-22.9,37.8-34.9c11.6-11.5,22.7-24.2,29.4-39.3c1.6-3.7,2.9-7.4,4-11.3c0.2-0.7-0.8-0.9-1.1-0.3
				c-11.6,33.3-39.8,55-64.8,78c-13.5,12.4-25.9,25.8-36,41.1c-10.6,16.1-18.8,33.9-24.1,52.5c-6,20.8-8.3,42.4-12.7,63.5
				c-4.1,20-10.7,39.3-20.8,57.1c-9.8,17.3-22.5,32.7-37.2,46c-14.9,13.5-31.5,25.1-47.4,37.4c-28.8,22.2-58.3,50.2-63.9,88.1
				c-0.6,4.2-0.9,8.5-0.9,12.8C1958.1,2860.8,1958.3,2860.8,1958.3,2860.7L1958.3,2860.7z"/>
		</g>
	</g>
	<g class="st20">
		<g class="st34">
			<path class="st55" d="M2078.3,2524c-15-0.2-28.9,8.3-39.2,18.7c-10,10.2-17.2,22.8-23.3,35.8c-6.1,13.2-11.2,26.9-17.3,40.1
				c-6.1,13.2-13.4,25.8-23.1,36.7c-19.4,21.7-45.1,36.4-69.5,51.8c-12.3,7.7-24.4,15.6-35.7,24.7c-11.7,9.4-22.3,20.2-31.8,31.8
				c-18.7,23-33.4,50-41.2,78.7c-1,3.5-1.8,7.1-2.5,10.7c-0.1,0.8,1,1.1,1.2,0.3c3.9-14.4,8.4-28.7,14.7-42.3
				c6.2-13.6,13.9-26.5,22.8-38.5s19.1-23,30.3-32.9c11-9.7,23.1-18.1,35.4-26c23.9-15.3,49.3-29.2,69.9-49
				c10.2-9.8,18.7-21,25.4-33.5c6.8-12.6,11.9-26,17.5-39.2c5.5-13.1,11.5-26.2,19.9-37.8c8.7-12.1,20.5-22.9,35-27.2
				c3.7-1.1,7.4-1.7,11.2-1.9C2079,2525,2079,2524,2078.3,2524L2078.3,2524z"/>
		</g>
	</g>
	<g id="dither_x5F_circle.tif_9_" class="st56">
	</g>
	<g id="dither_x5F_circle.tif_8_" class="st57">
	</g>
	<path class="st2" d="M-254.5,2184.1c17.4-22,99.1-26.6,160-20.9s122,17.4,183.2,12.1c49.7-4.3,86.8-18.8,124.8-31.2
		c118.1-38.7,302.9-61.7,434.3-29.2c88.2,21.8,134.7,64.4,235.2,77.2c89.2,11.4,187.3-5.2,281.2-1.6c88.8,3.4,169.7,26.4,200.3,57
		c27.2,27.1,19.8,60.5,75.8,80.9c56.5,20.6,152.9,18.3,216.1,36.2c111.5,31.5,57.4,103.2,156.1,140c80.8,30.1,225.8,22.6,314,49.8
		c92.6,28.5,92.1,85.5,192.1,110.4c51.5,12.8,119,14,173.3,25.2c73.6,15.1,111.3,45.9,134.6,75.5c39.4,49.9,52,102.6,37,154.2
		c-761.6-9.8-1523,24.2-2285,20.5c-167.8-0.8-471.9-2-633.2-18.8"/>
	<polygon class="st24" points="2649.6,2274.8 2891.7,2236.7 2985.9,1993 2918.4,1864.7 	"/>
</g>
</svg>
