<?xml version="1.0" encoding="utf-8"?>
<!-- Generator: Adobe Illustrator 25.2.3, SVG Export Plug-In . SVG Version: 6.00 Build 0)  -->
<svg version="1.1" xmlns="http://www.w3.org/2000/svg" xmlns:xlink="http://www.w3.org/1999/xlink" x="0px" y="0px"
	 viewBox="0 0 2569.1 1546.95" style="enable-background:new 0 0 2569.1 1546.95;" xml:space="preserve">
<style type="text/css">
	.st0{fill:#F4EEF9;}
	.st1{opacity:0.61;fill:#FCF9FC;stroke:#E3DBEC;stroke-width:2;stroke-linecap:round;stroke-miterlimit:10;}
	.st2{fill:#FCF9FC;stroke:#E3DBEC;stroke-width:2;stroke-linecap:round;stroke-miterlimit:10;}
	.st3{fill:#F4EEF9;stroke:#E3DBEC;stroke-width:2;stroke-linecap:round;stroke-miterlimit:10;}
	.st4{fill:#CDBED5;stroke:#CDBED5;stroke-width:2;stroke-linecap:round;stroke-miterlimit:10;}
	.st5{opacity:0.59;fill:#E3DBEC;}
	.st6{fill:#F4EEF9;stroke:#CDBED5;stroke-width:2;stroke-linecap:round;stroke-miterlimit:10;}
	.st7{fill:#E3DBEC;stroke:#CDBED5;stroke-width:2;stroke-linecap:round;stroke-miterlimit:10;}
	.st8{fill:#D7CFE2;stroke:#CDBED5;stroke-width:2;stroke-linecap:round;stroke-linejoin:round;stroke-miterlimit:10;}
	.st9{fill:#E3DBEC;stroke:#CDBED5;stroke-width:2;stroke-linecap:round;stroke-linejoin:round;stroke-miterlimit:10;}
	.st10{fill:#E3DBEC;stroke:#8576A5;stroke-width:2;stroke-linecap:round;stroke-linejoin:round;stroke-miterlimit:10;}
	.st11{fill:#F4EEF9;stroke:#CDBED5;stroke-width:2;stroke-linecap:round;stroke-linejoin:round;stroke-miterlimit:10;}
	.st12{fill:#CDBED5;stroke:#8576A5;stroke-width:2;stroke-linecap:round;stroke-linejoin:round;stroke-miterlimit:10;}
	.st13{fill:#F4EEF9;stroke:#8576A5;stroke-width:2;stroke-linecap:round;stroke-linejoin:round;stroke-miterlimit:10;}
	.st14{fill:#048EA5;stroke:#2C2F78;stroke-width:2;stroke-miterlimit:10;}
	.st15{fill:#1F1D86;stroke:#2C2F78;stroke-width:2;stroke-miterlimit:10;}
	.st16{fill:#206683;stroke:#2C2F78;stroke-width:2;stroke-miterlimit:10;}
	.st17{fill:#1F1D86;}
	.st18{fill:#2A9EC3;stroke:#2C2F78;stroke-width:2;stroke-miterlimit:10;}
	.st19{fill:#206683;}
	.st20{fill:#299DC2;}
	.st21{opacity:0.51;fill:#CDBED5;stroke:#8576A5;stroke-width:2;stroke-linecap:round;stroke-linejoin:round;stroke-miterlimit:10;}
</style>
<g id="sky">
	<rect x="-43.66" y="-39.68" class="st0" width="2627.76" height="1348.56"/>
	<path class="st1" d="M767.01,0c71.82-16.93,55.27-59.03,88.96,6.62c37.08,72.25,17.26,159.09,22.22,240.15
		c2.64,43.16,12.65,85.86,29.47,125.7c11.06,26.2,26.3,52.46,51.16,66.28c46.14,25.67,112.71,2.06,150.74,38.68
		c23.98,23.09,27.95,63.83,56.5,80.96c16.13,9.67,36.08,9.12,54.65,12.08c63.32,10.07,112.01,62.34,142.96,118.49
		c53.18,96.51,67.4,217.78,21.5,317.95c-34.81,75.96-101.34,134.76-177.1,170c-75.76,35.24-160.33,48.36-243.88,48.99
		c-202.85,1.51-405.99-71.28-559.58-203.81S148.93,698.02,127.79,496.27s39.7-411.49,168.06-568.58"/>
	<path class="st2" d="M427.55-62.88c-19.06,37.32-8.17,87.4,24.67,113.43c20.88,16.56,48.37,23.58,68.05,41.54
		c33.71,30.77,34.54,82.25,39.52,127.62c6.71,61.09,30.37,126.98,85.08,154.98c32.6,16.68,73.47,18.32,99.86,43.71
		c39.07,37.58,28.03,109.55,69.79,144.11c11.33,9.38,25.45,14.83,37.05,23.88c51.33,40.05,33.39,129.2,80.7,173.92
		c24.25,22.93,59.97,28.36,88.7,45.34c67.09,39.67,81.12,134.25,57.94,208.66c-25.42,81.63-86.93,150.84-164.06,187.72
		s-168.66,41.48-249.85,14.68c-71.21-23.51-133.24-69.56-185.76-123.08C377.73,990.16,306.9,851.47,305.69,706.52"/>
	<path class="st3" d="M-63.8,61.39C-21.26,6.62,40.74-35.05,109.54-43.83S252.95-24.77,291.8,32.68
		c11.62,17.18,20.35,36.97,36.44,50.04c18.03,14.65,42.19,18.43,64.19,25.87c84.24,28.51,140.45,122.97,125.33,210.61
		c-5.39,31.23-18.57,60.75-23.37,92.07s0.95,67.37,26.02,86.75c12.57,9.72,28.38,14.02,42.53,21.26
		c32.78,16.76,56.19,50.62,60.3,87.2c4.36,38.73-8.95,85.59,20.1,111.57c39.17,35.03,107.78-11.19,152.05,17.12
		c29.53,18.88,33.93,62.62,62.19,83.35c16.39,12.03,37.83,14.08,56.79,21.42c50.84,19.7,78.65,75.54,87.81,129.29
		c19.47,114.19-26.38,233.96-106.37,317.74c-79.99,83.79-190.69,133.92-304.46,155.69c-113.77,21.77-231.08,16.88-346.11,3.15
		c-146.82-17.53-302.47-55.24-400.6-165.85"/>
	<path class="st2" d="M1447.75,1240.48c-57.03-17.82-101.11-71.44-107.57-130.84s25.06-121.24,76.93-150.91
		c58.28-33.34,138.86-29.83,180.91-82.17c21.65-26.95,27.77-63.41,47.12-92.06c34.11-50.52,102.75-66.52,163.31-59.56
		c41.47,4.76,92.36,14.67,117.52-18.63c17.63-23.34,12.49-57.91,28.96-82.08c25.95-38.05,87.91-29.5,120.99-61.55
		c36.43-35.3,18.81-95.05,14.74-145.61c-10.09-125.53,90.64-243.61,212.52-275.29c121.88-31.67,168.54-4.68,265.92,75.17v881.06"/>
	<path class="st1" d="M1992.15-35.93c-37.94-12.18-83.55,11.4-95.54,49.41c-5.67,17.97-4.74,38.21-14.41,54.38
		c-9.08,15.18-26.04,24.17-35.83,38.9c-25.12,37.83,6.85,93.63-16.47,132.6c-7.19,12.02-19.11,21.12-24.16,34.19
		c-5.05,13.07,3.05,32.52,16.87,30.22c11.92-1.99,16.48-17.89,27.73-22.29c6.29-2.46,13.34-0.81,20.09-1.01
		c35.44-1.07,53.17-50.35,88.36-54.72c9.72-1.21,19.46,1.32,29.17,2.63c42.27,5.71,86.98-13.59,111.83-48.25
		c25.48-35.54,30.03-83.26,57.23-117.5c39.31-49.49,111.98-55.69,163.92-91.71c32.29-22.39,62.62,18.96,84.92-13.38
		c23.13-33.55,38.95,36.35,62.08,2.81"/>
	<path class="st2" d="M1483.42,471.49c32.11-17.98,59.13-17.05,86.25-15.1c15.59,1.12,30.71,6.31,46.33,7.03
		c40.13,1.87,75.4-25.31,104.15-53.37c9.8-9.57,20.42-19.97,34.01-21.67c13.59-1.7,29.21,11.21,24.31,24.01
		c-3.84,10.05-16.46,12.78-25.32,18.89c-22.01,15.19-18.36,48.68-30.79,72.36c-7.15,13.62-19.67,23.82-26.83,37.43
		c-10.53,20.01-8.03,44.26-14.23,66c-8.24,28.9-33.08,52.43-62.39,59.08c-14.41,3.27-29.71,2.77-43.48,8.12
		c-21.69,8.43-35.35,29.41-52.28,45.38c-35.14,33.15-88.98,44.97-134.77,29.58c-19.74-6.63-38.02-17.88-58.54-21.42
		c-32.43-5.6-64.85,8.84-93.16,25.63c-25.13,14.91-51.56,32.66-80.67,30.07c-30.59-2.73-54.38-27.15-82.81-38.76
		c-23.71-9.69-50.47-10.19-75.56-5.05c-12.5,2.56-24.86,6.49-37.62,6.72c-12.76,0.23-26.5-4.04-33.74-14.55
		c-7.24-10.51-4.54-27.76,7.28-32.57c7.38-3.01,16.18-0.78,23.43-4.09c7.77-3.55,11.49-12.27,17.17-18.64
		c16.86-18.89,47.94-14.91,69.42-28.32c24.98-15.61,32.76-52,59.85-63.56c16.17-6.9,35.15-2.87,51.83-8.4
		c24.83-8.22,37.9-34.41,54.33-54.77c28.5-35.33,71.92-61.75,117.31-62.71C1396.09,457.36,1437.19,499.75,1483.42,471.49"/>
</g>
<g id="mountains">
	<g>
		<path class="st4" d="M767.01,1011.71c2.93,2.63,305.78,306.45,305.78,306.45l831.36-160.72l-81.14-130.47l-629.29-111.6
			L767.01,1011.71z"/>
		<polyline class="st5" points="524.48,868.89 683.56,803.52 934.44,897.93 1173.19,805.21 1276.25,866.73 1575.14,770.86 
			2029.91,783.71 2103.35,853.57 2240.72,756.84 2391.38,836.75 2629.39,719.62 2805.77,1053.83 1299.22,1086.13 522.1,1224.76 
			505.8,914.71 524.48,868.89 		"/>
		<polygon class="st6" points="1982.36,809.97 1557.98,695.81 1587.15,770.08 1860.51,916.83 		"/>
		<polygon class="st7" points="1361.35,816.02 1557.98,695.81 1587.15,770.08 1527.25,806.01 		"/>
		<polygon class="st4" points="1422.32,1045.9 1860.51,916.83 1587.15,770.08 1527.25,806.01 		"/>
		<polygon class="st8" points="485.25,824.95 643.19,863.2 630.42,993.5 444.33,879.11 		"/>
		<polygon class="st7" points="818.86,1011.27 842.4,881.99 1067.68,822.27 1030.2,947.59 		"/>
		<polygon class="st6" points="1154.99,996.08 1219.35,920.68 1067.68,822.27 1030.2,947.59 		"/>
		<polygon class="st6" points="630.42,993.5 643.19,863.2 863.18,789.1 836.15,916.35 		"/>
		<polygon class="st6" points="964.78,956.57 1022.78,877.28 863.18,789.1 836.15,916.35 		"/>
		<polygon class="st4" points="836.15,916.35 964.78,956.57 1022.78,877.28 		"/>
		<path class="st7" d="M836.15,916.35c1.03-2.15-192.96-53.16-192.96-53.16l219.99-74.1L836.15,916.35"/>
		<polygon class="st4" points="910.14,899.81 1042.49,864.65 1066.41,918.09 980.5,958.01 		"/>
		<polygon class="st7" points="1219.35,920.68 1042.49,864.65 1066.41,918.09 1154.99,996.08 		"/>
		<polygon class="st4" points="1003.54,976.01 1154.99,996.08 1066.41,918.09 980.5,958.01 		"/>
		<polygon class="st4" points="1219.35,920.68 1527.25,806.01 1422.32,1045.9 1154.99,996.08 		"/>
		<polygon class="st4" points="1219.35,920.68 1527.25,806.01 1422.32,1045.9 		"/>
		<polygon class="st7" points="1219.35,920.68 1527.25,806.01 1361.35,816.02 		"/>
		<polygon class="st9" points="862.53,840.19 620.56,927.47 785.4,912.97 		"/>
		<polygon class="st8" points="862.53,840.19 880.89,920.96 785.4,912.97 		"/>
		<polygon class="st6" points="862.53,840.19 880.89,920.96 1157.02,1049.27 		"/>
		<polygon class="st7" points="700.28,1016.15 880.89,920.96 785.4,912.97 		"/>
		<polygon class="st8" points="683.28,1021.19 880.89,920.96 1157.02,1049.27 		"/>
		<polygon class="st6" points="1157.02,1049.27 880.89,920.96 841.13,1065.48 		"/>
		<polygon class="st10" points="1148.28,1330.49 759.85,944.22 685.09,1046.25 644.11,1354.03 1073.55,1370.56 		"/>
		<path class="st4" d="M1962.82,960.28"/>
		<path class="st4" d="M1962.82,960.28"/>
		<polygon class="st4" points="1682.77,940.76 1533.08,854.5 1616.34,990.74 		"/>
		<g>
			<polygon class="st6" points="2180.83,891.3 1722.22,705.14 1791.8,824.97 			"/>
			<polygon class="st7" points="1791.8,824.97 2160.14,889.21 1787.2,1006.03 1524.29,895.25 			"/>
			<polygon class="st4" points="1524.29,895.25 1722.22,705.14 1791.8,824.97 			"/>
		</g>
		<polygon class="st7" points="1682.77,940.76 1533.08,854.5 1616.34,990.74 		"/>
		<polygon class="st4" points="1616.34,990.74 1533.08,854.5 1422.32,1045.9 		"/>
		<polygon class="st4" points="1533.08,854.5 1311.96,977.36 1422.32,1045.9 		"/>
		<polygon class="st6" points="1903.73,892.87 1697.59,885.91 1988.61,1047.35 		"/>
		<polygon class="st9" points="1903.73,892.87 2072.73,825.15 1988.61,1047.35 		"/>
		<polygon class="st11" points="1968.17,1084.23 2072.73,825.15 2454.53,1016.28 		"/>
		<polygon class="st7" points="1988.61,1047.35 1697.59,885.91 1770.56,1139.86 		"/>
		<polygon class="st4" points="1770.56,1139.86 1697.59,885.91 1422.32,1045.9 		"/>
		<path class="st4" d="M1732.43,783.05"/>
		<path class="st4" d="M1732.43,783.05"/>
		<polygon class="st12" points="431.21,856.62 759.85,944.22 685.09,1046.25 387.87,912.54 		"/>
	</g>
</g>
<g id="background_1_">
	<polygon class="st12" points="-84.76,587.08 287.7,684.69 416.14,941.56 333.3,1150.91 -128.42,1172.74 	"/>
	<polygon class="st10" points="-30.43,113.23 385.21,608.73 252.13,719.29 -44.77,651.72 	"/>
	<polygon class="st13" points="430,899.24 385.21,608.73 252.13,719.29 354.49,925.51 	"/>
	<polygon class="st10" points="430,899.24 572.18,1004.49 333.3,1150.91 354.49,925.51 	"/>
	<polygon class="st13" points="815.31,1395 572.18,1004.49 333.3,1150.91 570.26,1491.26 	"/>
	<path class="st2" d="M-139.79,923.41c6.35-22.02,36.15-26.58,58.35-20.89c22.2,5.69,44.5,17.35,66.8,12.09
		c18.12-4.27,31.66-18.78,45.5-31.22c43.06-38.7,110.44-61.67,158.36-29.18c32.15,21.8,49.11,64.35,85.78,77.18
		c32.52,11.37,68.28-5.18,102.54-1.59c32.37,3.39,61.88,26.42,73.04,56.99c9.91,27.14,7.2,60.49,27.63,80.93
		c20.62,20.63,55.75,18.29,78.8,36.17c40.67,31.54,20.94,103.17,56.93,139.96c29.45,30.1,82.32,22.61,114.51,49.77
		c33.75,28.47,33.6,85.49,70.06,110.4c18.79,12.84,43.39,14,63.21,25.19c26.84,15.15,40.57,45.92,49.09,75.54
		c14.35,49.89,18.97,102.56,13.51,154.19c-277.72-9.82-555.34,24.16-833.21,20.47c-61.17-0.81-123.01-3.56-181.83-20.34"/>
	<g>
		<path class="st14" d="M2289.29,1084.7c32.85-18.98,42.74-66.12,39.44-100.99c-3.31-35.08-25.12-66.15-24.45-101.91
			c0.33-17.44,6.29-33.67,9.84-50.56c2.99-14.19,1.59-25.46,0.23-39.47c-2.81-28.86,17.37-50.67,22.8-77.46
			c3.54-17.45-2.62-45.77-26.16-33.46c-29.63,15.5-36.27,47.24-36.52,77.41c-0.11,13.12-0.9,26.16-3.54,39.02
			c-1.37,6.7-2.25,13.65-4.46,20.12c-2.51,7.35-6.78,13.64-8.5,21.29c-4.79,21.3,2.7,43.39,9.15,63.5
			c9.86,30.76,15.93,61.2,15.62,93.86c-0.21,21.96-5.21,44.24-14.02,64.34c-4.54,10.36-8.74,20.79-15.84,29.71
			c-3.88,4.87-8.19,9.21-13.04,13.12c-14.42,11.6-23.7,21.62-34.14,37.41"/>
		<path class="st15" d="M2314.12,831.23c-3.56,16.89-9.52,33.12-9.84,50.56c-0.26,13.94,2.9,27.17,7.04,40.2
			c-8.47,13.7-18.78,26.59-31.09,36.01c-1.65-11.86-4.06-23.54-7.11-35.19c22.81-24.71,17.71-62.05,26.99-93.55
			c3.43-11.32,8.48-21.94,14.81-31.63C2316.02,809.07,2316.68,819.08,2314.12,831.23z"/>
		<path class="st14" d="M2201.05,1109.59c21.09-23.04,40.12-51.64,43.26-83.58c2.95-29.95-5.62-61.57,1.08-90.73
			c6.8-29.64,29.18-53.1,37.5-82.57c6.03-21.35-0.03-42.23,0.66-64.13c0.81-25.56,23.86-48.29,21.82-73.59
			c-2.47-30.61-38.26,1.03-45.75,11.95c-23.01,33.53-17.74,79.95-38.38,114.71c-9.18,15.47-22.35,28.4-29.93,44.95
			c-7.85,17.14-11.56,37.72-12.66,56.4c-2.01,34.34-1.94,69.5-12.02,102.73c-5.54,18.26-13.4,34.23-23.71,50.33
			c-7.73,12.07-16.46,23.29-26.72,33.35c-3.99,3.91-8.12,7.72-12.4,11.31c-12.51,10.48-20.41,21.59-28.54,35.81"/>
		<path class="st15" d="M2305.37,714.98c2.04,25.3-21.01,48.03-21.82,73.59c-0.4,12.56,1.42,24.79,1.91,36.97
			c-13.45,32.57-41.17,34.61-59.12,57.37c-8.74,10.8-10.68,25.44-14.84,39.85c-7.28,20.74-16.03,42.03-34.55,53.69
			c0.63-11.17,1.06-22.36,1.71-33.45c1.09-18.68,4.81-39.26,12.66-56.4c7.58-16.56,20.75-29.48,29.93-44.95
			c20.64-34.76,15.37-81.19,38.38-114.71C2267.12,716.01,2302.9,684.37,2305.37,714.98z"/>
		<path class="st16" d="M2207.23,1103.57c18.97-9.42,35.43-21.51,50.29-36.66c16.65-16.98,21.54-36.12,25.53-58.66
			c2.84-16.02,6.17-32.01,13.69-46.61c6.34-12.3,16.62-19.24,26.75-27.97c16.8-14.48,25.18-40.65,25.24-62.46
			c0.03-11.12-0.24-20.5,1.87-31.52c2.92-15.2,9.36-25.2,16.89-38.28c5.59-9.71,20.49-42.42,6.37-50.8
			c-14.07-8.35-26,10.66-28.01,21.4c-1.96,10.5-5.15,21.19-9.96,30.81c-5.67,11.33-15.68,19.83-21.22,31.06
			c-10.58,21.43-2.42,46.1-12.82,67.84c-4.32,9.04-10.25,17.96-15.86,26.25c-5.06,7.47-12.21,12.37-17.93,19.16
			c-9.46,11.26-11.27,25.51-13.51,39.51c-2.95,18.38-12.13,37.55-21.77,53.3c-7.8,12.74-15.61,25.5-25.48,36.78
			c-28.94,33.08-71.92,45.28-111.92,60.19"/>
		<path class="st14" d="M2087.46,792.13c15.62-12.89,12.42-39.36,7.76-56.03c-2.65-9.48-2.44-18.5-0.08-28.04
			c2.04-8.24,6.45-15.93,7.09-24.5c1.01-13.55-4-32.75-21.32-29.38c-24.83,4.83-19.25,38.3-15.39,55.44
			c3.4,15.07,4.65,35.44,0.85,50.62c-2.77,11.08-9.39,20.54-12.93,31.3c-5.57,16.92-2.38,38.55,0.82,55.52"/>
		<path class="st17" d="M2087.46,792.13l-33.2,54.93c-3.2-16.97-6.39-38.6-0.82-55.52c3.54-10.76,10.16-20.23,12.93-31.3
			c0.6-2.4,1.06-4.94,1.42-7.55c10.7,0.2,21.34,1.26,31.12,4.73C2099.68,770.48,2097.32,784,2087.46,792.13z"/>
		<path class="st16" d="M1878.47,1032.18c-7.98-10.73-11.89-28.44-10.19-41.63c2.33-17.96,8.34-32.82,4.64-51.25
			c-2.73-13.57-9.03-27.68-14.54-40.34c-5.91-13.59-8.29-29.08-5.99-43.94c1.62-10.5,7.2-22.85,19.66-22.53
			c7.28,0.18,11.97,5.71,13.57,12.33c2.41,9.95-2.39,20.16-2.36,30.18c0.04,13.05,4.62,22.08,10.47,33.38
			c8.24,15.91,13.25,32.16,10.95,50.23c-1.65,13.01-4.82,25.73-7.38,38.57c-4.39,22.07-2.82,40.12,7.5,60.55"/>
		<path class="st16" d="M2143.08,1110.89c33.8-23.08,53.68-64.28,56.39-105.15c1.77-26.71-4.13-55.94,1.48-82.16
			c6.07-28.36,23.18-48.09,37.8-71.88c6.49-10.57,13.13-21.3,17.47-32.97c4.21-11.32,4.9-23.67,6.33-35.57
			c2.73-22.77,17.07-40.53,29.99-58.67c27.2-38.19,57.19-94.98,44.97-143.24c-2.78-11-9.93-23.53-23.28-20.82
			c-8.09,1.64-12.34,9.39-14.55,16.64c-3.44,11.29-3.72,23.9-4.94,35.59c-1.71,16.28-6.06,29.06-13.18,43.77
			c-14.17,29.26-42.39,50.31-51.66,81.84c-4.26,14.5-4.87,29.63-8.91,44.08c-4.18,14.94-10.49,29.47-19.39,42.23
			c-9.89,14.19-21.32,28.23-28.67,44.01c-9.57,20.55-10.03,46.93-11.38,69.29c-1.83,30.27-2.86,59.12-14.41,87.75
			c-8.03,19.9-21.36,38.24-33.82,55.62c-7.82,10.91-16.66,20.88-23.53,32.47c-10.02,16.89-13.23,33.15-15.54,52.49"/>
		<path class="st14" d="M1804.88,1168.51c-16.69-41.82,1.32-96.28,23.28-133.16c11.43-19.21,30.78-32.29,42.29-51.54
			c9.64-16.12,17.26-36.7,20.28-55.2c2.49-15.21,2.22-30.08,6.95-45c4.54-14.31,14.51-23.33,26.47-31.69
			c14.84-10.37,24.15-23.26,30.14-40.2c3.18-8.99,11.05-22.14,19.79-9.5c8,11.58,1.07,30.2-5.38,40.36
			c-6.92,10.91-14.35,21.25-23.44,30.5c-7.75,7.89-16.83,14.78-22.1,24.64c-4.68,8.76-7.51,19.45-8.63,29.27
			c-3.19,27.75-1.2,57.63-18.27,82.08c-7.3,10.45-17.78,20.2-26.65,29.4c-8.83,9.16-13.4,18.31-17.06,30.46
			c-6.14,20.4-6,40.75-6.37,61.89c-0.27,15.23,1.37,30.96-1.47,46.02c-4.85,25.72-25.7,41.82-33.86,65.7"/>
		<path class="st17" d="M1945.49,872.84c-0.08,0.08-0.15,0.17-0.23,0.25c-4.63,4.71-9.73,9.08-14.22,13.92
			c-3.94-9.64-11.47-18.12-20.58-23.93c4.05-4.06,8.69-7.67,13.69-11.16c3.29-2.3,6.3-4.73,9.07-7.3
			C1936.9,854.2,1941.02,863.63,1945.49,872.84z"/>
		<path class="st18" d="M1955.38,946.76c1.35-8.17,8.38-15.76,10.11-24.52c2.28-11.59,0.01-25.48-3.96-36.55
			c-6.92-19.31-19.37-32.13-20.3-53.7c-0.73-16.76,5.8-31.85,7.42-48.11c0.99-9.97,1.54-29.1-10.94-33.27
			c-20.84-6.96-8.82,25.18-9.06,33.94c-0.65,23.48-10.45,44.22-4.14,67.84c4.11,15.36,14.24,24.87,20.5,38.89
			c3.71,8.3,4.33,17.22,4.66,26.16c0.72,19.7-13.07,30.86-23.33,46.75"/>
		<path class="st17" d="M1858.51,1237.56c-1.7-5.48-6.51-9.71-8.72-15.49c-5.23-13.65-9.67-28.9-10.35-43.54
			c-1.12-24.07,4.79-45.99,14.75-67.73c6.64-14.5,16.68-27.19,19.63-43.26c3.44-18.75,2.81-38.5,2.85-57.45
			c0.04-19.79,4.01-44.15,14.36-61.36c12.17-20.24,36.65-29.51,59.31-26.52c34.44,4.53,54.16,47.82,64.12,76.26
			c9.89,28.24,12.16,56.69,5.71,86.09c-12.25,55.86-48.69,96.67-83.58,140.51"/>
		<path class="st14" d="M1834.32,1197.28c-0.45-5.72-4.2-10.91-5.09-17.03c-2.1-14.46-3.07-30.32-0.5-44.75
			c4.22-23.72,14.81-43.8,29.31-62.81c9.67-12.68,22.26-22.84,28.68-37.87c7.49-17.53,11.23-36.93,15.44-55.41
			c4.4-19.29,13.64-42.18,27.53-56.69c16.33-17.06,42.25-20.7,63.7-12.79c32.59,12.01,42.29,58.58,45.73,88.52
			c3.42,29.73-0.63,57.97-13.4,85.23c-24.26,51.79-68.8,83.56-112.5,118.63"/>
		<path class="st16" d="M1974.92,1282.29c41.47-29.98-3.76-85.73-10.34-121.23c-11.09-59.92,33.67-110.05,36.54-168.94
			c1.26-25.77-5.05-51.13-10.85-75.93c-5.54-23.7-5.19-48.15-0.14-71.99c5.52-26.04,21.85-55.03,46.74-67.27
			c34.24-16.83,73.11-12.36,98.89,16.57c23.11,25.94,26.14,60.56,21.7,93.55c-5.52,41.04-27.17,77.01-29.82,118.96
			c-2.63,41.64-1.73,83.16-7,124.61c-2.91,22.85-8.15,45.83-17.09,67.13c-13.86,33.06-45.27,51.44-71.25,74.18"/>
		<path class="st17" d="M2105.99,1096.44c10.7-4.48,19.98-21.1,22.83-33.65c4.21-18.53,2.89-35.12-1.42-54.68
			c-4.66-21.14,2.29-35.12,11.14-50.8c10.73-19,18.76-40.13,14.26-65.47c-2.19-12.33-6.26-23.78-5.47-36.2
			c0.78-12.28,4.34-23.62,4.9-36.08c0.45-10.07-2.54-25.3-9.8-33.01c-7.94-8.44-18.67-8.44-26.86-4.2
			c-23.73,12.29-27.27,46.05-22.82,75.15c2.1,13.76,5.68,28.41,4.2,41.87c-1.58,14.41-6.04,28.06-5.7,43.01
			c0.36,16.15,6.17,30.76,8.01,46.67c1.9,16.38,1.92,31.13-3.22,45.6c-5.33,15.01-6.22,29.7-7.77,46.18
			c-0.9,9.59-2.19,20.39-6.75,28.12c-7.17,12.16-19.2,18.94-28.06,29.22"/>
		<path class="st18" d="M2116.24,1103.78c19.44-8,37.67-34.42,44.07-53.91c9.45-28.79,8.9-54.03,3.36-83.47
			c-5.99-31.83,7.83-53.97,25.19-78.89c21.05-30.21,37.55-63.39,32.31-101.66c-2.55-18.62-8.55-35.69-5.81-54.78
			c2.7-18.87,10.24-36.58,12.56-55.71c1.88-15.45-1.79-38.42-13.81-49.43c-13.17-12.06-32.18-10.9-47.14-3.53
			c-43.37,21.35-53.27,73.36-48.51,117.39c2.25,20.82,7.02,42.84,2.95,63.59c-4.35,22.22-13.72,43.56-14.72,66.39
			c-1.09,24.66,7.62,46.38,9.19,70.51c1.61,24.85,0.06,47.4-10.6,70.09c-11.06,23.54-14.21,46.1-18.73,71.46
			c-2.63,14.77-6.07,31.42-14.98,43.73c-14.02,19.36-36.05,31.03-52.87,47.7"/>
		<g>
			<g>
				<path class="st19" d="M2080.51,1117.47c12.11-9.32,22.19-21.03,29.51-34.45c7.92-14.52,12.07-30.28,13.57-46.69
					c1.7-18.61,0.67-37.47,3.96-55.93c3.13-17.57,11.55-33.87,13.25-51.73c1.74-18.39-5.02-36.39-3.19-54.78
					c1.68-16.82,9.81-32.1,17.23-46.98c3.68-7.38,7.3-14.8,10.15-22.54c3.11-8.44,5.28-17.2,6.84-26.06
					c3.11-17.64,3.87-35.59,5.11-53.43c2.16-31.04,6.4-64.8,26.76-89.79c2.37-2.92,4.95-5.65,7.7-8.21
					c0.81-0.76-0.41-1.97-1.22-1.22c-22.29,20.74-30.02,51.59-33.31,80.81c-2.01,17.86-2.37,35.86-4.28,53.73
					c-1.94,18.15-5.65,35.9-13.12,52.63c-6.65,14.89-15.21,28.99-20.23,44.58c-2.5,7.76-3.96,15.82-3.92,23.99
					c0.05,9.25,1.68,18.4,2.73,27.56c1.1,9.48,1.21,18.78-0.82,28.15c-1.89,8.72-4.97,17.12-7.63,25.62
					c-2.67,8.52-4.6,17.14-5.62,26.02c-1.06,9.2-1.38,18.46-1.74,27.7c-0.7,17.74-1.82,35.42-8.03,52.23
					c-5.53,14.98-14.32,28.92-25.47,40.35c-2.73,2.8-5.59,5.46-8.59,7.98C2079.91,1117.22,2080.25,1117.67,2080.51,1117.47
					L2080.51,1117.47z"/>
			</g>
		</g>
		<g>
			<g>
				<path class="st20" d="M2195.44,1059.44c9.04-8.96,15.99-20.1,19.78-32.27c3.87-12.42,5.05-25.64,3.75-38.57
					c-0.79-7.96-2.46-15.82-2.8-23.82c-0.31-7.42,0.44-14.86,2.24-22.07c1.83-7.37,4.77-14.34,8.56-20.92
					c3.74-6.49,8.15-12.56,12.45-18.69c9.05-12.9,18.76-27.76,17.86-44.21c-0.05-0.91-1.39-0.92-1.42,0
					c-0.47,14.85-7.73,27.88-16.01,39.79c-4.2,6.03-8.62,11.91-12.56,18.11c-3.92,6.17-7.22,12.7-9.51,19.66
					c-2.34,7.1-3.67,14.54-3.96,22.01c-0.3,7.67,0.79,15.23,1.89,22.8c0.99,6.85,1.66,13.68,1.47,20.6
					c-0.17,6.43-0.94,12.85-2.37,19.11c-3.21,14.08-9.44,27.77-19.77,38.05C2194.79,1059.3,2195.19,1059.7,2195.44,1059.44
					L2195.44,1059.44z"/>
			</g>
		</g>
		<g>
			<g>
				<path class="st20" d="M1998.9,1163.03c-9.87-25.6,0.66-53.78,13.11-76.45c6.51-11.86,13.86-23.24,20.22-35.18
					c6.4-12.01,11.53-24.58,14.36-37.93c2.89-13.63,3.58-27.69,1.95-41.53c-1.66-14.08-5.41-27.76-8.23-41.62
					c-2.86-14.04-4.2-28.2-2.96-42.51c1.21-14.01,4.7-27.71,10.11-40.68c4.95-11.88,11.04-23.25,16.15-35.06
					c4.76-11,8.85-22.66,9.2-34.75c0.09-2.96-0.13-5.9-0.54-8.83c-0.09-0.61-1.1-0.46-1.07,0.15c0.52,12.66-2.24,24.91-6.81,36.66
					c-4.7,12.09-10.95,23.49-16.26,35.31c-5.51,12.26-9.68,24.94-11.71,38.25c-2.09,13.73-2.05,27.65,0.02,41.37
					c2.15,14.28,6.15,28.2,8.65,42.41c2.48,14.14,2.9,28.54,0.76,42.75c-2.1,13.96-6.6,27.3-12.9,39.92
					c-6.1,12.21-13.46,23.72-20.21,35.57c-12.52,21.99-23.6,47.95-16.94,73.65c0.76,2.94,1.75,5.8,2.94,8.59
					C1998.77,1163.2,1998.93,1163.13,1998.9,1163.03L1998.9,1163.03z"/>
			</g>
		</g>
		<g>
			<g>
				<path class="st19" d="M1986.55,910.49c-8.69,3.38-15.07,10.96-19.12,19.15c-4.71,9.51-6.48,20.15-7.13,30.65
					c-0.68,10.97-0.2,21.97-0.58,32.95c-0.38,10.78-1.82,21.39-5.48,31.59c-6.73,18.76-19.09,34.83-30.56,50.89
					c-5.83,8.16-11.55,16.41-16.45,25.17c-5.22,9.33-9.34,19.22-12.53,29.42c-6.39,20.48-8.92,42.84-6.16,64.18
					c0.33,2.59,0.75,5.13,1.33,7.68c0.15,0.68,1.32,0.55,1.24-0.17c-1.17-10.66-2.19-21.24-1.75-31.99
					c0.44-10.8,2.05-21.52,4.78-31.99c2.72-10.46,6.61-20.57,11.51-30.2c4.55-8.95,10.08-17.34,15.83-25.55
					c11.18-15.96,23.56-31.4,31.59-49.3c4.07-9.08,6.74-18.58,7.86-28.47c1.23-10.85,0.92-21.8,1.02-32.7
					c0.1-10.79,0.61-21.73,3.62-32.16c2.7-9.37,7.49-18.58,15.4-24.57c1.86-1.41,3.89-2.62,5.98-3.64
					C1987.49,911.19,1987.11,910.27,1986.55,910.49L1986.55,910.49z"/>
			</g>
		</g>
	</g>
	<polygon class="st10" points="2159.63,1062.62 2548.78,1191.36 2429.26,1551.96 2207.79,1374.38 	"/>
	<g>
		<polygon class="st13" points="994.09,1544.91 1993.95,999.04 1976.61,1237.86 1518.1,1704.64 		"/>
		<polygon class="st12" points="2371.55,1689.13 2207.79,1368.12 1976.61,1237.86 1415.35,1471.99 		"/>
		<polygon class="st10" points="2159.63,1062.62 1993.95,999.04 1976.61,1237.86 2207.79,1368.12 		"/>
		<polygon class="st21" points="2159.63,1062.62 2548.78,1220.8 2403.3,1551.96 2207.79,1368.12 		"/>
		<polygon class="st12" points="2159.63,1062.62 2548.78,1220.8 2569.1,1224.76 2573.83,803.64 		"/>
	</g>
	<path class="st2" d="M777.29,1394.12c4.28-20.16,27.84-30.15,48.72-32.12c20.89-1.97,43.02,0.56,61.91-8.39
		c30.08-14.25,42.97-53.5,74.65-63.89c27.81-9.12,58.62,8.04,87.16,1.45c27.83-6.42,45-32.75,65.68-52.12
		c50.47-47.27,129.06-54.88,196.64-37.86c39,9.82,76.94,27.51,104.32,56.47c23.83,25.2,39.55,58.59,69.17,76.95
		c44.47,27.55,104.19,12.02,153.32,30.42c47,17.6,76.76,63.34,95.35,109.21c18.59,45.88,29.65,95.14,55.78,137.32
		c22.2,35.83,54.79,65.69,70.4,104.73c26.46,66.18-3.79,143.89-55.23,193.95c-36.89,35.89-84.26,61.29-134.97,72.35
		c-67.86,14.81-138.81,4.1-206.29-12.28c-115.5-28.03-226.17-72.32-339.89-106.64c-44.25-13.35-89.49-25.27-135.77-26.65
		c-130.09-3.86-247.81,74.74-376.39,94.48"/>
	<path class="st2" d="M1883.5,1431.65c-12.03-23.03,8.73-50.46,31.93-62.18c23.19-11.71,50.7-16.31,69.51-34.23
		c16.45-15.67,23.5-39.12,39.34-55.41c48.54-49.9,143.58-6.13,197.4-50.26c33.01-27.06,36.36-75.86,58.02-112.64
		c18.15-30.83,48.76-52.26,80.27-69.2c50.98-27.4,112.37-45.58,166.35-24.71c48.37,18.7,80.79,65.25,99.72,113.54
		c35.09,89.54,32.37,193.21-7.36,280.79c-16.48,36.33-39.61,72.82-35.84,112.54c1.91,20.07,10.7,38.98,12.89,59.02
		c4.53,41.53-21.08,82.35-56.39,104.66c-35.31,22.31-78.62,28.6-120.38,27.54s-83.03-8.89-124.64-12.52
		c-102.06-8.91-208.66,6.94-304.44-29.39"/>
	<path class="st2" d="M1224.52,1434.73c-0.84-30.83,28.74-53.31,56.82-66.08c28.08-12.77,60.22-23.41,75.99-49.92
		c6.72-11.3,9.89-24.79,18.61-34.62c13.05-14.7,34.53-17.29,53.07-23.81c34.2-12.03,60.77-39.14,92.59-56.52
		c31.82-17.38,76.99-22.12,99.95,5.94c17.69,21.63,17.66,57.57,42.44,70.47c11.36,5.91,25.01,4.97,37.28,8.67
		c25.88,7.8,42.09,34.83,67.6,43.76c18.35,6.42,38.44,2.47,57.86,1.5c69.6-3.46,140.79,37.98,167.16,102.49
		c26.37,64.51,1.85,147.35-58.17,182.77c-18.29,10.79-38.82,17.2-59.46,22.2c-76.46,18.53-156,18.86-234.68,19.08"/>
</g>
</svg>
