<svg xmlns="http://www.w3.org/2000/svg" viewBox="0 0 1000 1000" fill="#C31929"><path d="M5 500.002v.395-.395c.099-89.506 22.55-172.682 67.253-249.726 44.209-74.473 103.55-133.814 178.023-178.023C327.419 27.45 410.694 5 500.002 5c89.308 0 172.583 22.45 249.726 67.253C824.2 116.462 883.54 175.803 927.75 250.276c44.803 77.143 67.253 160.418 67.253 249.726 0 89.308-22.45 172.583-67.253 249.726C883.541 824.2 824.2 883.54 749.728 927.75c-77.143 44.803-160.418 67.253-249.726 67.253-89.308 0-172.583-22.45-249.726-67.253-74.473-44.209-133.814-103.55-178.023-178.022C27.55 672.684 5.099 589.508 5 500.002zm253.188-241.814 186.923 521.21c5.934 17.802 11.869 35.605 18.792 52.418 1.978 4.945 3.956 8.901 6.923 11.868 10.879 5.934 23.736 2.967 29.67-6.923v.989l280.88-412.419c7.912-10.88 1.978-24.725-6.923-30.66-4.945-5.933-19.78-15.824-23.736-18.79-16.813-12.858-35.605-25.715-54.396-36.594-3.956-3.956-8.901-4.945-12.857-6.923L546.98 299.726c-23.737-5.934-48.462-11.868-72.198-16.813-36.594-7.912-73.187-18.791-109.78-27.692-7.913-1.978-15.825-5.934-24.726-5.934-.99 0-56.374-14.836-63.297-14.836-5.934 0-8.901 1.978-14.835 7.912-4.945 5.934-5.934 6.924-3.956 15.825zm54.395 60.33 66.264 79.12c30.66 36.594 60.33 73.188 90 109.781 3.957 4.945 6.924 8.901 10.88 13.846 4.945 5.935 10.879 11.869 15.824 18.792l-1.978 22.747c-.989 7.912-1.978 24.725-14.835 132.528-2.967 36.593-6.923 76.154-7.912 76.154-26.704-85.055-56.374-167.143-86.045-250.22-24.725-68.243-48.461-135.496-72.198-202.748zm14.836-31.649c105.824 26.703 213.627 53.407 322.418 78.132L513.353 511.375c-14.835-17.802-30.66-36.593-45.494-55.385-45.495-57.362-92.968-112.747-140.44-169.12zm177.033 474.727c6.923-70.22 14.835-141.43 22.748-211.65l192.857-101.868C648.848 552.914 576.65 657.75 504.452 761.596zm76.154-274.946c32.638-37.583 67.253-73.187 101.869-108.792l44.505 31.649z"></path></svg>