<svg xmlns="http://www.w3.org/2000/svg" viewBox="0 0 1000 1000" fill="#FDD16C"><path d="M5 500.496c0-90 22.747-173.077 67.253-250.22 44.506-74.177 103.846-133.517 178.023-178.023C327.419 27.747 410.496 5 500.496 5c89.011 0 172.089 22.747 249.232 67.253 74.176 44.506 133.517 103.846 178.022 178.023 44.506 77.143 67.253 160.22 67.253 249.231 0 90-22.747 173.078-67.253 250.22-44.505 74.177-103.846 133.518-178.022 178.023-77.143 44.506-160.22 67.253-249.232 67.253-90 0-173.077-22.747-250.22-67.253-74.177-44.505-133.517-103.846-178.023-178.022C27.747 672.585 5 589.508 5 500.496zm181.979 102.858c0 5.934 0 5.934 6.923 5.934h68.242c8.9 0 7.912-.99 7.912 6.923v175.055c0 5.934 0 5.934 6.923 5.934 76.154 0 152.308.99 229.451 0 9.89 0 21.759 0 31.649-.989 33.626-1.978 68.242-8.9 99.89-21.758 25.715-9.89 49.45-21.758 72.198-39.56 24.726-18.792 47.473-42.528 65.275-69.231 11.868-16.814 19.78-34.616 27.693-52.418.989-3.956 2.967-3.956 6.923-3.956h66.264c4.945 0 4.945 0 4.945-5.934v-58.352c0-4.945-1.978-5.934-3.956-5.934-16.814.989-32.638.989-47.473 0-8.901 0-8.901.989-7.912-7.912 2.967-18.792 2.967-39.561 0-59.341 0-2.967.989-4.945 4.945-4.945h49.45c4.946 0 4.946 0 4.946-3.956v-58.352c0-5.934 0-5.934-4.945-5.934h-64.286c-3.956 0-5.934-.99-6.923-3.956-9.89-23.737-20.77-46.484-35.605-67.253-32.637-42.528-74.176-73.187-121.649-93.957-23.736-9.89-48.461-16.813-72.198-21.758-24.725-3.956-48.461-4.945-74.176-4.945H275.99c-5.934 0-5.934 0-5.934 4.945v180.99c0 5.934 0 5.934-4.945 5.934h-72.198c-5.934 0-5.934 0-5.934 5.934v57.363c0 4.945 0 4.945 5.934 4.945h72.198c4.945 0 4.945.989 4.945 5.934v61.319c0 4.945 0 4.945-4.945 4.945-24.726.989-47.473.989-72.198.989-5.934 0-5.934 0-5.934 4.945zm151.319 127.582V614.233c0-4.945 0-4.945 4.945-4.945h387.694c-4.946 8.9-8.902 15.824-13.847 22.747-18.791 29.67-43.516 52.418-73.187 70.22-28.681 15.824-58.352 26.703-90.99 30.66-15.823 1.978-32.637 1.978-48.46 1.978-54.397.989-107.803 0-161.21 0-4.945 0-4.945 0-4.945-3.957zm0-196.813v-61.32c0-4.944 0-5.933 4.945-5.933h402.529c5.934 0 6.923 0 6.923 6.923.989 14.835.989 31.648.989 46.483 0 4.945-.99 8.902-.99 13.847-.988 4.945-.988 4.945-5.933 4.945H346.21c-.99 0-2.967 0-2.967.989-3.956 0-4.945-1.978-4.945-5.934zm0-141.43V275.002c0-5.934.989-5.934 4.945-5.934H505.44c20.77 0 41.539.989 61.32 5.934 23.735 4.945 47.472 11.868 69.23 24.725 38.572 19.78 69.231 48.462 90 87.034 1.978 2.967 2.967 6.923 4.946 9.89 0 0 0 .989.989 1.978H343.243c-4.945 0-4.945 0-4.945-5.934z"></path></svg>