<svg xmlns="http://www.w3.org/2000/svg" viewBox="0 0 1000 1000" fill="#4525D0"><path d="M500.496 5c272.968 0 494.507 221.54 494.507 495.002 0 270.495-218.572 495.001-495.001 495.001C229.506 995.003 5 776.431 5 500.002 5 229.506 223.572 5 500.496 5zM267.09 345.22c-9.89 86.045 40.55 172.09 136.484 196.815 36.593 7.912 109.78 7.912 169.121 7.912 71.21 0 112.748 44.506 112.748 101.868 0 61.32-33.627 109.78-112.748 109.78-177.033 0-256.154-6.922-273.957 0-47.472 24.726-37.582 79.122 8.901 79.122 95.935 0 187.913.99 281.87.99 131.538-4.946 208.681-137.474 163.187-256.156-31.649-99.89-157.253-117.692-307.584-117.692-50.44 0-91.978-36.594-91.978-89.012 0-60.33 14.835-110.77 68.242-120.66 104.836 0 232.418-2.966 322.419 0 3.956-5.933 5.934-8.9 8.9-15.824 22.748-42.527 0-68.242-31.648-68.242H435.221c-91.978 7.913-163.187 77.144-168.132 171.1zm42.527 390.662c73.187 7.912 85.056.989 93.957-12.858 31.648-45.494 67.253-96.923 102.857-149.34 6.923-8.902-61.319-14.836-71.209-4.946-40.55 50.44-89.011 110.77-125.605 167.144zM522.254 446.1c79.122 3.956 86.045 16.814 118.682-35.604 42.528-60.33 63.297-92.968 91.979-136.484l-90.99-2.967C597.42 333.353 558.848 384.78 522.255 446.1z"></path></svg>