<svg xmlns="http://www.w3.org/2000/svg" viewBox="0 0 1000 1000" fill="#AD0728"><path d="M500.496 5c272.968 0 494.507 221.54 494.507 495.002 0 270.495-218.572 495.001-495.001 495.001C229.506 995.003 5 776.431 5 500.002 5 229.506 223.572 5 500.496 5zM175.11 244.341c0 22.748 17.803 41.539 42.528 44.506 1.978 0 4.945 0 4.945 2.967 4.945 7.912 7.912 14.835 12.857 23.736 28.682 62.308 61.32 126.594 90 189.891 2.968 2.967 2.968 4.945 0 7.912-10.879 12.858-13.846 28.682-5.933 44.506 8.9 15.824 21.758 23.736 39.56 23.736 2.967 0 5.934 2.967 5.934 4.945 36.594 74.176 74.176 148.353 107.803 224.507 2.967 2.967 2.967 2.967 0 4.945-5.934 7.912-7.912 15.824-7.912 24.725-2.967 17.802 7.912 36.594 28.681 44.506 18.791 4.945 37.583 0 50.44-16.814 10.879-14.835 10.879-39.56-2.967-54.395-2.967 0-2.967-2.967-2.967-5.934 32.637-73.187 64.286-147.364 95.934-221.54 1.978-1.978 1.978-4.945 4.945-4.945 31.649-4.945 44.506-39.56 29.67-66.264v-6.923c28.682-69.23 59.341-140.44 89.012-208.682 1.978-7.912 4.945-10.879 12.857-13.846 21.758 0 36.594-18.791 36.594-38.572 3.956-21.758-12.858-39.56-30.66-45.494-21.758-4.945-42.527 5.934-50.44 20.77-2.967 4.944-4.945 4.944-7.912 4.944H259.177c-7.912-17.802-21.759-25.714-41.539-25.714-24.725 0-42.528 18.791-42.528 42.527zm84.067 47.473c71.209 49.45 140.44 97.913 210.66 147.363-4.945 2.967-9.89 7.912-15.824 9.89-20.77 16.814-44.506 32.638-66.264 51.43-1.978 1.977-4.946 0-6.924 0-7.912-2.968-12.857-2.968-21.758-5.935-2.967 0-2.967 0-4.945-2.967-25.714-57.363-55.385-115.715-84.066-176.045-2.967-8.9-7.912-15.824-10.88-23.736zm12.857-31.648h443.078c-1.978 1.978-1.978 4.945-4.945 4.945-68.242 50.44-137.473 99.89-205.715 150.33-5.934 1.978-7.912 1.978-10.879 0C420.386 365 349.177 315.55 276.98 265.11c-1.978 0-1.978-2.967-4.945-4.945zm121.649 311.54v-5.935c7.912-10.88 10.879-20.77 10.879-34.615-2.967-2.967 0-4.945 2.967-4.945 28.681-20.77 57.363-44.506 89.011-65.275 0 0 1.978-3.956 4.945 0 29.67 20.769 58.352 39.56 90 60.33-7.912 20.769-1.978 38.571 12.858 52.417-9.89 25.715-20.77 50.44-31.649 74.176-20.77 49.451-41.538 96.924-62.308 147.363 0 2.967-3.956 5.934-3.956 5.934-1.978 0-4.945-2.967-4.945-5.934-7.912-18.79-17.802-36.593-25.714-52.417-26.704-58.352-55.385-113.737-82.088-171.1zm131.539-132.529c66.263-49.45 131.538-97.912 200.77-145.385-2.968 2.967-2.968 2.967-2.968 5.934-25.714 63.297-54.395 126.594-81.099 191.869-2.967 2.967-2.967 2.967-7.912 2.967s-10.88 2.967-18.791 2.967h-5.934c-25.715-18.791-54.396-40.55-81.1-58.352z"></path></svg>