<svg xmlns="http://www.w3.org/2000/svg" viewBox="0 0 1000 1000" fill="#000001"><path d="M500.496 5C223.572 5 5 229.506 5 500.002c0 276.43 224.506 495.001 495.002 495.001 276.43 0 495.001-224.506 495.001-495.001C995.003 226.539 773.464 5 500.496 5zm-360.99 697.255V698.3c8.901-7.912 14.835-14.835 27.692-22.747-6.923 0-12.857 0-18.79-3.956 73.186-37.583 142.417-72.198 215.604-108.792-17.802 0-30.66-3.956-42.527-3.956v-2.967c30.659-18.791 57.362-36.594 88.022-53.407 64.286-40.55 131.539-82.088 196.814-119.67 42.527-20.77 77.143-48.462 112.747-72.199 39.56-30.659 70.22-32.637 108.792 0 15.824 12.858 28.681 23.737 45.495 36.594-7.913 1.978-14.836 5.934-20.77 8.901-41.538 11.868-57.363 42.528-73.187 79.121-4.945 21.759-14.835 41.539-26.703 63.297-12.857 23.736-33.627 38.572-58.352 51.429-26.703 14.835-57.363 30.66-88.022 45.495-29.67 18.79-32.638 51.428-14.836 76.154 14.836 20.769 34.616 38.571 61.32 49.45 4.944 0 11.868 5.934 18.79 7.912h-89.01c3.955-1.978 8.9-7.912 14.835-14.835-10.88-8.9-20.77-18.791-32.638-27.692-14.835-8.901-23.736-23.737-29.67-39.56 0-8.902-6.923-14.836-15.825-12.858h-36.593v-3.956c5.934 0 15.824-3.956 21.758-6.923V617.2c-21.758 1.978-43.516 1.978-64.286 5.934-78.132 14.835-154.286 41.539-234.396 69.23-20.77 5.935-41.539 5.935-66.264 9.891z"></path></svg>