<svg xmlns="http://www.w3.org/2000/svg" viewBox="0 0 1000 1000" fill="#005ADD"><path d="M500.496 995.003c275.935 0 494.507-224.506 494.507-495.496C995.003 226.54 773.464 5 500.496 5 223.572 5 5 229.506 5 499.507c0 276.924 224.506 495.496 495.496 495.496zM76.21 507.42C71.265 424.343 437.2 81.155 500.497 82.144c63.297 1.978 430.221 334.287 427.254 427.254-3.956 92.968-357.034 423.298-425.276 425.276-68.242.99-422.309-344.177-426.265-427.254zm196.813 149.34c.989 18.792 12.857 54.396 53.407 54.396 41.538 0 224.506-194.836 310.55-292.748 14.835-16.813 45.495-29.67 45.495 46.484v120.66c1.978 19.78-5.934 47.472-53.407 0-47.473-47.473-61.319-56.374-74.176-56.374 0 0-12.857 4.945-12.857 14.835 0 10.879 61.319 67.253 61.319 67.253l48.461 45.494c27.693 19.78 82.089 31.649 82.089-82.088V402.584c1.978-52.418-10.88-142.418-77.144-77.143L355.111 629.068c-5.934 9.89-17.802 20.77-17.802-17.802v-67.253l76.154-74.176s28.681 25.714 41.539 27.692c12.857 2.967 20.769 0 25.714-19.78 4.945-20.77-167.144-113.737-167.144-113.737-12.857-6.923-40.55-8.901-40.55 38.572zm35.604-177.033v-66.264l56.374 25.714z"></path></svg>