<svg xmlns="http://www.w3.org/2000/svg" viewBox="0 0 1000 1000" fill="#2A5ADA"><path d="M5 500.002v-.396.396c.099 89.505 22.55 172.682 67.253 249.726C116.462 824.2 175.803 883.54 250.276 927.75c77.143 44.803 160.418 67.253 249.726 67.253 89.308 0 172.583-22.45 249.726-67.253C824.2 883.541 883.54 824.2 927.75 749.728c44.803-77.143 67.253-160.418 67.253-249.726 0-89.308-22.45-172.583-67.253-249.726-44.505-74.177-103.846-133.517-178.022-178.023C672.585 27.45 589.31 5 500.002 5c-89.308 0-172.583 22.45-249.726 67.253-74.473 44.209-133.814 103.55-178.023 178.023C27.55 327.32 5.099 410.496 5 500.002zm169.121 185.44V318.518c0-5.935.99-8.902 6.924-11.869 105.824-61.319 211.649-122.637 318.462-184.945 5.934-1.978 9.89-1.978 12.857 1.978 61.32 33.626 123.627 70.22 184.946 105.824 43.517 24.726 90 51.429 134.506 77.143 3.956 2.967 5.934 5.934 5.934 10.88v367.913c0 5.934-1.978 9.89-5.934 11.868-5.934 3.956-312.529 180.99-318.463 183.957-3.956 2.967-7.912 2.967-9.89 1.978C394.672 819.948 286.87 759.618 181.045 696.32c-5.935-.989-6.924-4.945-6.924-10.88zm139.451-83.077c0 7.912.99 12.857 7.913 16.813 73.187 41.538 125.604 72.198 178.022 102.857 3.956.99 5.934 1.978 11.868 0 60.33-34.615 121.65-69.23 180.99-103.846 4.945-2.967 7.912-6.923 7.912-12.857V398.628c0-4.945-1.978-8.901-7.912-12.858-59.34-34.615-120.66-68.242-180-102.857-4.946-2.967-6.924-2.967-12.858 0-8.901 5.934-19.78 11.868-30.66 17.802-48.461 28.682-98.9 57.363-147.362 85.055-4.945 3.957-7.913 6.924-7.913 12.858z"></path></svg>