<svg xmlns="http://www.w3.org/2000/svg" viewBox="0 0 1000 1000" fill="#FF603B"><path d="M679.759,268.587H713.9c9.755.976,19.511,1.951,31.217,3.9,0-10.731,0-20.487-1.951-30.242-1.951-13.657-10.731-20.486-23.413-22.437-13.657-1.951-26.339,2.927-30.241,15.609C684.636,246.15,682.685,256.881,679.759,268.587Zm-346.311,0c-2.927-11.706-4.878-22.437-8.78-33.167-3.9-11.707-14.633-16.584-27.315-16.584-10.731.975-20.486,5.853-25.363,16.584-4.878,11.706-3.9,24.388-2.927,35.118C290.524,270.538,311.01,268.587,333.448,268.587ZM474.9,718.3c.975,11.706,2.926,23.413,4.877,36.1,1.951,11.706,11.707,18.535,24.388,19.51s25.364-3.9,28.291-15.608c3.9-12.682,4.877-26.339,7.8-40Zm-19.511-23.412c-.975-11.707-1.951-22.437-3.9-33.168-9.755-75.116-18.535-149.255-28.29-224.371-2.927-26.339-5.853-53.654-12.682-79.993-7.8-28.29-23.413-50.727-51.7-63.409-1.951-.975-3.9-.975-6.828-1.951,1.951,14.633,2.926,29.266,4.877,42.923l35.119,269.245c2.927,25.363,9.755,48.776,28.29,68.287C429.049,682.21,441.731,690.014,455.388,694.892ZM662.2,291.024c-21.461,7.805-36.094,20.486-46.825,38.046s-16.584,36.094-18.535,56.58c-11.706,92.675-23.412,186.326-35.119,279-.975,9.756-1.951,19.511-3.9,29.266h3.9c1.951-.975,2.927-1.951,4.878-1.951,27.315-12.682,43.9-34.143,49.752-63.409s9.755-58.532,13.657-87.8c8.78-64.385,16.584-128.769,25.364-193.154C657.322,329.07,659.273,310.535,662.2,291.024Zm98.528,3.9V758.3c0,4.877,1.951,6.828,6.829,6.828,11.706-.975,22.437,0,34.143,0,10.731,0,10.731,0,10.731-10.73V372.969c-1.951-15.609-5.853-32.193-14.633-45.85C789.993,312.486,777.311,302.731,760.727,294.927Zm-507.272,0c-5.854,2.926-7.805,3.9-10.731,5.853-27.315,16.584-39.021,41.947-40.972,73.164-.976,21.462,0,41.948,0,63.409,0,80.969-.976,161.937-.976,243.881,0,24.388.976,49.752,0,75.116,0,6.828,1.951,8.779,8.78,8.779,10.731-.975,21.461,0,32.192,0,11.707,0,11.707,0,11.707-11.706v-458.5Zm-68.287,74.139c1.951-7.8,2.926-14.632,4.877-21.461,7.805-30.241,25.364-52.678,55.605-66.336,5.853-2.926,7.805-5.853,7.805-12.682-.976-7.8,0-16.584.975-25.363,1.951-20.486,16.584-37.07,36.094-39.021,23.413-3.9,41.948,5.853,49.752,27.314,4.878,10.731,5.853,24.389,8.78,36.1,0,2.926,1.951,6.829,3.9,6.829,46.825,16.583,69.262,51.7,77.066,96.576,5.854,31.217,9.756,62.434,13.658,93.651l23.412,199.007a279.618,279.618,0,0,1,4.878,30.241c0,3.9,1.951,6.829,6.829,6.829,18.535,0,37.07.975,56.58,0,4.878,0,6.829-2.927,6.829-6.829,7.8-63.409,15.608-126.818,24.388-189.252,4.878-44.874,9.755-89.748,17.559-134.622q4.39-33.655,26.34-61.458a99.005,99.005,0,0,1,46.825-32.192c4.877-1.951,7.8-3.9,7.8-9.756,1.951-10.73,3.9-21.461,6.829-31.216,6.828-23.413,27.314-35.119,51.7-31.217,19.511,1.951,34.144,18.535,36.095,41.947.975,8.78,0,16.584.975,26.34.976,1.951,2.927,5.853,4.878,7.8,42.923,18.535,62.433,53.654,62.433,98.528.976,130.72,0,262.416,0,393.136,0,5.853-1.951,8.78-7.8,8.78-22.437-.976-44.874-.976-66.335,0-7.8,0-8.78-2.927-8.78-9.755V298.829c0-6.829-1.951-10.731-8.78-10.731-16.584-.976-34.143-.976-51.7-1.951-4.877-.976-5.853,1.951-6.828,6.829-8.78,69.262-17.56,138.524-27.315,207.786-5.853,42.923-9.755,85.846-17.559,127.794-7.8,40-32.193,68.287-71.214,81.944-4.877.976-6.828,3.9-6.828,8.78-.976,8.779-2.927,18.535-2.927,27.314-1.951,21.462-12.682,36.095-32.192,42.923H495.385c-21.462-7.8-32.193-23.412-34.144-46.825,0-7.8-1.951-15.608-1.951-23.412,0-5.853-2.926-7.8-7.8-8.78-18.535-6.829-34.143-16.584-47.8-32.192-13.657-16.584-21.461-37.07-24.388-59.507-8.78-55.605-15.608-112.186-22.437-168.766-7.8-52.678-14.633-105.357-20.486-157.059-.975-4.878-2.926-7.805-7.8-6.829-16.584,0-33.168.975-48.776.975-8.78,0-10.731,3.9-10.731,12.682V767.08c0,2.927.975,4.878,0,7.8-.976,1.951-2.927,4.877-4.878,4.877-26.339.976-52.678,0-79.017,0ZM12.5,501.738C12.5,770.007,230.042,989.5,501.238,989.5,769.507,989.5,989,771.958,989,500.762,989,232.493,770.483,13,501.238,13,231.017,13,12.5,230.542,12.5,501.738Z"></path></svg>