<svg xmlns="http://www.w3.org/2000/svg" viewBox="0 0 1000 1000" fill="#3B9AF7"><path d="M749.728 72.253C672.585 27.45 589.21 5 499.508 5c-89.012 0-172.09 22.45-249.232 67.253-74.473 44.209-133.814 103.55-178.023 178.023C27.451 327.419 5 410.694 5 500.002c0 89.308 22.45 172.583 67.253 249.726C116.462 824.2 175.803 883.54 250.276 927.75c77.143 44.803 160.418 67.253 249.726 67.253 89.308 0 172.583-22.45 249.726-67.253C824.2 883.541 883.54 824.2 927.75 749.728c44.803-77.143 67.253-160.418 67.253-249.726 0-89.308-22.45-172.583-67.253-249.726-44.209-74.473-103.55-133.814-178.022-178.023zM239.396 539.068c4.945-19.78 10.88-38.572 17.803-59.341 9.89-23.737 24.725-21.758 42.527-21.758h192.858s9.89 0 7.912 5.934c-4.945 18.79-7.912 33.626-15.824 52.417-8.901 22.748-16.813 27.693-39.56 27.693H248.297s-11.869 0-8.902-4.945zm79.122 159.231c2.967-19.78 8.9-39.56 11.868-58.352 0-11.868 5.934-13.846 15.824-13.846 48.462 1.978 98.901 1.978 146.374 1.978 187.913 0 238.352-251.21 58.352-251.21H374.89c5.934-27.692 8.901-52.417 14.836-78.132 1.978-7.912 4.945-7.912 9.89-7.912 208.682 0 350.11 1.978 360.99 128.572 2.967 69.231-10.88 136.484-47.473 194.836-36.593 61.319-91.978 92.967-162.198 94.945-72.198 2.967-148.352 2.967-220.55 2.967-11.868 0-14.836-2.967-11.868-13.846z"></path></svg>