<svg xmlns="http://www.w3.org/2000/svg" viewBox="0 0 1000 1000" fill="#0090FF"><path d="M500.496 5C223.572 5 5 229.506 5 500.002c0 276.43 224.506 495.001 495.002 495.001 276.43 0 495.001-224.506 495.001-495.001C995.003 226.539 773.464 5 500.496 5zM271.045 770.497c0-34.615 37.582-36.593 54.396 2.967 8.9 17.802 31.648 20.77 53.406 6.923 37.583-37.582 55.385-129.56 77.144-233.407v-9.89l-124.616-20.77 2.967-33.626 130.55 15.824 14.835-70.22L346.21 406.54l6.923-35.605 138.462 21.759c5.934-16.814 5.934-28.682 10.88-39.561 25.714-104.836 76.153-184.946 162.198-178.023 37.582 0 79.12 38.572 54.395 59.341-19.78 21.759-34.615 1.978-49.45-19.78-26.704-39.56-64.286-7.912-81.1 37.583-13.846 46.483-25.714 96.923-42.527 149.34l123.627 16.814-4.945 38.572-123.627-21.759-16.813 74.176 134.505 20.77-10.879 33.626-128.572-16.813c-9.89 26.703-16.813 59.34-27.692 88.022-11.868 32.638-21.758 62.308-35.604 94.945-18.792 40.55-48.462 71.21-91.979 76.155-33.626 6.923-92.967-13.847-92.967-35.605z"></path></svg>