<svg xmlns="http://www.w3.org/2000/svg" viewBox="0 0 1000 1000" fill="#1176A8"><path d="M5 500.496c0 271.98 220.55 494.507 495.496 494.507 271.98 0 494.507-220.55 494.507-495.496C995.003 227.528 773.464 5 500.496 5 226.54 5 5 225.55 5 500.496zm214.616 243.298v-3.956c44.506-44.506 89.011-86.045 135.495-131.54 10.88-11.867 23.736-25.714 36.594-37.582 70.22-69.23 172.088-69.23 243.297 0 54.396 54.396 109.78 109.78 165.166 163.188.989 2.967 4.945 5.934 6.923 7.912v1.978c-24.726 0-52.418 1.978-80.11 0-4.946 0-9.89-1.978-11.869-6.923-42.527-41.539-84.066-82.089-126.594-123.627-44.505-42.528-105.824-42.528-151.319 0-41.538 41.538-82.088 82.088-126.594 123.627-2.967 4.945-10.879 6.923-16.813 6.923-25.714 1.978-48.462 0-74.176 0zm0-484.617v-.99h80.11c3.956 0 8.901 2.968 10.88 4.946 43.516 41.538 82.088 83.077 123.626 121.648 48.462 46.484 109.78 46.484 157.253 0 41.54-38.571 81.1-80.11 121.65-119.67 5.933-3.956 10.878-6.923 17.802-6.923h76.154c-3.956 2.967-5.934 6.923-6.923 8.9L628.079 433.244c-64.286 63.297-168.132 63.297-232.418 0-58.352-58.352-117.693-114.725-176.045-174.066z"></path></svg>