<svg xmlns="http://www.w3.org/2000/svg" viewBox="0 0 1000 1000" fill="#F7931A"><path d="M5 500.496v-.989c0 90 22.747 173.078 67.253 250.22 44.506 74.177 103.846 133.518 178.023 178.023 77.143 44.506 160.22 67.253 250.22 67.253 89.011 0 172.089-22.747 249.232-67.253 74.176-44.505 133.517-103.846 178.022-178.022 44.506-77.143 67.253-160.22 67.253-250.22 0-89.012-22.747-172.09-67.253-249.232-44.505-74.177-103.846-133.517-178.022-178.023C672.585 27.747 589.508 5 500.496 5c-90 0-173.077 22.747-250.22 67.253-74.177 44.506-133.517 103.846-178.023 178.023C27.747 327.419 5 410.496 5 500.496zm736.816 30.66c29.67 71.209-4.945 147.363-82.089 170.11-23.736 6.923-45.494 7.912-77.143 10.88v90.989h-56.373v-90h-42.528v90H426.32v-90H315.55l11.869-68.243h32.637c15.824 0 27.693-3.956 27.693-23.736V385.77c0-23.736-10.88-34.615-41.54-34.615H315.55v-57.363h110.77v-90.99h57.363v90.99h42.528v-90.99h56.373v90.99c22.748.99 39.56 2.967 56.374 6.923 92.968 21.759 110.77 121.649 30.66 180 34.615 9.891 55.384 19.781 72.198 50.44zM483.683 355.11v111.76h15.824c59.341 0 116.704-5.934 114.726-57.363 0-54.396-65.275-54.396-130.55-54.396zm0 168.132V645.88c80.11 0 154.286-4.945 154.286-63.297 0-30.66-18.791-43.516-53.407-54.395-32.637-9.89-54.395-5.935-100.88-4.946z"></path></svg>