<svg xmlns="http://www.w3.org/2000/svg" viewBox="0 0 1000 1000" fill="#333333"><path d="m391.705 460.936-27.693-82.089 119.67-155.275v93.956zM5 500.002c0-89.308 22.45-172.583 67.253-249.726 44.209-74.473 103.55-133.814 178.023-178.023C327.419 27.45 410.793 5 500.496 5c89.011 0 172.089 22.45 249.232 67.253C824.2 116.462 883.54 175.803 927.75 250.276c44.803 77.143 67.253 160.418 67.253 249.726 0 89.308-22.45 172.583-67.253 249.726C883.541 824.2 824.2 883.54 749.728 927.75c-77.143 44.803-160.418 67.253-249.726 67.253-89.308 0-172.583-22.45-249.726-67.253-74.473-44.209-133.814-103.55-178.023-178.022C27.451 672.585 5 589.31 5 500.002zm242.309 191.374c-.693 3.264-.297 6.725.989 10.385 1.285 3.659 3.659 6.131 6.923 7.417l236.374 131.54c5.242 2.67 10.88 2.67 16.813 0l236.375-131.54c3.263-1.286 5.637-3.758 6.923-7.417 1.286-3.66 1.681-7.121.989-10.385l-83.077-319.452c-.693-1.978-1.682-3.956-2.967-5.934L513.353 164.231c-3.263-4.648-7.714-6.923-13.351-6.923-5.638 0-10.088 2.275-13.352 6.923l-155.275 201.76c-1.286 1.977-2.275 3.955-2.967 5.933zm46.483-12.857 89.011-140.44 48.462 140.44zm11.868-81.1 41.54-163.186 21.758 63.297zm22.748 114.726h114.725l26.704 78.132zm77.143-210.66 94.945-148.352 92.968 147.363-61.32 178.023H466.87zm73.187 210.66h42.527l-21.758 62.308zm37.582-394.617v-93.956l118.682 155.275-27.692 81.1zm12.858 472.75 27.692-78.133h114.726zm38.571-111.76 48.462-142.417 90 142.418zm62.308-182.967 20.77-61.319 42.527 162.199z"></path></svg>