<svg xmlns="http://www.w3.org/2000/svg" viewBox="0 0 1000 1000" fill="#5CCB79"><path d="M5 499.507c0-89.011 22.747-172.088 67.253-249.231 44.506-74.177 103.846-133.517 178.023-178.023C327.419 27.747 410.496 5 500.496 5c89.011 0 172.089 22.747 249.232 67.253 74.176 44.506 133.517 103.846 178.022 178.023 44.506 77.143 67.253 160.22 67.253 249.231 0 90-22.747 173.078-67.253 250.22-44.505 74.177-103.846 133.518-178.022 178.023-77.143 44.506-160.22 67.253-249.232 67.253-90 0-173.077-22.747-250.22-67.253-74.177-44.505-133.517-103.846-178.023-178.022C27.747 672.585 5 589.508 5 499.508zm199.78 75.165c13.847 53.407 39.561 99.89 78.133 138.462 37.583 38.572 82.088 64.286 133.517 79.121 52.418 14.836 105.824 15.825 159.231 1.978 53.407-12.857 99.89-39.56 138.462-78.132 38.572-37.582 64.286-82.088 79.121-132.528 14.836-52.417 15.825-105.824 1.978-159.231-10.879-45.495-31.648-86.044-61.318-120.66-28.682-34.615-63.297-61.319-103.847-80.11-40.55-18.791-84.066-28.681-129.56-28.681-25.715 0-51.43 2.967-76.155 8.9-53.407 13.847-99.89 40.55-138.462 79.122-38.571 36.594-64.286 81.1-79.121 132.528-14.835 52.418-15.824 105.824-1.978 159.231zm129.562-176.044 9.89 38.571 20.77-5.934c10.878-2.967 17.801-2.967 21.758 0 2.967 1.978 4.945 3.956 5.934 5.934.989 1.978 2.967 4.945 3.956 9.89l38.571 151.32c.99 4.945.99 7.912-.989 10.879-1.978 2.967-5.934 5.934-12.857 7.912l-21.758 4.945 3.956 45.495 71.209-17.803 14.835 58.352 36.594-9.89-14.836-58.352 27.693-6.923 14.835 58.352 36.593-8.901-14.835-59.341c9.89-2.967 17.803-5.934 22.748-7.912h.989c21.758-8.901 38.571-19.78 49.45-33.627 8.901-9.89 13.847-20.769 14.836-33.626.989-10.88 0-22.748-2.968-36.594-4.945-22.747-16.813-37.582-34.615-44.505-5.934-2.967-12.857-4.945-21.758-5.934h-11.868c8.9-8.902 13.846-15.825 16.813-22.748 3.956-8.9 4.945-19.78 2.967-31.648-1.978-7.912-4.945-15.824-7.912-22.748-6.923-11.868-15.825-19.78-26.704-24.725-18.791-7.912-42.527-8.901-70.22-2.967l-15.824-59.34-36.593 8.9 15.824 58.352-28.682 6.923-14.835-58.352-36.593 9.89 15.824 58.352zm118.681 13.846c7.913-2.967 15.825-4.945 22.748-6.923 12.857-2.967 22.747-3.956 31.648-3.956h5.934c7.912.989 14.836 2.967 20.77 6.923 4.945 3.956 8.9 8.9 10.879 15.824 3.956 12.857 1.978 22.747-6.923 31.649-8.901 8.9-21.759 14.835-36.594 18.79l-30.66 7.913zm27.693 106.813c14.835-4.945 28.681-7.912 40.55-10.879 8.9-.989 16.813-1.978 25.714-1.978 6.923 0 11.868 0 16.813.99 14.835 2.966 23.736 10.878 26.703 23.736 1.979 7.912 1.979 14.835-.989 21.758-1.978 3.956-4.945 7.912-9.89 12.857-8.9 7.912-21.758 14.835-39.56 20.77l-25.715 6.922-13.846 3.957z"></path></svg>