<svg xmlns="http://www.w3.org/2000/svg" viewBox="0 0 1000 1000" fill="#0F61E2"><path d="M5 499.507C5.494 226.045 225.847 5 500.002 5c270.495 0 495.001 218.572 495.001 495.002 0 270.495-218.572 495.001-495.001 495.001C229.506 995.003 5 776.431 5 499.507zm116.704-1.978c-.99 4.945.989 9.89 3.956 13.846 2.967 2.967 7.912 4.945 12.857 4.945 4.945 0 8.901-.989 12.857-3.956 4.945-2.967 5.934-7.912 5.934-12.857.99-4.945 0-9.89-3.956-13.846-3.956-1.978-7.912-4.945-12.857-4.945-4.945-.99-9.89 1.978-11.868 3.956-3.956 2.967-6.923 6.923-6.923 12.857zm73.187-159.231c0 5.934 3.956 10.879 8.9 13.846 5.935 3.956 10.88 4.945 16.814 3.956 6.923-1.978 11.868-4.945 14.835-8.901 3.956-5.934 4.945-12.857 3.956-17.802-.989-5.934-4.945-10.88-10.879-14.836-4.945-2.967-10.879-4.945-15.824-2.967-6.923.99-11.868 3.956-14.835 9.89-2.967 4.946-3.956 11.869-2.967 16.814zm.989 317.473c-1.978 5.934-1.978 10.88.989 17.803 2.967 4.945 7.912 8.9 12.857 10.879 4.945 1.978 11.868 1.978 17.802-.99 4.945-2.966 9.89-7.911 11.868-12.856.99-6.923.99-12.858-1.978-17.803-2.967-4.945-6.923-9.89-12.857-11.868-5.934-1.978-10.879-1.978-17.802 1.978-5.934 2.967-8.901 6.923-10.88 12.857zm11.868-159.23c-.99 6.922.989 14.834 5.934 19.78 5.934 6.922 11.868 8.9 19.78 8.9 6.923.99 13.847-1.978 18.792-6.923 5.934-4.945 8.9-11.868 9.89-18.79 0-5.935-1.978-14.836-7.912-18.792-3.956-5.934-11.869-8.901-18.792-9.89-7.912 0-13.846 2.967-19.78 6.923-3.956 5.934-7.912 10.879-7.912 18.791zm84.066-94.946c1.978 8.9 6.923 14.835 13.846 19.78s14.836 6.923 23.737 4.945c7.912-1.978 15.824-6.923 20.769-13.846 4.945-7.912 5.934-14.835 3.956-22.747-1.978-8.902-5.934-15.825-13.846-20.77-5.934-4.945-14.835-6.923-23.736-4.945-7.913 1.978-15.825 6.923-20.77 13.846-4.945 7.912-4.945 14.836-3.956 23.737zm1.978 188.901c-2.967 8.902-2.967 17.803 1.978 24.726 2.967 7.912 9.89 12.857 17.802 15.824 7.913 2.967 15.825 2.967 23.737-1.978 9.89-3.956 12.857-9.89 15.824-17.802 3.956-8.901 2.967-16.813-1.978-23.737-2.967-6.923-8.901-13.846-16.813-16.813-9.89-2.967-17.802-.989-25.715 1.978-6.923 3.956-12.857 8.901-14.835 17.802zm8.901-411.43c-1.978 4.946-1.978 9.89.99 12.858 1.977 5.934 4.944 7.912 9.89 8.9 4.945 1.979 8.9 1.979 14.835-.988 4.945-1.978 7.912-4.945 7.912-8.901.989-4.945.989-9.89 0-14.836-1.978-3.956-5.934-5.934-10.88-7.912-4.944-1.978-9.89-1.978-13.846.99-2.967 1.977-6.923 3.955-8.9 9.89zm.99 635.937c.988 5.934 3.955 9.89 6.922 11.868 3.956 1.978 8.902 3.956 13.847 1.978 5.934-.99 9.89-2.967 11.868-6.923 1.978-3.956 3.956-8.901 1.978-12.857-.99-5.934-1.978-9.89-6.923-11.869-4.945-3.956-8.901-3.956-12.857-2.967-5.935.99-9.89 3.956-11.869 7.913-3.956 4.945-3.956 8.9-2.967 12.857zm24.725-320.44c0 15.823 4.945 28.68 13.846 38.57 9.89 11.869 26.703 18.792 39.56 18.792 13.847-.99 25.715-5.934 36.594-15.824 9.89-9.89 14.835-22.748 14.835-35.605 1.978-15.824-1.978-27.692-12.857-37.582-8.901-9.89-20.77-15.825-35.605-16.814-15.824-1.978-27.692 2.967-37.582 11.869-10.88 9.89-17.802 21.758-18.791 36.593zm12.857-237.364c-1.978 7.912-1.978 14.835 1.978 21.758 3.956 5.934 7.912 10.88 15.824 13.846 6.923 1.978 14.835.99 19.78-1.978 6.924-2.967 11.869-7.912 14.836-14.835.989-7.912.989-14.835-1.978-21.758-2.967-5.935-7.913-10.88-15.825-13.847-7.912-1.978-13.846-.989-19.78 1.978-6.923 2.967-11.868 7.913-14.835 14.836zm.989 477.694c.989 7.912 4.945 12.857 10.879 16.813 6.923 4.945 13.846 5.934 21.758 3.956 5.934-.99 11.869-4.945 15.825-11.868 3.956-4.945 4.945-11.869 3.956-19.78-.99-6.924-5.934-12.858-10.88-17.803-6.923-2.967-12.857-3.956-19.78-2.967-7.912 0-13.846 5.934-17.802 11.868-4.945 5.934-5.934 13.846-3.956 19.78zm48.462-122.638c1.978 14.835 9.89 24.725 22.747 34.615 7.912 3.956 17.802 7.912 28.681 7.912 7.912 0 16.814-1.978 24.726-5.934 7.912-3.956 14.835-11.868 19.78-17.802 6.923-11.868 10.88-24.725 6.923-39.56-3.956-13.847-10.88-24.726-22.747-33.627-8.901-4.945-18.792-7.912-28.682-7.912-9.89 0-18.791 1.978-24.725 4.945-8.901 4.945-14.835 11.868-19.78 17.802-7.912 12.857-9.89 26.704-6.923 39.56zm0-235.386c-3.956 12.858-2.967 26.704 3.956 40.55 3.956 8.901 9.89 15.824 18.79 20.77 8.902 5.933 18.792 7.911 28.682 7.911 7.912 0 16.814-1.978 22.748-4.945 13.846-6.923 21.758-17.802 25.714-30.66 5.934-13.845 3.956-28.68-1.978-40.549-4.945-8.9-11.868-16.813-18.791-21.758-8.901-3.956-17.803-6.923-27.693-6.923s-16.813 1.978-24.725 5.934c-12.857 5.934-22.747 16.813-26.703 29.67zm78.132 325.386c-.99 7.912 1.978 14.835 7.912 21.758 4.945 6.923 12.857 9.89 21.758 10.88 8.901.989 15.824-2.968 21.758-7.913 6.924-4.945 9.89-12.857 10.88-21.758.989-8.901-2.967-15.824-7.912-21.758-4.946-6.923-12.858-9.89-21.759-10.88-8.9-.988-15.824 2.968-21.758 7.913-6.923 4.945-9.89 11.868-10.88 21.758zm1.978-412.419c-.99 8.901 1.978 16.813 6.923 22.747 5.934 6.924 12.857 9.89 21.758 10.88 8.901 0 15.824-1.978 22.747-8.902 4.946-4.945 9.89-10.879 10.88-20.769 0-7.912-2.967-15.824-7.912-22.747-6.924-5.934-13.847-9.89-22.748-10.88-7.912-.988-15.824 1.979-21.758 7.913-6.923 5.934-9.89 12.857-9.89 21.758zm6.923 536.046c-.99 6.923 1.978 11.868 5.934 15.824 3.956 4.945 9.89 6.923 15.824 6.923 4.945.99 10.88-.989 15.824-4.945 4.945-3.956 6.923-9.89 6.923-15.824.99-4.945-.989-10.88-4.945-15.824-3.956-4.945-9.89-6.923-15.824-7.912-5.934-.99-11.868 1.978-15.824 4.945-4.945 4.945-7.912 10.879-7.912 16.813zm.989-658.684c-.99 4.945.989 11.868 5.934 16.814 3.956 4.945 9.89 6.923 14.835 6.923 5.934.989 11.868 0 16.813-5.934 4.945-3.956 6.924-9.89 7.913-14.836 0-7.912-2.968-12.857-6.924-16.813-3.956-3.956-7.912-6.923-15.824-6.923-5.934-.989-11.868 1.978-14.835 5.934-5.934 3.956-7.912 9.89-7.912 14.835zm30.66 236.375c3.955 14.835 10.878 25.714 22.747 34.615 8.9 4.945 18.79 7.912 29.67 7.912 8.901 0 17.802-1.978 23.736-5.934 8.902-3.956 15.825-10.879 19.78-17.802 7.913-12.857 9.89-25.714 7.913-39.56-2.967-13.847-9.89-24.726-22.748-33.627-8.9-4.945-17.802-7.912-28.68-7.912-7.913 0-17.803 1.978-24.726 5.934-9.89 3.956-15.825 10.88-19.78 16.813-7.913 11.868-10.88 25.715-7.913 39.56zm2.966 180.99c-4.945 14.835-2.967 28.68 1.978 41.538 4.945 8.901 12.858 15.824 19.78 20.77 7.913 3.955 17.803 7.911 27.693 7.911 7.912 0 15.824-1.978 23.736-5.934 13.847-6.923 22.748-17.802 26.704-29.67 3.956-13.846 2.967-27.693-2.967-40.55-4.945-9.89-11.868-16.813-19.78-21.758-7.913-4.945-17.803-7.912-27.693-6.923-7.912 0-16.813 1.978-23.736 3.956-12.857 7.912-21.759 17.802-25.715 30.66zm56.374-90c-.989 13.845 3.956 27.691 13.846 38.57 10.88 9.89 21.759 16.814 36.594 17.803h3.956c12.857 0 25.714-5.934 35.604-14.835 9.89-9.89 15.825-22.748 15.825-35.605 1.978-15.824-3.956-27.692-12.858-37.582-10.879-10.88-21.758-16.814-37.582-17.803-14.835-.989-27.692 2.967-37.583 12.858-10.879 9.89-16.813 21.758-17.802 36.593zm39.56-229.452c-.988 3.956.99 9.89 1.979 12.857 1.978 4.945 5.934 7.912 9.89 10.88 2.967 2.966 7.912 4.944 12.857 4.944 4.945 0 9.89-.989 13.846-2.967 3.956-2.967 7.912-5.934 10.88-10.88 3.955-4.944 4.945-13.845 3.955-19.78-.989-6.922-5.934-12.857-11.868-16.813-6.923-3.956-13.846-4.945-20.769-3.956-5.934.99-12.857 4.945-17.802 11.869-1.978 2.967-2.967 7.912-2.967 13.846zm.99 454.946c-.99 6.923-.99 13.847 1.978 21.759 2.967 4.945 8.9 9.89 15.824 12.857 7.912 2.967 14.835 1.978 20.77-1.978 5.933-1.978 11.867-7.912 13.845-14.835 1.979-6.924 1.979-14.836-.989-20.77-3.956-5.934-9.89-11.868-16.813-13.846-7.912-1.978-13.846-.989-20.77.99-5.933 2.966-10.878 8.9-13.845 15.823zm40.55-112.747c.988 6.923 4.944 13.846 12.857 19.78 6.923 3.956 14.835 5.934 24.725 3.956 6.923-1.978 14.835-5.934 19.78-12.857 4.945-8.901 5.934-15.824 3.956-23.737-1.978-9.89-6.923-14.835-12.857-20.769-7.912-3.956-15.824-5.934-24.725-3.956-7.912.99-14.836 5.934-20.77 12.857-3.956 7.912-4.945 15.825-2.967 24.726zm0-223.518c-2.968 8.902-1.979 17.803.988 24.726 3.956 7.912 10.88 12.857 18.792 15.824 8.9 3.956 17.802 1.978 23.736-1.978 7.912-3.956 13.846-8.901 15.824-17.802 3.956-8.901 2.967-16.813-.989-23.737-3.956-8.9-9.89-13.846-17.802-16.813-8.901-1.978-16.813-1.978-25.714 1.978-7.913 4.945-12.858 9.89-14.836 17.802zm13.846-196.813c.989 4.945 3.956 9.89 7.912 11.868 5.934 2.967 8.9 2.967 13.846 1.978 5.934-.99 8.901-2.967 12.857-7.912 1.978-3.956 1.978-7.912.989-11.868 0-6.924-2.967-9.89-7.912-11.869-1.978-2.967-7.912-4.945-12.857-2.967-5.934.99-8.901 3.956-11.868 6.923-2.967 3.956-3.956 8.902-2.967 13.847zm2.967 631.98c2.967 3.956 5.934 6.923 10.879 7.912 4.945 1.978 10.879 1.978 13.846 0 3.956-.99 7.912-4.945 8.901-9.89 1.978-4.945 1.978-9.89-.989-13.846-.989-3.957-5.934-7.913-8.901-8.902-4.945-1.978-10.88-1.978-14.835.99-4.945 2.966-7.912 4.944-8.901 9.89-1.978 3.956-1.978 8.9 0 13.846zm75.165-323.408c-.99 6.923 1.978 14.835 5.934 18.791 5.934 6.923 11.868 8.901 19.78 9.89 6.923.99 14.835-1.978 18.791-6.923 5.934-4.945 8.901-10.879 8.901-18.79.99-5.935-.989-13.847-5.934-19.781-4.945-5.934-11.868-7.912-18.79-7.912-6.924-.99-13.847.989-19.781 5.934-4.945 5.934-7.912 11.868-8.901 18.791zm22.747 170.11c.989 6.924 3.956 10.88 9.89 14.836 4.945 3.956 10.88 4.945 16.813 3.956 5.934-.99 10.88-4.945 13.847-8.901 3.956-6.923 4.945-12.858 3.956-18.792-.99-5.934-4.945-9.89-8.901-13.846-5.935-3.956-12.858-4.945-16.814-3.956-7.912 1.978-11.868 5.934-15.824 9.89-2.967 5.934-3.956 11.868-2.967 16.814zm0-341.21c-1.978 6.924-1.978 11.869.989 18.792 2.967 4.945 7.912 8.901 12.857 9.89 6.923 2.967 11.868 2.967 17.802-.989 5.935-1.978 8.902-6.923 10.88-11.868 2.967-5.934 2.967-11.868-.99-17.802-2.966-5.935-6.923-8.902-11.868-10.88-6.923-2.967-11.868-2.967-18.79.99-3.957 1.977-9.891 6.923-10.88 11.868zm81.1 171.1c-.99 4.945.988 9.89 4.944 13.846 2.967 2.967 6.923 4.945 11.868 4.945 5.934.99 9.89-.989 12.858-2.967 3.956-3.956 5.934-6.923 5.934-12.857.989-4.945-.99-10.879-2.967-13.846-3.956-3.956-8.901-5.934-12.858-5.934-4.945-.99-10.879.989-13.846 4.945-3.956 1.978-5.934 7.912-5.934 11.868z"></path></svg>