<svg xmlns="http://www.w3.org/2000/svg" viewBox="0 0 1000 1000" fill="#B2539F"><path d="M500.496 5C223.572 5 5 229.506 5 500.002c0 276.43 224.506 495.001 495.002 495.001 276.43 0 495.001-224.506 495.001-495.001C995.003 226.539 773.464 5 500.496 5zM258.188 812.036c-1.978-5.934 0-12.858 0-21.759 0-133.517-1.978-269.012 0-402.528 0-118.682 72.198-211.65 184.945-242.309 127.583-35.605 267.034 51.429 290.77 181.979 4.946 19.78 6.924 42.527 6.924 60.33v416.375c0 23.736-13.847 36.593-30.66 36.593-14.835 0-28.681-12.857-28.681-34.615-.99-23.737 0-48.462-.99-71.21 0-14.835-8.9-22.747-23.736-22.747-11.868 0-19.78 7.912-19.78 22.748v19.78c0 8.901 0 14.835-2.967 20.77-5.934 16.812-14.835 23.735-30.66 23.735-17.802-.989-23.736-8.9-26.703-27.692 0-10.88 0-24.725-.989-34.615 0-13.847-7.912-25.715-24.725-24.726-11.868 0-18.791 7.912-21.758 22.748 0 2.967 0 5.934-.99 11.868-3.955 16.813-13.846 25.714-28.68 25.714-15.825 0-24.726-8.901-30.66-25.714 0-8.901 0-11.868-1.978-17.803-1.978-10.879-10.88-14.835-22.748-14.835-9.89 0-16.813 5.934-17.802 17.802 0 5.935 0 14.836-3.956 23.737 0 9.89-1.978 19.78-3.956 27.692-6.923 14.835-17.802 15.824-29.67 15.824-13.847-.989-22.748-9.89-22.748-23.736-.989-11.868 0-26.703-.989-38.571-1.978-16.814-13.846-24.726-25.714-22.748-13.846 3.956-19.78 11.868-22.747 23.737v74.176c-2.968 16.813-12.858 28.681-28.682 28.681-14.835 2.967-26.703-11.868-29.67-28.681zM374.89 365c0 22.748 16.814 45.495 36.594 45.495 20.77 0 37.582-22.747 37.582-49.45 0-24.726-14.835-39.561-38.571-39.561-21.758 0-35.605 16.813-35.605 43.516zm91.979 85.055c5.934 20.77 16.813 29.67 36.593 29.67 15.824-1.977 24.726-8.9 28.682-29.67zm80.11-89.01c0 23.735 16.813 46.483 38.571 49.45 19.78 0 37.583-16.813 40.55-40.55.989-25.714-15.824-48.461-37.583-51.428-17.802 0-38.571 19.78-41.538 42.527z"></path></svg>