<svg xmlns="http://www.w3.org/2000/svg" viewBox="0 0 1000 1000" fill="#3E1BDB"><path d="M500.496 5C223.572 5 5 229.506 5 500.002c0 276.43 224.506 495.001 495.002 495.001 276.43 0 495.001-224.506 495.001-495.001C995.003 226.539 773.464 5 500.496 5zM157.308 711.156c0-2.967.99-3.956 3.956-6.923 70.22-35.604 141.43-71.209 210.66-106.813 77.143-40.55 154.287-78.133 229.452-117.693 58.351-28.682 116.703-59.341 174.066-88.022 23.736-12.858 46.484-23.737 70.22-35.605 0 0 1.978 0 2.967-.989v54.396c0 2.967 0 4.945-2.967 4.945-8.901 5.934-16.813 8.901-25.714 13.846-18.791 12.857-26.704 30.66-23.737 54.396 1.978 35.604-2.967 70.22-13.846 104.835-13.846 44.506-37.582 84.067-70.22 116.704-24.725 27.692-55.385 47.473-88.022 63.297-44.506 20.77-90 28.681-137.473 25.714-56.374-3.956-106.814-21.758-153.297-53.406 0 0 0-2.967-.99-2.967 6.924-3.956 14.836-7.913 21.759-10.88 9.89-4.945 18.791-9.89 29.67-14.835h4.946c26.703 14.835 55.384 23.737 86.044 25.715 26.703 4.945 54.396 3.956 80.11-2.967 36.593-7.913 69.231-22.748 97.912-46.484 40.55-33.627 68.242-74.176 82.089-123.627 5.934-25.714 7.912-51.429 6.923-76.154 0-6.923-.99-11.868-1.978-17.802L158.298 766.54v-6.923c0-15.824 0-32.638-.99-48.462zm.99-64.286v-33.626c0-7.912-.99-14.835 0-22.748 0-1.978.988-2.967 2.966-3.956 6.923-4.945 17.803-9.89 25.715-14.835 16.813-10.879 24.725-26.703 24.725-45.494v-45.495c.989-34.616 10.88-68.242 24.725-100.88 22.748-49.45 57.363-90 103.847-121.648 35.604-23.737 75.165-39.56 116.704-46.484 35.604-5.934 69.23-5.934 102.857 2.967 40.55 6.923 80.11 22.747 112.748 48.462h2.967c-17.803 8.9-35.605 18.791-53.407 27.692 0 .99-4.945 0-5.934-.989-20.77-10.88-43.517-19.78-67.253-24.725-43.517-8.901-85.055-4.945-127.583 10.879-67.253 24.725-115.715 72.198-142.418 140.44-12.857 34.615-17.802 71.209-14.835 106.813 1.978 2.968 1.978 4.946 2.967 8.902 193.847-99.89 387.693-197.803 581.54-297.694v57.363c0 1.978 0 2.967-2.967 4.945-59.34 30.66-120.66 60.33-180.99 90.99-72.198 37.582-145.385 75.165-218.572 112.747-55.384 27.693-109.78 55.385-166.154 84.066-39.56 19.78-78.132 39.56-118.682 60.33 0 1.978-1.978 1.978-2.967 1.978z"></path></svg>