<svg xmlns="http://www.w3.org/2000/svg" viewBox="0 0 1000 1000" fill="#CB07C1"><path d="M477.976,282.3c24.471,0,47.963,7.83,70.476,17.619a375.86,375.86,0,0,1,121.376,88.095c16.64,18.6,31.322,39.153,38.174,62.645,1.958,6.852,3.916,12.725,3.916,19.577-.979,16.64-12.725,26.428-30.344,27.407-20.556,1.958-42.09-1.957-61.667-8.809-55.793-20.556-102.777-52.857-141.931-95.926-15.661-16.64-28.386-35.238-36.217-55.794a96.292,96.292,0,0,1-4.894-15.661c-3.915-21.534,7.831-37.2,30.344-39.153ZM266.548,261.747h0V268.6c.979,2.936,2.936,5.873,6.852,3.915,1.957,0,2.936-2.936,3.915-5.873,0-2.936,0-6.852-.979-9.788-.979-1.958-3.915-3.915-5.873-3.915-.979,0-2.936,2.936-3.915,3.915S266.548,259.789,266.548,261.747ZM691.362,633.7c.979-.979,3.915-1.957,3.915-3.915s-.978-4.894-2.936-4.894c-6.852-2.937-12.725-3.916-19.577-4.894-1.957-.979-3.915.978-5.873,2.936.979,1.958,1.958,4.894,2.937,4.894C676.68,630.768,683.531,631.747,691.362,633.7Zm65.582,8.81c9.788-.979,18.6-.979,27.407-1.958,3.916-.979,6.852-1.958,5.873-5.873s-3.915-3.915-6.851-3.915c-18.6,2.936-37.2,1.957-54.815,0a75.54,75.54,0,0,0-14.683-1.958c-1.957,0-3.915,2.937-5.873,3.915,1.958,1.958,2.937,3.916,3.916,4.895s1.957.978,3.915.978C729.537,639.577,744.219,641.535,756.944,642.514ZM277.315,283.282h-2.936c-.979,2.936-2.937,4.894-2.937,6.851-.979,2.937.979,5.873,1.958,8.81,8.809,32.3,25.45,60.688,45.026,87.116,32.3,43.069,71.455,81.243,112.566,116.481,2.937,1.958,5.873,2.937,8.81,0,2.936-3.915,0-5.873-2.937-8.809-27.407-23.492-54.815-48.942-79.285-76.349-18.6-20.556-35.238-42.09-48.942-64.6C296.892,333.2,287.1,312.647,281.23,291.112,281.23,288.176,278.294,286.218,277.315,283.282ZM382.05,169.737a143.77,143.77,0,0,0-45.026,6.852c-12.725,4.894-24.471,12.724-31.323,24.47-10.767,16.641-11.746,35.238-8.809,54.815,5.873,28.386,17.619,53.836,33.28,78.307,30.344,48.942,68.519,89.074,111.587,126.27,42.09,36.216,87.117,67.539,136.058,92.989,42.09,22.513,87.117,42.09,135.08,50.9,27.407,5.873,55.793,8.81,83.2,2.937,38.175-6.852,58.731-35.238,55.794-70.476a216.379,216.379,0,0,0-17.619-60.688c-18.6-38.175-44.048-71.455-72.434-101.8a716.72,716.72,0,0,0-120.4-103.756C588.585,234.34,531.812,204,471.124,185.4,441.759,176.589,412.394,170.716,382.05,169.737ZM619.907,843.175c-38.174-.979-70.476-7.831-102.777-18.6-69.5-21.534-132.143-56.772-190.873-99.841-27.407-19.577-53.836-41.111-78.307-65.582C207.818,620.979,171.6,578.89,147.13,528.969c-14.682-27.407-25.45-56.772-24.471-88.1a85.894,85.894,0,0,1,17.619-52.857c47.963-67.54,95.926-134.1,143.889-201.64,15.661-22.513,38.175-34.259,64.6-39.153,37.2-6.852,73.413-1.958,108.651,6.851,49.92,12.725,96.9,34.26,140.952,58.73a749.528,749.528,0,0,1,124.312,88.1c46.005,39.153,86.137,82.222,117.46,133.121,15.661,24.471,27.407,49.921,34.259,78.307,4.894,24.471,6.852,47.963-4.894,70.476-5.873,13.7-14.682,25.45-23.492,37.2-43.069,59.708-86.137,119.417-128.227,179.126-17.619,25.45-43.069,37.2-72.434,41.111C635.569,842.2,625.78,842.2,619.907,843.175ZM110.913,435.98c.979,37.195,8.81,63.624,21.535,89.074,13.7,29.365,31.322,54.814,50.9,80.264,28.386,36.217,61.667,68.518,96.905,97.883,38.174,31.323,78.306,59.709,121.375,83.2,58.73,32.3,120.4,57.752,188.915,65.582,26.429,3.916,52.857,2.937,79.286-5.873,21.534-5.873,40.132-17.619,53.836-37.195,10.767-13.7,21.534-28.387,31.322-43.069,32.3-44.048,63.625-88.1,94.947-132.143,8.81-11.746,17.619-23.492,25.45-36.217,14.683-23.492,15.661-49.92,11.746-77.328-4.894-35.238-20.555-66.56-39.153-95.925C823.505,385.08,794.14,351.8,760.859,319.5A742.691,742.691,0,0,0,641.442,225.53c-57.752-36.217-117.461-66.56-184.021-82.222-36.217-9.788-72.434-14.682-109.63-6.852-28.386,4.9-52.857,16.641-70.476,39.154-5.873,8.809-11.746,16.64-17.619,25.449L133.426,377.25C118.744,397.805,110.913,419.339,110.913,435.98ZM893.981,548.546c-1.958,7.83-3.915,20.555-6.852,32.3-3.915,15.662-14.682,26.429-22.513,39.154l-29.365,41.111c-17.619,23.492-34.259,46.005-50.9,69.5-4.894,6.852-8.809,14.682-14.682,21.534-9.788,13.7-19.577,27.408-29.365,40.132-6.852,9.789-13.7,19.577-21.534,28.387-7.831,10.767-18.6,17.619-30.344,22.513-14.683,6.852-29.365,11.746-45.027,13.7a275.3,275.3,0,0,1-28.386.978,206.672,206.672,0,0,1-25.45-1.957c-23.492-1.958-46.984-5.873-69.5-14.683-21.534-7.831-44.047-15.661-64.6-24.471-16.64-5.873-31.323-14.682-46.984-22.513-14.683-7.831-28.386-15.661-42.09-23.492-10.767-6.852-21.534-14.682-32.3-21.534-8.81-6.852-18.6-12.725-28.387-20.556-12.724-9.788-26.428-21.534-40.132-32.3L236.2,669.921c-8.809-9.788-18.6-19.577-27.407-29.365-11.746-13.7-24.471-27.407-35.238-42.09-12.725-17.619-25.45-35.238-36.217-53.836-10.767-19.576-20.556-40.132-25.45-62.645-3.915-20.556-5.873-40.132-2.936-59.709,1.957-18.6,11.746-34.259,22.513-48.942,8.809-12.725,17.619-25.449,27.407-38.174,9.789-13.7,19.577-27.408,30.344-41.111,3.915-6.852,8.81-13.7,12.725-19.577,12.725-17.619,24.471-34.259,37.2-50.9,6.851-10.768,14.682-20.556,21.534-30.344,4.894-5.873,7.831-11.746,12.725-17.619,9.788-12.725,21.534-24.471,37.2-31.323,14.682-7.831,30.343-11.746,46.984-13.7,10.767-1.957,22.513-1.957,33.28-1.957,11.746.978,23.492,1.957,34.259,3.915,14.683,2.936,29.365,4.894,44.048,9.788,20.555,5.873,40.132,12.725,60.687,20.556A444.364,444.364,0,0,1,573.9,183.44c25.45,13.7,50.9,27.408,76.349,43.069,17.619,10.767,35.238,24.471,51.878,37.2,15.662,12.725,32.3,25.45,46.984,40.132,14.683,13.7,29.365,28.386,43.069,43.069,9.788,9.788,18.6,20.555,27.407,30.344C828.4,389,836.23,400.742,844.06,412.488c5.873,8.809,12.725,17.619,17.619,27.407,4.895,7.831,7.831,15.661,11.746,23.492,1.958,4.894,3.916,10.767,6.852,15.661C889.087,499.6,892.023,521.138,893.981,548.546ZM500.489,10.187c-274.073,0-490.4,222.2-490.4,489.417,0,274.074,222.2,490.4,490.4,490.4,273.095,0,489.418-222.2,489.418-490.4C989.907,229.446,770.648,10.187,500.489,10.187Z"></path></svg>