<svg version="1.1" id="Layer_1" xmlns="http://www.w3.org/2000/svg" xmlns:xlink="http://www.w3.org/1999/xlink" x="0px" y="0px" viewBox="0 0 1000 1000" style="enable-background:new 0 0 1000 1000;" xml:space="preserve" fill="#E6007A">
<path d="M500.5,5C223.6,5,5,229.5,5,499.5C5,773.5,226.5,995,499.5,995C776.4,995,995,770.5,995,499.5C995,223.6,770.5,5,500.5,5z
	 M697.2,223.2c39.3-22.7,102.7,13.7,141.7,81.2s38.7,140.6-0.6,163.3c-39.3,22.7-102.7-13.7-141.7-81.2
	C657.7,319,658,245.9,697.2,223.2z M302.8,776.8c-39.3,22.7-102.7-13.7-141.7-81.2s-38.7-140.6,0.6-163.3s102.7,13.7,141.7,81.2
	C342.3,681,342,754.1,302.8,776.8z M303.3,386.4c-39,67.5-102.4,103.8-141.7,81.2s-39.5-95.8-0.6-163.3
	c39-67.5,102.4-103.8,141.7-81.2C342,245.9,342.3,319,303.3,386.4z M500,891.3c-77.9,0-141.1-36.8-141.1-82.1
	c0-45.3,63.2-82.1,141.1-82.1s141.1,36.8,141.1,82.1C641.1,854.6,577.9,891.3,500,891.3z M500,272.9c-77.9,0-141.1-36.8-141.1-82.1
	c0-45.3,63.2-82.1,141.1-82.1s141.1,36.8,141.1,82.1C641.1,236.1,577.9,272.9,500,272.9z M838.9,695.7
	c-39,67.5-102.4,103.8-141.7,81.2s-39.5-95.8-0.6-163.3s102.4-103.8,141.7-81.2C877.6,555.1,877.9,628.2,838.9,695.7z"></path>
</svg>