<svg xmlns="http://www.w3.org/2000/svg" viewBox="0 0 1000 1000" fill="#FF564F"><path d="M500.496 5C223.572 5 5 229.506 5 500.002c0 276.43 224.506 495.001 495.002 495.001 276.43 0 495.001-224.506 495.001-495.001C995.003 226.539 773.464 5 500.496 5zM261.155 744.783v-501.43c0-25.715 2.967-28.682 21.758-28.682 67.253 0 58.352-10.88 58.352 56.374v489.562c0 34.615 0 34.615-33.627 34.615-53.406 0-46.483 1.978-46.483-50.44zm205.715-221.54c-9.89-14.835-9.89-23.736 0-38.571 66.264-82.088 135.495-170.11 202.748-257.144 0-3.956 9.89-12.857 13.846-12.857H786.32c-40.55 46.484-68.242 84.066-102.857 128.572-32.638 44.506-71.21 93.956-105.825 141.429-13.846 14.835-13.846 23.736 0 38.571 63.297 86.045 129.561 168.133 192.858 252.2 5.934 3.955 5.934 8.9 15.824 19.78H683.464c-3.956 0-8.901-10.88-13.846-15.825-67.253-88.022-136.484-174.066-202.748-256.155z"></path></svg>