<svg xmlns="http://www.w3.org/2000/svg" viewBox="0 0 1000 1000" fill="#1D1E35"><path d="M500.496 5C223.572 5 5 229.506 5 500.002c0 276.43 224.506 495.001 495.002 495.001 276.43 0 495.001-224.506 495.001-495.001C995.003 226.539 773.464 5 500.496 5zM143.462 317.528c-16.813-44.505 46.484-48.461 101.868-30.659 56.374 15.824 111.76 37.583 170.11 56.374 3.957-32.638 7.913-65.275 13.847-97.913 6.923-33.626 16.813-69.23 26.704-103.846 24.725-73.187 64.285-77.143 93.956 2.967 17.802 48.462 40.55 163.187 40.55 203.737 23.736-9.89 48.461-20.77 71.208-30.66 4.946-1.978 8.902-7.912 9.89-12.857 7.913-19.78 27.693-26.703 45.495-15.824 6.923 3.956 13.846 3.956 21.759 2.967 47.472-10.879 68.242-18.791 100.88-11.868 22.746 4.945 30.659 19.78 21.757 37.582-25.714 55.385-82.088 96.924-162.198 166.155-6.923 6.923-12.857 10.88-20.77 17.802 4.946 2.967 11.869 8.901 20.77 13.846 50.44 39.56 100.88 78.132 140.44 129.561 9.89 12.857 17.802 23.737 21.758 37.583 7.913 17.802 0 31.648-21.758 35.604-25.714 7.912-55.385 2.967-80.11-6.923-48.462-12.857-97.913-33.626-147.363-50.44-5.934-1.978-13.846-5.934-19.78-7.912-7.913 33.627-8.902 64.286-15.825 95.935-7.912 35.604-15.824 70.22-26.703 104.835-2.967 12.857-9.89 24.726-15.824 37.583-21.759 30.66-42.528 30.66-64.286-1.978-9.89-24.726-13.846-35.605-29.67-76.154-.99-6.923-7.913-11.869-10.88-15.825-15.824-12.857-17.802-28.681-9.89-44.505 3.956-7.912 4.945-9.89 4.945-14.835-.989-27.693-4.945-55.385-8.901-85.056-51.429 9.89-179.012 81.1-249.232 68.242-22.747-6.923-30.66-20.769-21.758-43.516 6.923-16.814 16.813-30.66 29.67-46.484 38.572-43.517 86.045-83.077 136.484-118.682 5.935-2.967 9.89-7.912 15.825-10.879-21.759-18.791-45.495-39.56-70.22-54.396-1.978-1.978-7.912-3.956-10.88-3.956-23.736 0-34.615-10.879-36.593-30.66-.99-5.933-2.967-12.856-7.912-16.812-14.835-15.825-27.693-30.66-40.55-47.473-8.9-9.89-13.846-17.802-16.813-30.66zm14.835 376.815c34.616 35.604 190.88-40.55 255.166-64.286 1.978-75.165 2.967-71.209-56.374-111.759-5.934-2.967-13.846-.989-16.813 0-18.791 9.89-34.616 21.759-47.473 33.627-36.593 33.626-74.176 68.242-110.77 102.857-8.9 10.88-28.68 34.616-23.736 39.56zm0-394.617c1.978 19.78 31.649 57.363 52.418 77.143 5.934 5.934 10.88 9.89 21.758 5.934 17.803-2.967 38.572 11.869 36.594 27.693-3.956 18.791 7.912 24.725 18.791 32.637 12.857 9.89 24.725 17.803 36.594 26.704 23.736 16.813 23.736 16.813 44.505 1.978 11.868-4.945 21.759-12.857 30.66-20.77 4.945-.989 8.9-7.912 8.9-11.868 2.968-23.736 4.946-43.516 4.946-67.253-65.275-29.67-132.528-61.319-204.726-72.198-13.846-2.967-47.473-7.912-50.44 0zm206.704 201.76c16.813 7.911 28.682 15.823 43.517 24.725v-51.43c-14.835 7.913-26.704 15.825-43.517 26.704zm64.286-2.968c2.967 43.517 1.978 43.517 37.583 64.286 36.593 19.78 34.615 17.802 72.198 0 28.681-14.835 28.681-28.681 32.637-58.352 0-46.483.99-45.494-31.648-65.275-27.693-20.77-48.462-18.791-76.154 0-26.704 13.846-35.605 30.66-34.616 59.341zm2.967 119.67c18.791-7.911 31.649-15.823 46.484-23.735-16.813-8.902-27.693-16.814-46.484-26.704zm0-186.923c18.791-8.901 31.649-16.813 46.484-27.692-16.813-7.912-27.693-14.835-46.484-22.748zm3.956 210.66c2.967 28.682 8.901 58.352 11.868 88.022 0 3.957 5.935 8.902 10.88 12.858 14.835 11.868 21.758 28.681 8.9 43.516-8.9 10.88-6.922 18.792-3.955 31.649 5.934 16.813 9.89 31.648 19.78 48.461 4.945 15.825 9.89 26.704 23.736 26.704 24.726-4.945 49.451-163.188 61.32-251.21-20.77-11.868-37.583-21.758-59.342-29.67-4.945-1.978-9.89-1.978-13.846-1.978-19.78 9.89-39.56 19.78-59.34 31.648zm0-282.858c19.78 9.89 39.56 20.77 59.341 29.67 3.956 2.968 8.901 2.968 13.846 0 21.759-8.9 38.572-19.78 59.341-29.67-.989-23.736-3.956-46.484-7.912-67.253-5.934-60.33-34.615-182.968-53.407-185.935-47.472 0-60.33 175.056-71.209 253.188zm16.813 142.418c0-29.67 20.77-51.429 48.462-51.429 29.67 0 51.429 21.759 51.429 48.462 0 27.693-21.758 51.429-49.45 51.429-29.671 0-50.44-23.736-50.44-48.462zm73.188 92.967c15.824 7.913 29.67 15.825 42.527 20.77 2.967 1.978 2.967-24.726 2.967-47.473-14.835 9.89-29.67 17.802-45.494 26.704zm0-187.912c15.824 7.912 30.659 15.824 46.483 25.714 0-17.802-.989-32.637-.989-51.429-15.824 7.913-29.67 17.803-45.494 25.715zm66.264 221.539c60.33 26.703 123.626 55.385 188.901 70.22 18.792 3.956 40.55 4.945 63.297 0-4.945-23.736-16.813-37.583-29.67-51.429-35.605-44.505-81.1-79.12-127.583-112.747-27.693-21.759-27.693-21.759-58.352-.99-8.901 5.935-16.813 8.902-24.725 14.836-4.945 3.956-7.912 7.912-7.912 11.868-1.978 22.747-1.978 45.495-3.957 68.242zm1.978-256.155c-1.978 71.21-1.978 71.21 50.44 105.825 9.89 5.934 16.813 8.9 25.714 0 28.681-22.748 56.373-40.55 84.066-65.275 26.703-25.715 51.429-48.462 75.165-77.143 5.934-7.912 13.846-18.792 17.802-32.638-27.692-10.879-68.242-2.967-111.758 9.89-1.978 2.967-3.956 6.924-5.935 11.869-12.857 18.79-25.714 23.736-46.483 15.824-3.956-1.978-8.901-4.945-12.857-1.978-26.704 9.89-51.43 22.747-76.154 33.626zm3.956 154.287c11.868-8.902 23.736-16.814 40.55-24.726-15.825-10.879-28.682-18.791-40.55-26.703z"></path></svg>