<svg xmlns="http://www.w3.org/2000/svg" viewBox="0 0 1000 1000" fill="#F3B728"><path d="M749.728 72.253c74.473 44.209 133.517 103.55 177.033 178.023 45.495 77.143 68.242 160.517 68.242 250.22 0 89.704-22.747 172.78-68.242 249.232-43.516 75.165-102.56 134.506-177.033 178.022-77.143 44.803-160.517 67.253-250.22 67.253-89.704 0-172.782-22.45-249.232-67.253-74.473-43.516-133.814-102.857-178.023-178.022C27.451 673.277 5 590.2 5 500.496c0-89.703 22.45-173.077 67.253-250.22 44.209-74.473 103.55-133.814 178.023-178.023C326.726 27.45 409.804 5 499.507 5c89.704 0 173.078 22.45 250.22 67.253zM325.44 690.387l.989 28.681h124.615v84.067h103.847l-4.945-85.056h124.616V616.211h-201.76c21.067-23.044 37.287-41.242 48.462-54.396 49.451-57.363 89.012-103.55 118.682-138.462l10.88-11.868c7.22-7.22 12.164-12.56 14.835-15.824 4.648-6.627 7.615-12.56 8.9-17.803 2.671-14.538 3.264-37.582 1.979-69.23v-29.671H550.936V195.88h-99.89v85.055H335.33v101.868h193.847L480.716 437.2c-49.45 56.67-89.011 102.858-118.682 138.462-2.67 2.67-6.626 6.923-11.868 12.857-6.626 7.22-11.176 12.56-13.846 15.825-3.956 5.934-6.627 11.571-7.912 16.813-2.67 15.132-3.66 38.275-2.967 69.23z"></path></svg>